<svg width="134" height="46" viewBox="0 0 134 46" fill="none" xmlns="http://www.w3.org/2000/svg">
<g id="Group 158">
<path id="Vector" d="M24.6913 29.731C23.9575 30.3212 23.0501 30.8277 21.9693 31.2606C20.8884 31.6934 19.753 32.0671 18.568 32.377C17.3483 32.6868 16.1386 32.9229 14.9338 33.0754C13.7289 33.2279 12.6382 33.3065 11.6664 33.3065H6.85207C4.48211 33.3065 2.74678 32.8491 1.64608 31.9294C0.550344 31.0146 0 29.6228 0 27.7538V2.28222H24.6863V29.731H24.6913ZM17.2095 8.19887H7.42721V26.0472C7.42721 26.5636 7.54125 26.9227 7.76932 27.1096C7.99739 27.3014 8.36925 27.3948 8.89481 27.3948H11.5077C12.415 27.3948 13.3819 27.3014 14.4132 27.1096C15.4395 26.9177 16.3766 26.5833 17.2095 26.0964V8.19887ZM31.4343 42.3906V0.521484H39.0201V42.3906H31.4343Z" fill="#E67925"/>
<path id="Vector_2" d="M85.046 42.3906H77.4602V20.2338H71.5997C70.97 23.3815 69.5074 25.9587 67.2069 27.9653C64.9063 29.972 61.9562 30.9753 58.3666 30.9753C56.2049 30.9753 54.2861 30.6113 52.6103 29.8884C50.9344 29.1605 49.5065 28.1571 48.3215 26.8784C47.1712 25.5996 46.2887 24.0947 45.6788 22.3634C45.069 20.6322 44.7616 18.7682 44.7616 16.7615C44.7616 14.7549 45.064 12.9302 45.6788 11.1843C46.2887 9.43827 47.1861 7.92345 48.3711 6.64471C49.5214 5.36596 50.9443 4.3528 52.635 3.61015C54.3257 2.86749 56.2346 2.4937 58.3616 2.4937C60.2457 2.4937 61.9513 2.79863 63.4883 3.40358C65.0203 4.00852 66.364 4.82987 67.5143 5.86762C68.6645 6.9398 69.5967 8.19396 70.3106 9.63008C71.0246 11.0662 71.5055 12.6155 71.7485 14.2729H77.4503V0.521484H85.0361V42.3906H85.046ZM64.1527 13.6729C63.8899 12.6892 63.4982 11.799 62.9776 11.0023C62.4521 10.2399 61.8075 9.62517 61.044 9.15793C60.2755 8.6907 59.388 8.45954 58.3765 8.45954C57.3651 8.45954 56.423 8.6907 55.6545 9.15793C54.886 9.62517 54.2415 10.2399 53.7209 11.0023C53.23 11.799 52.8681 12.6892 52.6202 13.6729C52.3772 14.6565 52.2533 15.6894 52.2533 16.7615C52.2533 17.8337 52.3772 18.8715 52.6202 19.8748C52.8631 20.8781 53.23 21.7585 53.7209 22.5208C54.2415 23.2831 54.886 23.8881 55.6545 24.3357C56.423 24.7832 57.3304 25.0095 58.3765 25.0095C59.4227 25.0095 60.2755 24.7832 61.044 24.3357C61.8125 23.8881 62.457 23.2831 62.9776 22.5208C63.4982 21.7585 63.8949 20.8781 64.1527 19.8748C64.4155 18.8715 64.5444 17.8337 64.5444 16.7615C64.5444 15.6894 64.4155 14.6615 64.1527 13.6729Z" fill="#E67925"/>
<path id="Vector_3" d="M92.5278 0.727901H108.061C109.772 0.727901 110.912 1.11644 111.488 1.89353C112.063 2.67061 112.35 3.7723 112.35 5.18875C112.35 6.08879 112.296 6.979 112.192 7.85936C112.087 8.73973 111.949 9.56108 111.775 10.3234H115.434V0H122.39V24.0748H115.434V16.1368H109.365C107.903 18.5221 105.949 20.6075 103.505 22.3879C101.066 24.1683 98.1503 25.752 94.7689 27.134L92.2055 21.6354C94.2631 20.8731 96.1274 19.9681 97.8032 18.9107C99.479 17.8582 100.887 16.6384 102.037 15.2515H92.5179V9.59551H104.864C104.864 9.4578 104.883 9.31025 104.918 9.15286C104.953 8.99548 104.987 8.83318 105.022 8.66104C105.057 8.52333 105.082 8.36594 105.102 8.19381C105.121 8.02167 105.126 7.84953 105.126 7.67739C105.126 7.29868 105.037 7.01343 104.864 6.82161C104.69 6.6298 104.427 6.53636 104.08 6.53636H92.5229V0.727901H92.5278ZM119.306 29.421C119.306 30.0456 119.247 30.6653 119.123 31.2899C118.999 31.9145 118.835 32.5342 118.627 33.1588H119.257C120.025 33.1588 120.739 33.2523 121.399 33.4441C122.063 33.6359 122.708 33.8867 123.332 34.1966C125.112 35.2343 126.818 36.2377 128.459 37.2066C130.1 38.1755 131.806 39.2132 133.586 40.3198L130.289 45.8184C128.266 44.4708 126.486 43.3347 124.954 42.4199C123.417 41.5051 121.85 40.5756 120.244 39.646C119.475 39.2329 118.726 38.8689 117.993 38.5542C117.259 38.2443 116.456 38.0378 115.588 37.9295C113.843 39.8673 111.587 41.5543 108.815 42.9904C106.044 44.4266 102.88 45.3659 99.3204 45.8184L98.1156 40.1133C100.659 39.6263 102.796 38.9624 104.521 38.1164C106.247 37.2705 107.65 36.3459 108.731 35.3426C109.812 34.3392 110.59 33.2916 111.056 32.2047C111.527 31.1129 111.76 30.0849 111.76 29.116V26.1061H119.292V29.4259L119.306 29.421ZM132.852 27.3996H125.896V0H132.852V27.3947V27.3996Z" fill="#E67925"/>
<path id="Vector_4" d="M5.68195 3.3589C5.78607 3.82614 6.0439 4.26878 6.23726 4.70158C6.33643 4.91799 6.46534 5.14423 6.74795 5.1098C6.76282 5.1098 6.77769 5.09996 6.79257 5.09504C6.83223 5.09504 6.86694 5.08029 6.89669 5.06553C7.05535 4.99668 7.18922 4.86389 7.28838 4.73109C7.54124 4.40157 7.65032 3.96385 7.75444 3.56547C7.88831 3.05397 7.98251 2.52772 8.03705 2.00146H5.73649C5.64725 2.44903 5.58776 2.90642 5.68692 3.3589H5.68195Z" fill="#704633"/>
<path id="Vector_5" d="M11.6813 3.90514L11.716 3.99366C11.7259 4.18056 11.7358 4.36253 11.7457 4.54943C11.7457 4.59369 11.7606 4.63795 11.7755 4.6773C11.7854 4.82977 11.7854 4.98223 11.8003 5.1347C11.8548 5.87735 11.8945 6.66427 12.2167 7.34791C12.2961 7.51513 12.5241 7.53972 12.6679 7.46595C12.8415 7.37742 12.9505 7.23971 13.0299 7.08724C13.1687 6.9397 13.2133 6.70362 13.253 6.51181C13.3174 6.21179 13.3472 5.90194 13.3769 5.59701C13.4166 5.44947 13.4563 5.30192 13.4959 5.15929C13.5158 5.11994 13.5356 5.07568 13.5505 5.03633C13.7141 4.61828 13.8529 4.19039 13.9769 3.75759C14.1008 3.32478 14.2148 2.86247 14.1801 2.40507C14.1801 2.39031 14.1801 2.38048 14.1752 2.36572H11.4582C11.4532 2.69525 11.4482 3.02477 11.5028 3.34445C11.5325 3.53627 11.6119 3.71824 11.6862 3.90022L11.6813 3.90514Z" fill="#704633"/>
<path id="Vector_6" d="M15.9055 4.62759C15.9204 4.92761 15.8808 5.33582 16.1882 5.51288C16.5848 5.7342 16.8426 5.26205 16.9864 4.97679C17.1401 4.66202 17.2839 4.34725 17.4376 4.02757C17.5863 3.71772 17.7351 3.40295 17.8342 3.07343C17.9037 2.84719 17.9532 2.56685 17.8442 2.37012H15.8956C15.8857 2.39963 15.8708 2.4193 15.8708 2.45373C15.8659 3.17671 15.8708 3.90461 15.9055 4.62759Z" fill="#704633"/>
<path id="Vector_7" d="M52.5458 4.72126C52.6698 5.27211 52.9722 5.79836 53.2052 6.30986C53.3242 6.57052 53.473 6.83119 53.8052 6.79185C53.825 6.79185 53.8399 6.78201 53.8597 6.77709C53.9043 6.77217 53.9489 6.76234 53.9836 6.74266C54.1671 6.65905 54.3307 6.50167 54.4447 6.3492C54.7422 5.95574 54.8711 5.43933 54.9951 4.97209C55.1637 4.33272 55.2777 3.68351 55.3422 3.02447C55.3471 2.97528 55.3322 2.9261 55.3075 2.88184C54.3902 3.06873 53.5176 3.33431 52.6995 3.69335C52.6301 3.72286 52.5706 3.7622 52.5061 3.79171C52.4764 4.10156 52.4813 4.41141 52.5508 4.72126H52.5458Z" fill="#704633"/>
<path id="Vector_8" d="M57.3254 4.09644C57.3552 4.28825 57.4345 4.47022 57.5089 4.6522L57.5435 4.74073C57.5535 4.92762 57.5634 5.10959 57.5733 5.29649C57.5733 5.34075 57.5882 5.38502 57.6031 5.42436C57.613 5.57683 57.613 5.72929 57.6278 5.88176C57.6824 6.62442 57.722 7.41134 58.0443 8.09497C58.1236 8.26219 58.3517 8.28678 58.4955 8.21301C58.669 8.12448 58.7781 7.98677 58.8575 7.83431C58.9963 7.68676 59.0409 7.45068 59.0806 7.25887C59.145 6.95886 59.1748 6.64901 59.2045 6.34408C59.2442 6.19653 59.2839 6.04898 59.3235 5.90635C59.3433 5.86701 59.3632 5.82274 59.378 5.7834C59.5417 5.36534 59.6805 4.93746 59.8045 4.50465C59.9284 4.07184 60.0424 3.60953 60.0077 3.15213C59.9928 2.93081 59.9234 2.71441 59.6854 2.64063C59.6259 2.62096 59.5565 2.62096 59.4921 2.61604C59.1401 2.59145 58.788 2.57178 58.4261 2.57178C58.0394 2.57178 57.6725 2.59637 57.3006 2.62096C57.2956 2.65047 57.2857 2.67506 57.2857 2.70949C57.2857 3.16197 57.251 3.63904 57.3254 4.09152V4.09644Z" fill="#704633"/>
<path id="Vector_9" d="M61.7331 5.37531C61.748 5.67532 61.7083 6.08354 62.0157 6.2606C62.4124 6.48192 62.6702 6.00976 62.814 5.72451C62.9677 5.40974 63.1115 5.09497 63.2652 4.77528C63.4139 4.46543 63.5627 4.15067 63.6618 3.82114C63.6866 3.73753 63.7065 3.649 63.7213 3.56048C63.6618 3.53588 63.6073 3.50638 63.5478 3.48178C62.9974 3.26538 62.4124 3.09816 61.8174 2.96045C61.748 3.00963 61.6935 3.08341 61.6935 3.19653C61.6885 3.91951 61.6935 4.64741 61.7282 5.37039L61.7331 5.37531Z" fill="#704633"/>
<path id="Vector_10" d="M96.4397 2.40988C96.5637 2.96073 96.8661 3.48698 97.0992 3.99848C97.2182 4.25915 97.3669 4.51981 97.6991 4.48047C97.7189 4.48047 97.7338 4.47063 97.7536 4.46571C97.7982 4.46079 97.8429 4.45096 97.8776 4.43129C98.061 4.34767 98.2247 4.19029 98.3387 4.03782C98.6362 3.64436 98.7651 3.12795 98.889 2.66072C99.0477 2.05577 99.1568 1.44099 99.2212 0.821289H96.4992C96.3951 1.34754 96.3257 1.88363 96.4397 2.4148V2.40988Z" fill="#704633"/>
<path id="Vector_11" d="M101.403 2.3411L101.437 2.42963C101.447 2.61652 101.457 2.7985 101.467 2.98539C101.467 3.02965 101.482 3.07392 101.497 3.11326C101.507 3.26573 101.507 3.4182 101.522 3.57066C101.576 4.31332 101.616 5.10024 101.938 5.78388C102.018 5.9511 102.246 5.97569 102.389 5.90191C102.563 5.81338 102.672 5.67567 102.751 5.52321C102.89 5.37566 102.935 5.13958 102.974 4.94777C103.039 4.64776 103.069 4.33791 103.098 4.03298C103.138 3.88543 103.178 3.73788 103.217 3.59525C103.237 3.55591 103.257 3.51164 103.272 3.4723C103.436 3.05425 103.574 2.62636 103.698 2.19355C103.822 1.76075 103.936 1.29843 103.902 0.841033C103.902 0.831196 103.902 0.82136 103.902 0.811523H101.18C101.18 1.13613 101.17 1.46565 101.224 1.7755C101.254 1.96731 101.333 2.14929 101.408 2.33126L101.403 2.3411Z" fill="#704633"/>
<path id="Vector_12" d="M105.627 3.05916C105.642 3.35918 105.602 3.76739 105.91 3.94445C106.306 4.16577 106.564 3.69362 106.708 3.40836C106.862 3.09359 107.005 2.77882 107.159 2.45914C107.308 2.14929 107.457 1.83452 107.556 1.505C107.62 1.28368 107.67 1.00825 107.571 0.811523H105.612C105.607 0.836115 105.592 0.855788 105.592 0.885297C105.587 1.60828 105.592 2.33618 105.627 3.05916Z" fill="#704633"/>
</g>
</svg>
