<svg width="254" height="223" viewBox="0 0 254 223" fill="none" xmlns="http://www.w3.org/2000/svg">
<path d="M146.205 105.024C145.509 105.593 144.642 106.081 143.613 106.497C142.583 106.912 141.5 107.274 140.371 107.572C139.206 107.87 138.05 108.096 136.903 108.249C135.756 108.403 134.717 108.475 133.787 108.475H129.199C126.941 108.475 125.28 108.032 124.232 107.156C123.184 106.271 122.661 104.934 122.661 103.136V78.6273H146.214V105.033L146.205 105.024ZM139.07 84.3096H129.741V101.483C129.741 101.98 129.849 102.323 130.066 102.504C130.283 102.684 130.644 102.775 131.141 102.775H133.633C134.5 102.775 135.422 102.684 136.406 102.504C137.39 102.323 138.275 101.998 139.079 101.528V84.3096H139.07ZM152.644 117.202V76.929H159.878V117.202H152.644Z" fill="#BF9D75"/>
<path d="M203.787 117.202H196.553V95.891H190.963C190.367 98.9173 188.967 101.402 186.772 103.326C184.578 105.259 181.769 106.217 178.337 106.217C176.278 106.217 174.445 105.864 172.847 105.169C171.248 104.473 169.884 103.506 168.755 102.278C167.654 101.049 166.814 99.6039 166.236 97.9326C165.649 96.2704 165.36 94.4726 165.36 92.5394C165.36 90.6062 165.649 88.8536 166.236 87.1733C166.814 85.493 167.672 84.0386 168.801 82.81C169.902 81.5814 171.257 80.6057 172.865 79.8921C174.481 79.1784 176.296 78.817 178.328 78.817C180.126 78.817 181.751 79.1061 183.214 79.6933C184.677 80.2715 185.96 81.0664 187.052 82.0602C188.154 83.09 189.039 84.3006 189.726 85.6827C190.403 87.0649 190.864 88.5555 191.098 90.1454H196.535V76.9199H203.769V117.193L203.787 117.202ZM183.855 89.5763C183.603 88.6278 183.232 87.7695 182.736 87.0017C182.239 86.2699 181.625 85.6827 180.893 85.231C180.162 84.7793 179.313 84.5535 178.346 84.5535C177.38 84.5535 176.486 84.7793 175.755 85.231C175.023 85.6827 174.409 86.2699 173.912 87.0017C173.443 87.7695 173.099 88.6278 172.865 89.5763C172.63 90.5249 172.512 91.5186 172.512 92.5484C172.512 93.5783 172.63 94.5811 172.865 95.5386C173.099 96.5053 173.443 97.3544 173.912 98.0862C174.409 98.8179 175.023 99.4051 175.755 99.8297C176.486 100.263 177.353 100.48 178.346 100.48C179.34 100.48 180.162 100.263 180.893 99.8297C181.625 99.3961 182.239 98.8179 182.736 98.0862C183.232 97.3544 183.612 96.5053 183.855 95.5386C184.108 94.572 184.226 93.5783 184.226 92.5484C184.226 91.5186 184.099 90.5249 183.855 89.5763Z" fill="#BF9D75"/>
<path d="M210.922 77.1277H225.742C227.367 77.1277 228.46 77.4981 229.011 78.2479C229.562 78.9977 229.833 80.0547 229.833 81.4188C229.833 82.286 229.779 83.1443 229.679 83.9934C229.58 84.8426 229.445 85.6286 229.282 86.3603H232.777V76.4321H239.415V99.5949H232.777V91.9613H226.988C225.588 94.2559 223.728 96.2614 221.398 97.9778C219.068 99.6942 216.295 101.212 213.062 102.549L210.615 97.2551C212.574 96.5234 214.354 95.6471 215.952 94.6353C217.551 93.6235 218.896 92.4491 219.989 91.1211H210.913V85.6828H222.689C222.689 85.5473 222.707 85.4117 222.743 85.2582C222.78 85.1046 222.807 84.951 222.843 84.7884C222.879 84.6529 222.897 84.5084 222.915 84.3367C222.933 84.1741 222.942 84.0025 222.942 83.8399C222.942 83.4785 222.861 83.1985 222.689 83.0178C222.527 82.8371 222.274 82.7468 221.94 82.7468H210.913V77.1548L210.922 77.1277ZM236.471 104.726C236.471 105.322 236.417 105.928 236.299 106.524C236.182 107.12 236.028 107.725 235.83 108.322H236.426C237.157 108.322 237.834 108.412 238.467 108.593C239.099 108.773 239.713 109.017 240.309 109.315C242.007 110.309 243.632 111.276 245.195 112.206C246.757 113.137 248.392 114.139 250.081 115.196L246.938 120.49C245.005 119.189 243.316 118.105 241.853 117.22C240.39 116.335 238.891 115.449 237.365 114.546C236.633 114.148 235.92 113.796 235.215 113.498C234.52 113.2 233.752 113.001 232.921 112.902C231.26 114.763 229.101 116.389 226.464 117.771C223.818 119.153 220.802 120.056 217.406 120.49L216.259 114.998C218.688 114.528 220.72 113.895 222.373 113.073C224.017 112.26 225.362 111.366 226.392 110.399C227.422 109.433 228.162 108.43 228.614 107.382C229.065 106.334 229.291 105.34 229.291 104.41V101.519H236.48V104.717L236.471 104.726ZM249.394 102.784H242.756V76.4321H249.394V102.784Z" fill="#BF9D75"/>
<path d="M130.689 129.587L137.029 143.4L143.342 129.587H147.722V150.753H143.378V138.395L138.465 148.847H135.548L130.635 138.422V150.744H126.291V129.578H130.698L130.689 129.587Z" fill="#BF9D75"/>
<path d="M164.258 132.984H155.922C155.344 132.984 154.965 133.101 154.775 133.327C154.586 133.553 154.495 133.896 154.495 134.357V138.404H164.023V141.828H154.495V145.993C154.495 146.471 154.586 146.815 154.775 147.031C154.965 147.248 155.344 147.357 155.922 147.357H164.466V150.753H154.432C152.906 150.753 151.795 150.455 151.118 149.859C150.431 149.263 150.088 148.188 150.088 146.643V133.689C150.088 132.162 150.431 131.096 151.118 130.491C151.804 129.885 152.906 129.578 154.432 129.578H164.258V132.975V132.984Z" fill="#BF9D75"/>
<path d="M171.284 129.587V142.749C171.284 143.626 171.338 144.376 171.438 144.999C171.537 145.622 171.727 146.128 172.007 146.498C172.287 146.896 172.675 147.185 173.181 147.366C173.686 147.546 174.346 147.637 175.158 147.637C175.971 147.637 176.603 147.546 177.127 147.366C177.642 147.185 178.039 146.896 178.319 146.498C178.599 146.101 178.789 145.595 178.897 144.981C179.006 144.367 179.06 143.626 179.06 142.749V129.587H183.494V143.048C183.494 146.002 182.799 148.097 181.399 149.326C179.999 150.555 177.922 151.169 175.168 151.169C173.542 151.169 172.196 150.979 171.131 150.6C170.065 150.22 169.216 149.678 168.584 148.965C167.952 148.251 167.5 147.393 167.247 146.408C166.985 145.414 166.859 144.303 166.859 143.075V129.587H171.293H171.284Z" fill="#BF9D75"/>
<path d="M195.903 146.751C196.454 146.182 196.734 145.505 196.734 144.71C196.734 144.348 196.662 144.059 196.526 143.815C196.391 143.581 196.219 143.373 196.02 143.192C195.822 143.03 195.596 142.903 195.352 142.795C195.099 142.686 194.873 142.578 194.657 142.478C194.241 142.343 193.88 142.207 193.573 142.09C193.266 141.973 192.95 141.855 192.634 141.729C192.318 141.611 191.965 141.485 191.595 141.358C191.216 141.232 190.773 141.069 190.259 140.87C188.714 140.337 187.558 139.669 186.791 138.865C186.023 138.061 185.644 136.859 185.644 135.251C185.644 134.158 185.851 133.228 186.267 132.469C186.682 131.701 187.251 131.078 187.965 130.581C188.678 130.084 189.518 129.723 190.493 129.497C191.469 129.271 192.507 129.154 193.618 129.154C194.612 129.154 195.695 129.298 196.86 129.587C198.034 129.876 199.208 130.283 200.4 130.825L199.389 134.312C198.016 133.797 196.924 133.399 196.084 133.137C195.253 132.866 194.422 132.74 193.609 132.74C192.417 132.74 191.559 132.993 191.017 133.481C190.484 133.978 190.213 134.583 190.213 135.297C190.213 135.83 190.385 136.254 190.737 136.561C191.08 136.868 191.586 137.139 192.236 137.383C192.697 137.564 193.103 137.718 193.456 137.844C193.817 137.971 194.151 138.097 194.467 138.214C194.783 138.332 195.099 138.449 195.415 138.576C195.731 138.693 196.093 138.811 196.49 138.937C197.167 139.172 197.8 139.443 198.396 139.741C198.992 140.039 199.506 140.41 199.94 140.843C200.4 141.277 200.753 141.81 201.015 142.424C201.277 143.039 201.403 143.779 201.403 144.656C201.403 146.697 200.735 148.305 199.398 149.48C198.061 150.654 195.957 151.232 193.103 151.232C191.875 151.232 190.629 151.052 189.383 150.699C188.136 150.347 186.863 149.832 185.571 149.182L186.998 145.64C187.549 145.92 188.082 146.173 188.588 146.399C189.094 146.625 189.581 146.833 190.06 147.013C190.539 147.194 191.017 147.339 191.505 147.456C191.993 147.574 192.525 147.637 193.094 147.637C194.404 147.637 195.334 147.357 195.894 146.788L195.903 146.751Z" fill="#BF9D75"/>
<path d="M207.923 143.824V150.762H203.489V129.596H207.923V137.962L215.094 129.596H220.152L212.439 138.585C213.468 138.82 214.308 139.271 214.95 139.94C215.591 140.608 216.169 141.412 216.656 142.37L220.648 150.762H216.151L213.351 144.656C213.116 144.258 212.909 143.888 212.728 143.535C212.547 143.192 212.349 142.885 212.132 142.623C211.897 142.343 211.599 142.108 211.256 141.927C210.904 141.738 210.47 141.584 209.928 141.467L207.905 143.815L207.923 143.824Z" fill="#BF9D75"/>
<path d="M236.019 132.984H227.683C227.105 132.984 226.726 133.101 226.536 133.327C226.347 133.553 226.257 133.896 226.257 134.357V138.404H235.784V141.828H226.257V145.993C226.257 146.471 226.347 146.815 226.536 147.031C226.726 147.248 227.105 147.357 227.683 147.357H236.227V150.753H226.193C224.667 150.753 223.556 150.455 222.879 149.859C222.193 149.263 221.849 148.188 221.849 146.643V133.689C221.849 132.162 222.193 131.096 222.879 130.491C223.565 129.885 224.667 129.578 226.193 129.578H236.019V132.975V132.984Z" fill="#BF9D75"/>
<path d="M254 133.011H247.958V150.753H243.461V133.011H237.419V129.587H254V133.011Z" fill="#BF9D75"/>
<path d="M129.064 80.2535C129.181 80.7865 129.47 81.2924 129.687 81.7802C129.795 82.0332 129.94 82.2861 130.265 82.241C130.283 82.241 130.301 82.2319 130.319 82.2229C130.364 82.2229 130.4 82.2048 130.436 82.1868C130.617 82.1055 130.771 81.9519 130.879 81.8073C131.168 81.4279 131.285 80.9311 131.403 80.4794C131.556 79.8922 131.656 79.2959 131.719 78.6997H129.118C129.019 79.2056 128.946 79.7296 129.064 80.2445V80.2535Z" fill="#704633"/>
<path d="M133.796 80.1813L133.832 80.2626C133.841 80.4432 133.85 80.6149 133.859 80.7956C133.859 80.8407 133.868 80.8769 133.886 80.913C133.886 81.0575 133.895 81.2111 133.904 81.3556C133.959 82.0693 133.995 82.8282 134.302 83.4876C134.374 83.6502 134.591 83.6773 134.735 83.596C134.898 83.5057 135.006 83.3792 135.078 83.2347C135.205 83.0901 135.25 82.8643 135.295 82.6836C135.358 82.3945 135.385 82.0964 135.413 81.8073C135.449 81.6628 135.485 81.5273 135.53 81.3827C135.548 81.3466 135.566 81.3014 135.584 81.2653C135.738 80.8678 135.873 80.4523 135.991 80.0367C136.108 79.6212 136.216 79.1785 136.18 78.7358C136.18 78.7268 136.18 78.7087 136.18 78.6997H133.588C133.588 79.0159 133.588 79.3321 133.633 79.6392C133.661 79.8289 133.742 80.0006 133.805 80.1722L133.796 80.1813Z" fill="#704633"/>
<path d="M137.824 80.8769C137.833 81.1659 137.797 81.5634 138.095 81.726C138.474 81.9428 138.718 81.4821 138.853 81.2111C138.998 80.913 139.142 80.6058 139.278 80.2987C139.422 80.0006 139.558 79.7025 139.657 79.3772C139.72 79.1604 139.766 78.8894 139.657 78.6997H137.797C137.797 78.6997 137.779 78.7449 137.77 78.781C137.77 79.4766 137.77 80.1722 137.806 80.8678L137.824 80.8769Z" fill="#704633"/>
<path d="M172.774 80.9672C172.892 81.5002 173.181 82.0061 173.397 82.4939C173.506 82.7468 173.65 82.9998 173.975 82.9546C173.993 82.9546 174.012 82.9456 174.03 82.9365C174.075 82.9365 174.111 82.9185 174.147 82.9004C174.328 82.8191 174.481 82.6655 174.59 82.521C174.879 82.1416 174.996 81.6447 175.113 81.193C175.276 80.5787 175.384 79.9554 175.447 79.323C175.447 79.2778 175.438 79.2327 175.411 79.1875C174.535 79.3682 173.704 79.6211 172.919 79.9734C172.856 80.0005 172.792 80.0367 172.729 80.0638C172.702 80.3619 172.702 80.66 172.765 80.9581L172.774 80.9672Z" fill="#704633"/>
<path d="M177.344 80.371C177.371 80.5607 177.452 80.7323 177.516 80.9039L177.552 80.9853C177.561 81.1659 177.57 81.3376 177.579 81.5182C177.579 81.5634 177.588 81.5996 177.606 81.6357C177.606 81.7802 177.615 81.9338 177.624 82.0783C177.678 82.792 177.714 83.5509 178.021 84.2103C178.094 84.3729 178.31 84.4 178.455 84.3187C178.617 84.2284 178.726 84.1019 178.798 83.9574C178.924 83.8128 178.97 83.587 179.015 83.4063C179.078 83.1172 179.105 82.8191 179.132 82.53C179.168 82.3855 179.204 82.25 179.25 82.1054C179.268 82.0693 179.286 82.0241 179.304 81.988C179.457 81.5905 179.593 81.175 179.71 80.7594C179.828 80.3439 179.936 79.9012 179.9 79.4585C179.882 79.2508 179.819 79.0339 179.593 78.9707C179.539 78.9526 179.466 78.9526 179.403 78.9436C179.069 78.9255 178.735 78.8984 178.383 78.8984C178.012 78.8984 177.66 78.9255 177.308 78.9436C177.308 78.9707 177.299 78.9978 177.299 79.0249C177.299 79.4585 177.272 79.9193 177.335 80.3529L177.344 80.371Z" fill="#704633"/>
<path d="M181.543 81.5995C181.552 81.8886 181.516 82.2861 181.814 82.4487C182.194 82.6655 182.438 82.2048 182.573 81.9338C182.717 81.6357 182.862 81.3285 182.997 81.0214C183.142 80.7232 183.277 80.4251 183.377 80.0999C183.404 80.0186 183.422 79.9373 183.431 79.847C183.377 79.8199 183.323 79.7928 183.268 79.7747C182.745 79.5669 182.185 79.4043 181.616 79.2778C181.552 79.323 181.498 79.3953 181.498 79.5037C181.498 80.1993 181.498 80.8949 181.534 81.5905L181.543 81.5995Z" fill="#704633"/>
<path d="M214.652 78.7447C214.769 79.2777 215.058 79.7836 215.275 80.2715C215.383 80.5244 215.528 80.7773 215.853 80.7322C215.871 80.7322 215.889 80.7231 215.907 80.7141C215.952 80.7141 215.988 80.696 216.024 80.678C216.205 80.5967 216.358 80.4431 216.467 80.2986C216.756 79.9191 216.873 79.4223 216.991 78.9706C217.144 78.3924 217.243 77.7962 217.307 77.2H214.706C214.606 77.7058 214.534 78.2208 214.652 78.7357V78.7447Z" fill="#704633"/>
<path d="M219.384 78.6815L219.42 78.7628C219.429 78.9435 219.438 79.1151 219.447 79.2958C219.447 79.341 219.456 79.3771 219.474 79.4132C219.474 79.5578 219.483 79.7114 219.492 79.8559C219.546 80.5696 219.583 81.3284 219.89 81.9879C219.962 82.1505 220.179 82.1776 220.323 82.0963C220.486 82.0059 220.594 81.8795 220.666 81.7349C220.793 81.5904 220.838 81.3645 220.883 81.1839C220.946 80.8948 220.973 80.5967 221 80.3076C221.037 80.163 221.073 80.0275 221.118 79.883C221.136 79.8469 221.154 79.8017 221.172 79.7656C221.326 79.3681 221.461 78.9525 221.578 78.537C221.696 78.1214 221.804 77.6787 221.768 77.2361C221.768 77.2271 221.768 77.218 221.768 77.209H219.176C219.176 77.5252 219.176 77.8323 219.221 78.1395C219.248 78.3292 219.33 78.5008 219.393 78.6725L219.384 78.6815Z" fill="#704633"/>
<path d="M223.421 79.3681C223.43 79.6572 223.394 80.0546 223.692 80.2173C224.071 80.4341 224.315 79.9733 224.45 79.7023C224.595 79.4042 224.739 79.0971 224.875 78.7899C225.019 78.4918 225.155 78.1937 225.254 77.8685C225.317 77.6516 225.362 77.3897 225.263 77.2H223.394C223.394 77.2 223.376 77.2451 223.376 77.2722C223.376 77.9678 223.376 78.6634 223.412 79.359L223.421 79.3681Z" fill="#704633"/>
<path d="M37.6416 179.698C37.8494 178.415 35.8806 177.855 35.6729 179.156C35.6458 179.336 35.6187 179.526 35.5916 179.707C35.5193 179.743 35.4471 179.779 35.4019 179.842C34.5891 180.854 33.8215 181.893 33.108 182.968C32.801 183.004 32.4759 183.103 32.1507 183.302C25.6483 187.187 20.9973 193.438 14.4859 197.268C13.8447 197.648 12.9325 198.073 11.894 198.551C11.2979 199.039 10.6748 199.5 10.0335 199.943C8.33569 201.117 6.67397 202.336 4.97612 203.511C3.80208 204.315 2.60094 205.065 1.38174 205.778C0.930182 206.718 0.794716 207.721 1.1108 208.814C2.91703 214.966 16.9062 209.609 20.7986 209.022C27.6081 207.992 33.3338 205.453 35.5916 198.705C35.6909 198.587 35.7993 198.47 35.8896 198.344C36.4495 197.576 36.5218 196.681 36.5128 195.76C36.5037 194.703 36.4857 193.637 36.5128 192.58C36.576 188.262 36.9553 183.962 37.6507 179.698H37.6416Z" fill="#BF9D75"/>
<path d="M21.2953 209.247C21.0334 208.082 20.3471 207.161 19.6336 206.23C18.866 205.218 18.306 204.188 17.9719 202.951C17.3578 200.738 16.6172 197.783 17.9899 195.724C18.3692 195.164 17.7461 194.631 17.2223 194.748C17.2313 195.371 16.9062 195.986 16.1205 196.193C14.3594 196.663 12.8512 197.874 11.4424 198.976C9.91613 200.177 8.38084 201.307 6.68299 202.255C5.15673 203.104 3.55822 203.863 1.97778 204.658C1.11982 205.507 0.36121 206.51 0.0993078 207.694C-0.20775 209.103 0.207681 210.539 1.66169 211.045C2.42933 211.307 3.28729 211.361 4.09106 211.452C5.12061 211.569 6.15015 211.65 7.1797 211.687C9.13945 211.768 11.0992 211.705 13.0499 211.515C13.9259 211.425 14.7929 211.316 15.6599 211.181C16.4908 211.045 17.5384 211 18.2699 210.53C18.3873 210.458 18.4776 210.377 18.5679 210.286C19.2633 210.223 19.9497 210.169 20.6451 210.097C21.0966 210.051 21.4037 209.699 21.3044 209.238L21.2953 209.247Z" fill="#4E3826"/>
<path d="M4.42527 205.715C6.75529 204.152 9.11241 202.626 11.4605 201.081C16.0032 198.091 20.5187 195.028 24.7182 191.559C29.1073 187.937 33.1171 183.835 36.3051 179.101C37.0456 178.008 35.2755 176.988 34.544 178.072C28.0868 187.647 18.3061 194.152 8.80536 200.376C7.541 201.207 6.27665 202.029 5.01229 202.869C3.87437 203.619 2.67323 204.333 1.63465 205.218C0.776698 205.95 0.099365 206.962 0.153552 208.127C0.207738 209.302 0.975383 210.313 1.95977 210.901C3.16091 211.623 4.65104 211.786 6.01474 211.948C7.52294 212.138 9.0492 212.201 10.5755 212.165C13.6009 212.102 16.6263 211.686 19.6066 211.172C22.7855 210.62 25.8019 209.681 28.5745 207.992C31.2025 206.384 33.5235 204.324 35.8264 202.282C36.8108 201.406 35.3659 199.97 34.3815 200.837C30.4981 204.288 26.5786 207.513 21.4128 208.732C18.6764 209.383 15.8406 209.78 13.0319 209.997C10.2684 210.214 7.43263 210.232 4.6962 209.69C3.81115 209.518 2.1133 209.13 2.20361 207.91C2.27586 206.917 3.71181 206.194 4.42527 205.706V205.715Z" fill="#32170D"/>
<path d="M84.0977 28.4173C84.0435 27.0622 83.7636 25.8788 83.3662 24.7315C83.5468 23.7016 83.3662 22.6085 82.8243 21.7322C82.7792 21.3799 82.6979 21.0366 82.5263 20.7204C82.4902 20.612 82.436 20.5127 82.3818 20.4133C82.1831 20.2959 82.0567 20.0881 82.0206 19.8442C81.9844 19.799 81.9573 19.7448 81.9212 19.7087C81.9032 19.5822 81.867 19.4557 81.8399 19.3292V19.1847C81.8399 19.0673 81.8399 18.9498 81.8399 18.8324C81.7406 18.462 81.6322 18.0916 81.5329 17.7212C81.5329 17.7031 81.5148 17.6851 81.5058 17.667C81.4877 17.6038 81.4606 17.4954 81.4335 17.3508C81.4335 17.3237 81.4155 17.2876 81.4064 17.2605C81.3071 16.8088 81.2168 16.3571 81.1265 15.9054C81.0362 15.7428 80.9459 15.5802 80.8555 15.4176C80.5756 14.9117 80.2776 14.4781 79.8802 14.0625C79.5551 13.7192 79.2209 13.394 78.8868 13.0598C78.8777 13.0598 78.8597 13.0598 78.8506 13.0507C73.8384 8.56995 65.7375 10.2954 60.075 12.5177C59.8492 12.6081 59.7228 12.2286 59.5241 12.3642C57.1669 11.4156 54.8189 10.4399 52.3443 9.85275C46.9979 8.58801 41.2451 9.83468 37.0276 13.3488C36.9011 13.4934 36.7657 13.647 36.6121 13.7825C36.2238 14.1619 35.9258 14.5594 35.6277 15.0111C35.2665 15.5531 34.9233 16.0951 34.6253 16.6733C34.4537 17.0075 34.2911 17.3328 34.1286 17.667C33.8486 18.8595 33.2074 19.9345 33.0629 21.1721C32.8823 22.6627 32.8642 24.1804 32.8823 25.671C32.9003 28.607 33.1984 31.5249 33.5596 34.4428C33.7312 35.8611 33.9931 37.2252 34.3363 38.5803C34.5711 39.2217 34.824 39.8631 35.0949 40.4955C38.8248 45.0395 42.4462 49.6648 45.9864 54.3534C48.0365 57.0635 50.1949 59.7195 52.1005 62.538C53.4913 64.6068 54.3221 66.8472 54.9724 69.1869C54.9724 69.2321 54.9904 69.2773 54.9995 69.3224C55.3698 71.2918 55.8574 73.2521 56.7876 75.0137C58.043 78.4285 60.68 82.1143 61.8541 84.4902C64.0848 89.0162 63.57 94.1745 69.2686 94.9875C71.2284 95.2676 72.872 94.2377 72.9985 92.1419C73.4229 85.3846 74.0371 78.6453 74.9673 71.9422C75.0215 71.5628 75.0847 71.1924 75.1479 70.822C75.5814 69.2231 76.0329 67.606 76.4393 65.9799C77.496 63.4324 78.6429 60.8848 79.0584 58.2108C79.1035 57.9398 79.1035 57.6778 79.0764 57.4339C79.5641 54.8864 79.6273 52.2666 80.0337 49.6648C80.6749 45.5815 81.849 41.5976 82.7069 37.5595C83.4926 33.8376 84.2603 32.2115 84.1067 28.3992L84.0977 28.4173Z" fill="#F2DEBA"/>
<path d="M73.8835 178.505C87.2495 163.048 93.1107 142.433 92.2889 122.206C92.018 115.458 90.862 108.99 89.3538 102.576C88.7487 98.8902 87.8637 95.2405 86.8612 91.645C86.6986 91.0759 86.5361 90.4977 86.3735 89.9286C86.3284 89.6847 86.2651 89.4408 86.1929 89.1969C86.1206 88.9529 86.0394 88.7271 85.9581 88.4832C85.2446 86.035 84.5312 83.5868 83.8448 81.1387C83.8629 80.8857 83.8448 80.6238 83.7816 80.3708C83.5558 79.4855 83.2578 78.6273 82.9507 77.7691C82.8062 77.209 82.6527 76.6579 82.5172 76.0978C82.165 74.6253 81.8309 73.1528 81.5509 71.6712C81.2529 70.0993 81.0271 68.5094 80.6929 66.9465C80.6478 66.1877 80.5936 65.4289 80.5394 64.6971C80.5214 64.4713 80.4672 64.2545 80.404 64.0467C80.4581 62.3393 80.2324 60.6319 79.7357 58.9968C79.8711 58.6896 79.9976 58.3825 80.1059 58.0663C80.1511 57.9489 80.133 57.8495 80.1059 57.7591C80.124 57.6959 80.1511 57.6327 80.1691 57.5694C80.3317 56.9551 79.3834 56.6931 79.2209 57.3074C78.7603 59.0871 77.4327 60.4332 76.6109 62.0412C76.367 62.52 76.1684 63.0259 76.0058 63.5408C75.8071 63.8841 75.6807 64.2725 75.6446 64.7152C75.6084 65.1217 75.5633 65.5282 75.5272 65.9347C75.5272 66.0251 75.5091 66.1064 75.5001 66.1967C75.2291 69.1869 74.904 72.15 74.4705 75.0679C74.4434 75.2486 74.4163 75.4383 74.3802 75.619C74.1996 80.2805 72.8359 84.8516 72.9443 89.5401C72.9804 90.9675 73.17 92.3497 73.4681 93.7138C74.6873 94.4907 76.358 95.114 78.11 95.4121C79.9795 100.561 82.2282 105.629 83.2126 111.032C83.8629 114.573 84.3957 119.406 83.6371 123.67C83.8629 128.295 83.8087 132.957 83.2939 137.681C82.5263 144.755 80.3317 151.178 76.8096 157.348C74.9943 160.537 73.0075 163.618 71.0838 166.734C71.0477 166.761 71.0116 166.77 70.9845 166.797C68.3564 168.821 64.2292 168.695 61.0774 168.089C57.1579 167.348 54.3402 165.063 53.1029 161.224C50.818 154.123 53.6899 145.288 54.7104 138.124C55.7129 131.032 56.6521 123.932 57.4559 116.813C57.474 116.624 57.492 116.434 57.5191 116.235C57.474 116.054 57.4469 115.874 57.4469 115.666C57.492 109.396 58.2597 103.199 58.946 96.975C59.1899 94.7888 59.3434 91.4734 60.9148 89.5582C61.0142 88.5464 61.0593 87.5256 60.9961 86.5048C60.8877 84.5896 60.2194 82.7828 59.6053 80.9851C59.1989 79.8017 58.8557 78.6092 58.657 77.3987C58.1694 77.0193 57.7539 76.5676 57.5191 76.0797C56.7695 74.5259 56.4986 72.6198 55.9838 70.9756C54.8278 67.2808 53.4009 63.6221 51.4322 60.2796C49.4182 56.8648 46.7179 53.9378 44.2163 50.8934C44.0176 50.6586 43.828 50.4146 43.6293 50.1798C43.6022 50.1346 43.5751 50.0804 43.548 50.0352C42.2836 48.0297 40.929 46.0874 39.5111 44.1903C39.1498 43.7025 38.7886 43.2237 38.4454 42.7269C38.3461 42.5281 38.2467 42.3294 38.1384 42.1397C38.1022 42.0855 38.0571 42.0313 38.0119 41.977C37.8132 41.6699 37.5965 41.3808 37.3888 41.0827C37.3617 41.0466 37.3256 41.0195 37.2985 40.9833C36.7747 40.1161 36.3141 39.2217 35.9438 38.2641C35.122 36.1412 34.5801 33.9098 33.7041 31.805C33.3519 30.0072 33.1261 28.1914 33.1171 26.3576C33.1171 24.8218 33.2435 23.268 33.5867 21.7684C33.7854 20.8831 34.0292 19.9255 34.5078 19.1486C34.9323 18.4439 35.2845 17.6941 35.5916 16.9262C36.6121 15.4357 37.9126 14.1709 39.4569 13.2133C39.9446 12.9152 40.4503 12.6171 40.9561 12.3461C41.516 12.0751 42.0759 11.8221 42.6539 11.6053C43.8009 11.1717 44.993 10.8465 46.2031 10.6387C46.8714 10.3316 47.6481 10.2051 48.3435 10.1238C48.9305 10.0515 49.5717 10.0244 50.1859 10.0967C50.4207 10.0967 50.6555 10.0967 50.8903 10.0967C51.5857 10.0515 52.2901 10.0967 52.9674 10.2593C53.1752 10.3135 53.3829 10.3858 53.5906 10.458C54.5389 10.6748 55.46 11.0001 56.336 11.4156C57.4107 11.9305 58.4493 12.852 59.2621 13.7192C60.0749 14.5865 60.4181 15.788 60.7703 16.9082C60.8877 17.1702 60.9871 17.4321 61.0322 17.7122C61.0503 18.6517 61.0593 19.5912 61.0774 20.5307H60.7523C60.4994 20.5307 60.2465 20.7566 60.2646 21.0186C60.2736 21.2806 60.4813 21.5064 60.7523 21.5064H62.1069C62.3598 21.5064 62.6127 21.2806 62.5946 21.0186C62.5856 20.7566 62.3779 20.5307 62.1069 20.5307C62.125 20.3501 62.116 20.1875 62.1069 20.0158C62.2334 19.9435 62.3237 19.8171 62.2875 19.6454C62.1792 19.0492 62.0798 18.462 61.9986 17.8658C61.9624 16.8088 62.0979 15.7338 62.6939 14.8575C63.3984 13.8276 64.5002 13.0507 65.4484 12.2558C65.8819 12.1203 66.3064 11.9667 66.7218 11.786C67.4624 11.4789 68.212 11.1536 68.9886 11.0181C69.2054 11.0001 69.4312 10.973 69.6479 10.9549C69.7382 10.9549 69.8376 10.9549 69.9279 10.9549C69.973 10.9549 70.0182 10.9549 70.0543 10.9368C72.0141 10.8465 73.9648 11.0001 75.7439 11.524C76.1864 11.7228 76.6109 11.9215 77.0354 12.1112C77.1798 12.1474 77.3243 12.1835 77.4688 12.2467C77.8301 12.3913 78.1371 12.6171 78.4261 12.8791C78.5797 12.9062 78.7242 12.9604 78.8416 13.0598C80.2504 14.2432 81.289 15.9687 81.587 17.7935C81.6141 17.9742 81.587 18.1458 81.5238 18.2994C81.6954 18.7149 81.8218 19.1486 81.8941 19.6003C81.8941 19.6003 81.8941 19.6093 81.8941 19.6183C82.0837 20.07 82.2824 20.4675 82.4721 20.7656C82.7069 21.136 83.1855 21.0095 83.3391 20.7114C83.61 20.6843 83.8629 20.5398 84.0164 20.2417C84.2602 19.79 84.5854 19.4286 84.9556 19.1215C85.4433 18.9498 85.931 18.7691 86.4006 18.5614C86.6083 18.5343 86.816 18.4801 87.0057 18.3807C87.2676 18.2994 87.4843 18.1458 87.6921 17.9651C88.0082 17.8296 88.3333 17.7212 88.6765 17.6941C88.7035 17.6941 88.7306 17.6761 88.7577 17.6761C88.9203 17.649 89.0829 17.6038 89.2364 17.5767C90.0131 17.4321 90.1214 16.4384 89.6699 15.9325C88.4055 14.4961 86.6535 13.5837 85.0189 12.6352C84.9285 12.581 84.8382 12.5358 84.7569 12.4906C83.2758 11.1265 81.2619 9.3017 79.4737 8.41638C78.2726 7.82015 77.3243 5.65203 76.069 5.19131C75.0485 4.81189 73.9467 4.3602 72.8359 4.24276C72.6011 4.13435 72.3572 4.03498 72.1224 3.92657C72.0502 3.89044 71.9779 3.84527 71.9057 3.80913C71.8786 3.8001 71.8515 3.8001 71.8244 3.79107C65.9361 1.35193 59.1537 1.61391 52.8591 2.19208C48.9034 2.55343 45.3361 3.91754 41.4708 5.0287C37.3617 6.2031 35.9077 10.8103 33.1803 12.5268C32.8281 12.7165 32.4849 12.9243 32.1507 13.132C31.8437 13.2585 31.5456 13.394 31.2476 13.5295C31.1302 13.5657 31.0128 13.6018 30.9044 13.6379C30.6516 13.7283 30.4348 13.8638 30.2632 14.0445C30.2181 14.0716 30.1819 14.0896 30.1368 14.1167C29.9742 14.1619 29.8117 14.2161 29.6581 14.2974C29.2608 14.4871 29.1343 14.8123 29.1705 15.1466C29.1343 15.1376 29.0982 15.1195 29.0531 15.1195C28.9086 15.1195 28.8002 15.1737 28.7099 15.264C28.7099 15.264 28.7008 15.264 28.6918 15.2731C28.3125 15.5079 28.3757 16.2216 28.9176 16.1764C29.4053 16.1403 29.92 16.0951 30.3987 16.2216C30.4168 16.2216 30.4348 16.2397 30.4529 16.2397C30.5342 16.321 30.6425 16.3752 30.769 16.3752C31.067 16.5468 31.2837 16.7998 31.4644 17.125C31.8617 17.8387 32.0965 18.6788 32.223 19.5009C32.1778 19.6183 32.1598 19.7448 32.1598 19.8532C32.1598 20.0249 32.223 20.1965 32.3223 20.3501C32.3223 20.3681 32.3223 20.3952 32.3223 20.4133C32.3314 20.594 32.4217 20.7205 32.53 20.7927C32.5391 20.7656 32.5571 20.7385 32.5662 20.7114C32.4668 21.3619 32.4397 22.0213 32.3946 22.6808C32.3404 23.4667 32.2952 24.2436 32.241 25.0296C32.1507 26.5744 32.1056 28.1192 32.3313 29.6459C32.4036 30.1156 32.512 30.5764 32.6384 31.0281C32.6294 31.0913 32.6384 31.1636 32.6655 31.2268C32.6836 31.2629 32.6926 31.29 32.7107 31.3262C32.53 31.3533 32.3675 31.5068 32.4397 31.7327C32.4758 31.8501 32.512 31.9766 32.5571 32.094C32.5571 32.1211 32.5571 32.1392 32.5571 32.1753C32.6203 32.5548 32.7197 32.9252 32.8281 33.2865C32.9997 34.8132 32.7378 36.3761 32.7919 37.9118C32.801 38.2641 32.8371 38.6074 32.8642 38.9598C32.53 39.9715 32.4397 41.5434 32.53 42.2119C32.5842 42.6636 32.6836 43.0882 32.801 43.4947C32.232 44.2626 32.1959 45.3105 32.6384 46.2139C33.5144 47.9665 33.0087 49.7823 33.4602 51.6432C33.4602 51.7336 33.4331 51.8239 33.4331 51.9233C33.4512 54.4889 33.4693 57.0455 33.5054 59.6111C33.1351 64.2364 32.7739 68.8798 32.6113 73.5232C32.4397 74.4085 32.3043 75.2486 32.3043 75.9623C32.1236 76.2965 32.0153 76.7031 32.0424 77.1909C32.0785 77.8413 32.1778 78.4647 32.3223 79.0519C32.3223 79.1964 32.3223 79.3319 32.3223 79.4765C32.1869 79.7746 32.0965 80.0908 32.1327 80.434C32.1778 80.8315 32.241 81.2019 32.3313 81.5723C32.3313 81.8253 32.3313 82.0782 32.3313 82.3221C32.1236 84.5715 31.9791 86.821 31.9159 89.0704C31.9159 89.3324 31.9159 89.5853 31.9159 89.8473C31.7534 90.8049 31.6179 91.7625 31.5276 92.7291C31.4102 94.039 31.0941 95.5657 31.7172 96.7853C31.7263 96.8033 31.7353 96.8124 31.7443 96.8304C31.5276 98.6553 31.5818 100.498 31.7985 102.341C30.9677 105.467 30.9135 108.692 31.1934 111.926C30.3084 122.523 31.6089 132.948 31.6179 143.806L32.7648 186.112C32.7107 186.663 32.6474 187.214 32.5933 187.765C32.53 188.497 32.5933 189.237 32.7648 189.915C32.7648 190.918 32.7648 191.911 32.7648 192.914C32.7648 193.276 32.8371 193.583 32.9545 193.863C32.9816 194.071 33.0177 194.287 33.0448 194.495C33.1442 195.209 33.7041 195.706 34.3363 195.986C34.3724 196.094 34.3995 196.212 34.4537 196.329C34.6072 196.672 34.8872 196.952 35.1942 197.151C35.2574 197.187 35.3206 197.223 35.3929 197.241C35.8535 197.684 36.4224 198.018 37.0366 198.208C37.8223 198.723 38.7254 199.075 39.6466 199.238C39.9355 199.292 40.2426 199.337 40.5406 199.364C42.392 199.59 44.2524 198.886 45.4806 197.476C45.571 197.413 45.6613 197.359 45.7426 197.287C46.1399 196.934 46.447 196.455 46.5644 195.941C46.6005 195.76 46.6186 195.588 46.6095 195.417C47.0792 193.836 46.8805 192.011 46.8714 190.403C46.8714 189.761 46.8714 189.12 46.8714 188.479C46.9798 188.153 47.1062 187.846 47.2869 187.548C47.4133 187.34 47.4856 187.142 47.5488 186.943C48.5422 185.624 49.6891 184.386 50.8903 183.185C50.3213 184.567 49.7524 185.94 49.2015 187.331C48.4699 189.165 47.7655 191.135 48.4248 193.095C48.4338 193.131 48.4519 193.158 48.4699 193.194C48.4699 193.727 48.6686 194.269 49.1473 194.757C51.1251 196.763 53.2835 198.615 55.9206 199.681C58.2687 200.629 61.7728 201.234 64.0396 199.771C65.0149 199.139 65.313 198.181 65.1323 197.079C65.0872 196.808 65.0059 196.546 64.9066 196.284C64.8885 196.23 64.8885 196.175 64.8704 196.121C64.4279 194.929 64.148 193.754 64.0757 192.526C64.0757 192.444 64.0486 192.372 64.0396 192.291C64.0938 191.649 64.3105 190.963 64.735 190.213C66.1077 185.516 70.7587 182.101 73.8383 178.541L73.8835 178.505Z" fill="#BF9D75"/>
<path d="M86.1568 119.424C85.0189 116.262 84.3416 112.929 82.7972 109.93C82.427 109.216 82.5805 108.349 83.2398 107.879C82.2554 104.518 81.2258 101.167 80.2956 97.7971C78.1011 89.8654 76.5026 81.7621 74.7144 73.731C73.7752 69.5393 67.4534 71.2015 68.1126 75.3029C67.6701 75.7004 67.3269 76.2785 67.1824 77.0554C66.5322 80.4702 65.891 83.894 65.2408 87.3088C64.8976 82.8822 64.3467 78.4557 64.0216 74.1194C63.6964 69.7742 56.887 69.738 57.2121 74.1194C57.8081 82.006 59.2893 90.3984 58.639 98.303C58.052 105.376 54.0512 112.043 51.8296 118.692C49.5357 125.585 47.901 132.668 46.8986 139.868C45.9503 146.706 45.3542 153.391 48.6325 159.724C51.3328 164.927 55.6949 169.354 61.7547 170.004C67.6972 170.646 72.872 167.809 76.1413 162.949C79.9344 157.321 83.3301 150.808 85.4343 144.348C87.6921 137.41 87.7824 130.129 86.7619 122.965C86.5903 121.782 86.3916 120.608 86.1568 119.442V119.424Z" fill="#F2DEBA"/>
<path d="M77.7669 222.997C112.661 222.997 140.949 220.06 140.949 216.438C140.949 212.816 112.661 209.88 77.7669 209.88C42.8727 209.88 14.5853 212.816 14.5853 216.438C14.5853 220.06 42.8727 222.997 77.7669 222.997Z" fill="#D3D2D3"/>
<path d="M84.1429 211.009C84.1971 210.647 84.2061 210.277 84.1519 209.943C83.9622 208.651 83.1494 207.549 82.1109 206.799C80.9368 205.959 79.528 205.561 78.2094 205.028C76.7193 204.423 75.2833 203.664 73.9106 202.824C72.6192 202.047 71.3729 201.198 70.1446 200.322C69.4854 199.852 68.8442 199.382 68.1939 198.904C67.8327 198.632 67.3269 198.343 66.9838 197.973C66.5322 197.838 66.2342 197.512 66.0806 197.115C66.0174 197.07 65.9723 197.015 65.9181 196.961C65.9181 196.961 65.9 196.952 65.891 196.943C65.8187 196.88 65.7646 196.808 65.7104 196.726C65.593 196.726 65.4846 196.753 65.3762 196.799C65.3762 196.853 65.3762 196.898 65.3582 196.952C65.3491 197.16 65.2859 197.359 65.1685 197.53C65.0782 197.648 65.0059 197.774 64.9247 197.901C64.9066 197.973 64.8885 198.045 64.8614 198.118C64.7982 198.298 64.726 198.479 64.6266 198.642C64.5363 198.885 64.3738 199.084 64.1661 199.247C64.0035 199.4 63.8319 199.545 63.6242 199.68C63.272 199.915 62.8204 199.924 62.4231 199.834C62.4231 199.834 62.405 199.834 62.396 199.834C62.0889 199.861 61.7999 199.87 61.5741 199.861C60.1653 199.78 58.7293 199.473 57.3656 199.129C54.8279 198.497 52.4075 197.44 50.6465 195.471C50.3846 195.037 50.1407 194.594 49.915 194.134C49.6802 193.655 49.2376 193.546 48.8493 193.664C48.8493 194.179 48.8403 194.703 48.8493 195.218C48.8493 195.344 48.8493 195.462 48.8674 195.588C48.8583 195.453 48.8674 195.471 48.9125 195.66C49.1022 196.121 48.7229 195.281 49.1112 196.175C49.5176 197.106 49.9962 198.009 50.52 198.885C50.5381 198.922 50.5652 198.958 50.5923 198.994C52.6424 201.677 55.1259 204.026 57.4198 206.492C59.0906 208.29 60.5717 210.16 61.836 212.265C62.405 213.222 63.0191 214.198 63.9042 214.911C64.9698 215.77 66.189 215.923 67.5256 215.968C69.2325 216.032 70.9394 216.05 72.6463 216.014C72.9353 216.014 73.2243 215.986 73.5042 215.959C74.2086 215.996 74.904 215.959 75.5362 215.77C76.5387 215.706 77.5411 215.643 78.5075 215.472C78.7965 215.535 79.1035 215.562 79.4196 215.526C79.7538 215.49 80.0608 215.39 80.3588 215.255C80.8917 215.237 81.4787 215.119 81.8851 214.794C82.6708 214.541 83.4384 214.126 83.8448 213.385C84.1971 212.752 84.2964 212.075 84.1609 211.433C84.1609 211.298 84.179 211.162 84.17 211.027L84.1429 211.009Z" fill="#4E3826"/>
<path d="M50.6736 210.612C50.0775 209.139 48.9306 208.037 48.0997 206.709C47.1514 205.191 46.5825 203.619 46.0677 201.912C45.9864 201.65 45.869 201.442 45.7336 201.252C45.7245 200.954 45.7155 200.647 45.7155 200.349C45.7155 198.615 45.9684 196.727 47.2237 195.426C47.5307 195.109 47.0431 194.631 46.745 194.947C46.6909 195.001 46.6457 195.064 46.6005 195.118C46.4651 195.082 46.3206 195.118 46.2122 195.254C45.3904 196.356 44.4873 197.467 43.2861 198.172C42.672 198.524 42.0037 198.741 41.3173 198.813C41.2812 198.813 41.2541 198.813 41.227 198.822C40.5136 198.886 39.7911 198.795 39.1047 198.542C37.7771 198.064 36.7837 196.979 35.8896 195.932C34.9414 194.82 33.9299 193.673 33.388 192.291C33.2797 192.011 32.9365 192.011 32.7829 192.173C32.6475 192.201 32.521 192.309 32.521 192.49C32.3946 196.844 34.1376 201.216 33.099 205.553C32.8552 206.582 32.4127 207.495 31.8708 208.398C31.338 209.293 30.9767 210.151 30.9948 211.208C30.9948 211.406 31.0128 211.596 31.0219 211.795C30.76 213.015 30.7419 214.243 31.2657 215.472C32.205 217.667 33.957 217.784 35.8084 217.387C36.3593 217.378 36.9282 217.297 37.3617 216.98C39.8814 216.348 42.5185 218.272 45.0562 216.718C45.4987 216.447 45.86 216.122 46.1761 215.761C47.3953 216.33 49.3008 216.529 50.3485 215.553C51.6399 214.352 51.2696 212.03 50.6916 210.602L50.6736 210.612Z" fill="#4E3826"/>
<path d="M86.3736 30.2149C87.2496 29.5825 88.3333 29.2844 89.0739 28.4623C89.7602 27.6944 90.1666 26.6646 90.4195 25.6799C90.7266 24.4784 90.7356 23.2408 90.7356 22.0031C90.7356 21.4611 90.7537 20.9281 90.5369 20.4222C90.3382 19.9705 90.1215 19.6182 90.0763 19.1123C90.0492 18.7961 90.2028 18.5974 90.4105 18.489C90.284 18.3173 90.1395 18.1547 89.9499 18.0102C89.0648 17.3417 87.8818 17.441 86.9064 17.8476C86.6806 17.9469 86.4548 18.0553 86.2471 18.1818C85.8588 18.3625 85.5246 18.6335 85.2447 18.9949C85.2176 19.031 85.1905 19.0762 85.1634 19.1123C85.0189 19.2749 84.8925 19.4466 84.766 19.6363C84.2061 20.5035 84.0797 21.5424 84.0616 22.5542C84.0255 24.903 84.0526 27.2427 84.0797 29.5915C84.0797 30.3865 84.748 31.0641 85.5517 31.0641C85.7324 31.0641 85.9039 31.0279 86.0665 30.9647C86.0214 30.7027 86.0936 30.4046 86.3645 30.2058L86.3736 30.2149Z" fill="#4E3826"/>
<path d="M32.3404 29.158C32.0063 28.1824 31.7263 27.1977 31.5186 26.1859C31.6089 25.1199 31.4644 24.063 31.2115 23.006C31.1754 22.8524 31.1302 22.6989 31.0941 22.5453C31.067 21.678 31.067 20.8108 31.1302 19.9435C31.1664 19.4286 31.2386 18.9498 31.1032 18.453C30.9045 17.7122 30.2542 17.2334 29.5317 17.0527C27.563 16.5649 25.5761 17.6219 24.5104 19.266C23.3183 21.0908 23.6164 23.4577 24.5375 25.3187C25.5761 27.4326 27.5539 28.8599 29.4053 30.206C29.5046 30.2782 29.613 30.3234 29.7304 30.3595C30.0826 30.8564 30.6787 31.1365 31.3199 30.9648C32.0514 30.7661 32.6113 29.9079 32.3494 29.149L32.3404 29.158Z" fill="#4E3826"/>
<path d="M55.4691 15.9685C55.5594 14.3605 55.0085 12.4363 53.2203 11.4968C51.2696 10.476 48.7589 11.027 46.8082 11.5149C44.9569 11.9756 43.0603 12.4815 41.5341 13.4752C41.0735 13.7733 40.6129 14.1437 40.2155 14.5593C40.0349 14.6225 39.8633 14.7219 39.7098 14.8754C38.4906 16.0498 38.0842 17.7572 38.5899 19.3201C39.1769 21.1178 40.7484 22.3283 42.9248 22.6265C46.7179 23.1504 50.8632 22.5 53.4009 20.106C54.575 19.0039 55.3788 17.4952 55.46 15.9776L55.4691 15.9685Z" fill="#4E3826"/>
<path d="M80.9097 17.2785C80.5937 15.5079 79.5822 14.0625 77.9837 13.0055C76.3761 11.9395 74.3893 11.5059 72.4476 11.262C72.3302 11.2439 72.2128 11.2349 72.0954 11.2168C72.0773 11.2168 72.0502 11.2078 72.0322 11.1987C71.5264 11.2078 71.0207 11.2349 70.524 11.2891C70.3704 11.3071 70.2079 11.3252 70.0544 11.3433C69.955 11.3523 69.4583 11.4697 69.8828 11.3613C69.6299 11.4246 69.3499 11.4246 69.088 11.4788C68.9706 11.5059 68.8622 11.542 68.7448 11.5691C68.5371 11.6685 68.3384 11.7769 68.1307 11.8763C67.8146 12.0298 67.5076 12.1653 67.1915 12.2557C65.8729 13.5927 65.3853 15.4898 65.304 17.2333C65.2227 18.9949 65.8459 20.874 67.4173 22.0122C69.0158 23.1595 71.3729 23.286 73.3417 23.3944C75.3737 23.5028 77.496 23.0601 79.2119 22.0484C81.0813 20.9553 81.2439 19.0943 80.9188 17.2785H80.9097Z" fill="#4E3826"/>
<path d="M52.6062 15.4356C52.1727 14.6316 51.3328 13.9089 50.3214 13.6198C49.9872 13.5294 49.644 13.4752 49.3008 13.4572C48.3616 13.1139 47.314 13.2313 46.429 13.5475C45.6162 13.8366 44.8485 14.2521 44.2976 14.8303C43.6925 15.4627 43.3945 16.2577 43.4938 17.0978C43.5842 17.8657 44.0718 18.6426 44.6047 19.275C45.2007 19.9706 46.0677 20.5668 47.0882 20.7023C47.5759 20.7655 48.0546 20.7113 48.4971 20.5758C48.7138 20.6391 48.9396 20.6842 49.1834 20.6752C49.7524 20.6662 50.3123 20.368 50.7639 20.1151C52.4979 19.1575 53.5635 17.1881 52.6153 15.4265L52.6062 15.4356Z" fill="#22120A"/>
<path d="M72.1857 13.2404C71.5715 12.8971 70.8129 12.7797 70.1175 12.9423C70.0904 12.9423 70.0633 12.9604 70.0363 12.9694C69.7834 12.9604 69.5215 13.0056 69.2686 13.123C68.7719 13.3579 68.2842 13.6018 67.8056 13.8547C67.4534 14.0444 67.1373 14.2432 66.9025 14.5503C66.7038 14.8123 66.6405 15.1014 66.5954 15.4176C66.5051 15.9957 66.4057 16.5739 66.478 17.1521C66.5683 17.8929 66.8121 18.5072 67.345 19.0853C68.1217 19.9255 69.3409 20.4314 70.533 20.5217C71.8244 20.6211 72.9804 20.0339 73.7209 19.1124C75.184 17.2876 74.2267 14.3877 72.1857 13.2404Z" fill="#22120A"/>
<path d="M51.2696 15.1916C49.9511 14.9929 49.6892 16.7002 51.0077 16.899C52.3263 17.0977 52.5882 15.3903 51.2696 15.1916Z" fill="#FFF5EB"/>
<path d="M72.5469 14.5955C71.3096 14.5955 71.3096 16.3209 72.5469 16.3209C73.7842 16.3209 73.7842 14.5955 72.5469 14.5955Z" fill="#FFF5EB"/>
<path d="M54.7827 1.72235C54.0873 1.75848 53.3919 1.80365 52.6965 1.83979C52.4798 1.84882 52.263 1.89399 52.0553 1.96626C52.0011 1.89399 51.9289 1.83979 51.8295 1.81269C51.5857 1.74945 51.2786 1.89399 51.2244 2.15597C51.0529 3.01419 50.9084 3.8995 51.098 4.76675C51.2786 5.59786 51.7302 6.39284 52.0824 7.16071C52.254 7.54917 52.4798 7.94666 52.9765 7.88342C53.0036 7.88342 53.0307 7.86535 53.0578 7.85632C53.13 7.85632 53.1932 7.82922 53.2384 7.80211C53.5183 7.67564 53.7532 7.44076 53.9247 7.20588C54.3673 6.61868 54.5569 5.84177 54.7466 5.13714C54.9994 4.17955 55.171 3.19486 55.2704 2.21018C55.2975 1.95723 55.0265 1.70428 54.7827 1.72235Z" fill="#704633"/>
<path d="M62.2424 2.41799C62.2153 2.08373 62.116 1.75852 61.7637 1.65011C61.4386 1.55074 61.0503 1.58687 60.7161 1.55977C60.382 1.5417 60.0478 1.5146 59.7137 1.49654C59.506 1.4875 59.2802 1.45137 59.0725 1.4875C58.8377 1.14422 58.1694 1.22552 58.1694 1.74948C58.1694 2.43605 58.1242 3.14973 58.2326 3.82726C58.2777 4.11634 58.3951 4.38736 58.5035 4.66741L58.5577 4.80292C58.5758 5.08296 58.5848 5.36301 58.6029 5.64306C58.6029 5.7063 58.6209 5.76954 58.648 5.83277C58.657 6.06765 58.6661 6.2935 58.6841 6.52838C58.7654 7.64857 58.8286 8.832 59.3073 9.86186C59.4247 10.1058 59.7679 10.1509 59.9846 10.0425C60.2375 9.90703 60.4 9.69925 60.5265 9.4734C60.7342 9.24756 60.7974 8.89524 60.8606 8.60616C60.96 8.15446 61.0051 7.69374 61.0503 7.23302C61.1135 7.0162 61.1677 6.79036 61.2309 6.57355C61.258 6.51031 61.2851 6.44707 61.3122 6.39287C61.556 5.7605 61.7637 5.1191 61.9444 4.46866C62.125 3.81823 62.2966 3.12262 62.2424 2.43605V2.41799Z" fill="#704633"/>
<path d="M67.345 2.04752C67.1192 1.96622 66.8573 1.96622 66.6225 1.95718C66.3516 1.94815 66.0716 1.93008 65.8097 1.95718C65.6923 1.96622 65.5929 2.01139 65.5026 2.05656C65.2136 1.92105 64.7802 2.05656 64.7802 2.47211C64.7711 3.56521 64.7801 4.6583 64.8343 5.74236C64.8524 6.19405 64.7982 6.80835 65.2588 7.07033C65.8458 7.40458 66.2342 6.69091 66.4509 6.26632C66.6857 5.79656 66.9025 5.31777 67.1192 4.83898C67.336 4.36922 67.5617 3.89946 67.7153 3.4026C67.8598 2.91477 67.9681 2.2553 67.354 2.03849L67.345 2.04752Z" fill="#704633"/>
<path d="M67.3811 109.351C67.3811 107.255 67.4172 105.16 67.3811 103.064C67.3359 100.995 66.9295 99.107 66.0897 97.2189C65.2498 95.3398 64.2834 93.524 63.4435 91.645C62.6127 89.775 61.8541 87.8689 61.1587 85.9537C59.8311 82.286 58.7654 78.2659 55.74 75.5919C54.7556 74.7247 53.3106 76.161 54.295 77.0373C55.7581 78.3292 56.6973 79.9823 57.4469 81.7439C57.0134 81.8162 56.6612 82.1324 56.7063 82.7106C57.1127 87.4894 56.3722 92.2593 56.4625 97.0472C56.4896 98.6372 56.6521 100.2 56.9321 101.736C56.8418 101.781 56.7515 101.835 56.6702 101.916C56.2638 102.323 56.2999 102.946 56.6702 103.362C57.2572 104.021 57.3927 104.816 57.5643 105.647C57.7449 106.506 57.9797 107.355 58.2687 108.186C58.3861 108.538 58.5216 108.882 58.657 109.225C58.7022 112.098 59.5602 115.305 62.7843 115.946C64.166 116.217 65.6291 115.865 66.5051 114.708C67.634 113.218 67.3901 111.122 67.3901 109.369L67.3811 109.351Z" fill="#BF9D75"/>
<path d="M31.1573 56.2686C30.7871 56.4944 30.3716 56.6299 29.9381 56.6299C29.8207 56.6299 29.7124 56.8287 29.595 56.8377C28.0958 57.0545 26.6779 56.919 25.242 57.4159C24.9349 57.5785 24.6188 57.714 24.3027 57.8585C24.2666 57.9037 24.2395 57.9488 24.2034 57.994C24.0047 58.247 23.8241 58.4367 23.5712 58.6354C23.228 58.9064 22.8216 58.9877 22.5146 59.3039C21.9275 59.9092 21.3496 60.4874 20.6903 60.9932C19.4801 62.7548 18.4506 64.661 17.6197 66.6304C16.7708 68.6359 16.1838 70.7769 16.6624 72.945C16.7347 73.2702 17.123 73.3786 17.3849 73.2431C18.7576 72.5114 19.4891 71.084 19.9046 69.6386C20.4013 67.9312 20.6542 66.2509 21.6927 64.7604C23.4177 62.2851 26.3528 60.8487 29.2156 60.1621C29.8569 60.0086 30.5252 59.8911 31.049 59.4665C31.6721 58.9697 31.8256 58.2289 31.7895 57.4701C31.7624 56.8829 31.6631 56.6389 31.1664 56.2595L31.1573 56.2686Z" fill="#BC4A24"/>
<path d="M30.191 65.7993C29.5137 65.167 28.8544 64.5346 28.2312 63.8571C28.3938 63.8571 28.5564 63.7848 28.6376 63.6312C28.755 63.4054 28.7009 63.0892 28.457 62.9627C28.1771 62.8091 27.87 62.7098 27.572 62.5923C27.4455 62.5381 27.3191 62.4749 27.2017 62.3936C27.0572 62.3032 26.8946 62.2039 26.723 62.1768C26.5876 62.1497 26.4611 62.1587 26.3437 62.2219C26.3076 62.249 26.2625 62.2852 26.2354 62.3213C25.9825 62.249 25.7116 62.4207 25.6393 62.6646C25.5671 62.9356 25.7296 63.1885 25.9825 63.2699C26.2715 63.3692 26.5605 63.568 26.7953 63.7848C27.0753 64.0377 27.3191 64.3268 27.572 64.6069C28.1771 65.2754 28.8363 65.8897 29.4866 66.504C29.6762 66.6846 29.9923 66.6937 30.182 66.504C30.3626 66.3233 30.3806 65.989 30.182 65.8084L30.191 65.7993Z" fill="#DB8347"/>
<path d="M30.6426 61.0925C30.6426 61.0925 30.6426 61.0473 30.6426 61.0293C30.6606 60.7763 30.3987 60.5234 30.1549 60.5414C29.8659 60.5505 29.6853 60.7583 29.6672 61.0293C29.6311 61.4448 29.5859 61.8513 29.5318 62.2669C29.5227 62.3663 29.5047 62.4566 29.4866 62.556C29.4685 62.6915 29.4595 62.8089 29.5318 62.9354C29.5589 62.9806 29.604 63.0257 29.6401 63.0619C29.6401 63.1251 29.6401 63.1793 29.6401 63.2426C29.6401 63.4955 29.8569 63.7485 30.1278 63.7304C30.3897 63.7214 30.6245 63.5136 30.6155 63.2426C30.5974 62.5921 30.6336 61.9507 30.6697 61.3003C30.6697 61.228 30.6516 61.1557 30.6245 61.0925H30.6426Z" fill="#DB8347"/>
<path d="M31.4283 68.5365C31.3199 67.8499 30.8593 67.3259 30.3445 66.8923C28.9086 65.2753 27.2198 63.9111 25.5671 62.538C25.3594 62.3664 25.0704 62.3393 24.8717 62.538C24.7001 62.7096 24.664 63.062 24.8717 63.2336C25.8019 64.0015 26.7411 64.7694 27.6442 65.5734C27.6171 65.6818 27.6262 65.7992 27.6984 65.8986C28.1319 66.54 28.7731 66.9465 29.3963 67.3892C29.4595 67.4343 29.5137 67.4705 29.5679 67.5156C29.5679 67.5156 29.595 67.5337 29.604 67.5427C29.8298 67.7957 30.0646 68.0396 30.2813 68.3016C30.2904 68.3197 30.3174 68.3197 30.3265 68.3377C30.3265 68.3468 30.3355 68.3558 30.3445 68.3648C30.3536 68.3919 30.3716 68.419 30.3807 68.4461C30.3807 68.4552 30.4078 68.5094 30.4078 68.5274C30.4348 68.6178 30.4529 68.7081 30.471 68.7984C30.5071 69.0514 30.8413 69.214 31.0761 69.1417C31.356 69.0514 31.4644 68.8075 31.4192 68.5365H31.4283Z" fill="#1B100D"/>
<path d="M62.2153 79.6751C62.0257 78.7446 62.3237 77.787 62.1341 76.8475C62.0438 76.4139 61.8541 76.0074 61.5651 75.6912C61.4206 75.0859 61.24 74.4897 61.0232 73.9025C60.8697 73.496 60.373 73.496 60.1562 73.7308C60.1292 73.7308 60.1111 73.7308 60.084 73.7308C59.8492 73.8031 59.6415 74.0741 59.7408 74.3361C59.795 74.4716 59.8582 74.6071 59.9124 74.7336C59.9756 75.7002 60.075 76.6759 60.2014 77.6425C60.093 77.7328 60.0117 77.8593 60.0208 78.0129C60.0208 78.0309 60.0208 78.04 60.0208 78.058C59.9395 78.04 59.8492 78.0309 59.7769 78.058C59.6595 78.0942 59.5421 78.1665 59.4789 78.2839C59.4157 78.4013 59.3976 78.5278 59.4247 78.6633C59.5241 79.0608 59.7769 79.4041 60.1021 79.648C60.1021 79.7022 60.1021 79.7564 60.1111 79.8106C60.1111 79.9642 60.2014 80.1087 60.3188 80.1991C60.3369 80.2533 60.364 80.2984 60.4001 80.3436C60.6259 80.6056 60.8516 80.8766 61.0774 81.1386C61.3845 81.4999 61.8812 81.1747 61.9173 80.7953C61.9354 80.6146 61.9263 80.4339 61.9444 80.2442C62.1611 80.1449 62.2605 79.91 62.2153 79.6751Z" fill="#DB8347"/>
<path d="M61.5109 81.3825C60.7433 79.6299 59.6324 78.1212 58.2868 76.7752C56.896 75.375 55.3968 74.056 54.2138 72.4661C53.8435 71.9602 52.9855 72.457 53.3648 72.9629C54.5389 74.5438 55.9748 75.8628 57.3656 77.245C58.7384 78.6181 59.8763 80.0906 60.662 81.8793C60.9149 82.4575 61.7638 81.9606 61.5109 81.3825Z" fill="#1B100D"/>
<path d="M80.8736 60.8215C80.7472 60.695 80.5936 60.5956 80.4491 60.4872C80.395 60.4511 80.3408 60.4059 80.2775 60.3788C80.2143 60.3517 80.1421 60.3156 80.0698 60.3065C79.9434 60.2794 79.8621 60.2885 79.7357 60.3065C79.7357 60.3065 79.7266 60.3065 79.7176 60.3065C79.0764 60.0717 78.3268 60.0717 77.6946 60.3246C77.5682 60.3698 77.4689 60.433 77.3966 60.5504C76.5838 61.3816 75.762 62.2307 75.2201 63.2696C75.1027 63.4955 75.1569 63.8117 75.4007 63.9381C75.6265 64.0556 75.9426 64.0014 76.0691 63.7575C76.1413 63.6129 76.2316 63.4864 76.3129 63.3509C76.331 63.3509 76.34 63.369 76.358 63.378C76.638 63.4413 76.8638 63.2967 76.9631 63.0347C76.9812 62.9896 76.9993 62.9444 77.0173 62.8992C77.0173 62.8902 77.0264 62.8721 77.0354 62.8631C77.0805 62.7728 77.1167 62.6824 77.1708 62.5921C77.2612 62.4204 77.3695 62.2578 77.4779 62.1043C77.4779 62.0952 77.496 62.0862 77.496 62.0772C77.496 62.0772 77.505 62.0681 77.514 62.0591C77.514 62.0591 77.514 62.0681 77.496 62.0772C77.5231 62.041 77.5592 62.0049 77.5863 61.9688C77.6405 61.9055 77.7037 61.8332 77.7669 61.77C77.8843 61.6345 77.9746 61.4809 78.0469 61.3183C78.0649 61.3183 78.083 61.3274 78.1101 61.3274C78.2907 61.3274 78.4171 61.246 78.4894 61.1286C78.5616 61.1286 78.6429 61.1196 78.7152 61.1196C78.7874 61.1196 78.8597 61.1196 78.9319 61.1196C78.95 61.1196 78.959 61.1196 78.9771 61.1196C79.0042 61.1196 79.0222 61.1196 79.0493 61.1286C79.1938 61.1557 79.3383 61.2009 79.4828 61.2551C79.5641 61.2912 79.6725 61.2732 79.7628 61.237C79.7808 61.237 79.7899 61.237 79.8079 61.237C79.8712 61.2732 79.9434 61.3183 80.0066 61.3635C80.0969 61.4358 80.1782 61.5171 80.2505 61.5984C80.2685 61.6255 80.2866 61.6616 80.3046 61.6887C80.3137 61.7158 80.3227 61.7429 80.3317 61.779C80.3317 61.7971 80.3317 61.8152 80.3317 61.8332C80.3317 61.9507 80.395 62.0952 80.4762 62.1765C80.5575 62.2578 80.702 62.3301 80.8194 62.3211C80.9458 62.3211 81.0813 62.2759 81.1626 62.1765C81.2529 62.0772 81.2981 61.9688 81.3071 61.8332C81.3342 61.4448 81.1174 61.0563 80.8465 60.7944L80.8736 60.8215Z" fill="#DB8347"/>
<path d="M19.2995 77.6608C19.0828 77.5433 18.7486 77.5885 18.6312 77.8414C18.4145 78.2931 18.1887 78.7538 18.0442 79.2417C17.8906 79.7656 17.8455 80.2896 17.9268 80.8316C17.9629 81.0846 18.297 81.2472 18.5319 81.1749C18.8118 81.0846 18.9202 80.8407 18.875 80.5696C18.8931 80.66 18.875 80.4974 18.875 80.4793C18.875 80.4251 18.875 80.3619 18.875 80.3077C18.875 80.2083 18.875 80.1089 18.8931 80.0186C18.8931 80.0095 18.8931 80.0095 18.8931 80.0005C18.8931 79.9734 18.9021 79.9373 18.9112 79.9102C18.9112 79.865 18.9292 79.8108 18.9383 79.7656C18.9653 79.6663 18.9924 79.5579 19.0195 79.4585C19.0557 79.3591 19.0828 79.2597 19.1279 79.1604C19.146 79.1152 19.164 79.07 19.1821 79.0249C19.2002 78.9707 19.2092 78.9616 19.1821 79.0068C19.1911 78.9887 19.2002 78.9616 19.2092 78.9436C19.2995 78.7448 19.3988 78.5461 19.4892 78.3473C19.5975 78.1124 19.5614 77.8053 19.3085 77.6788L19.2995 77.6608Z" fill="#DB8347"/>
<path d="M30.5884 92.6658C30.5703 92.4942 30.471 92.3768 30.3626 92.3045C30.1549 92.0786 29.7124 92.0967 29.5498 92.3858C29.5769 92.0696 29.5769 91.7534 29.5949 91.4372C29.6311 90.8139 29.6762 90.1996 29.7124 89.5763C29.8388 87.2546 29.8749 84.9329 29.902 82.6022C30.0375 80.9219 30.191 79.2416 30.3174 77.5523C30.3626 76.9199 29.3782 76.9199 29.333 77.5523C29.2337 78.9073 29.1073 80.2624 28.9989 81.6175C28.9628 81.6807 28.9266 81.762 28.9266 81.8614C28.9266 82.1053 28.9266 82.3402 28.9176 82.5841C28.6467 86.0079 28.3757 89.4317 28.0687 92.8556C27.9061 92.9007 27.7436 92.9459 27.581 93.0091C26.0818 92.7381 24.5556 92.973 23.0474 92.7652C22.7855 92.7291 22.5236 92.8285 22.4423 93.1085C22.4423 93.1356 22.4423 93.1717 22.4423 93.1988C22.2527 93.1988 22.063 93.1988 21.8824 93.1988C21.8463 93.1988 21.8101 93.1898 21.774 93.1808C21.783 93.1356 21.8011 93.0995 21.8011 93.0543C21.7921 92.7743 21.5844 92.5845 21.3134 92.5665C21.0244 92.5394 20.7354 92.5303 20.4464 92.5394C20.4193 92.5303 20.3922 92.5032 20.3652 92.5032C20.0581 92.431 19.751 92.3587 19.444 92.2774C19.4349 92.0244 19.2272 91.7805 18.9563 91.7896C18.7847 91.7896 18.6221 91.898 18.5409 92.0335C18.1435 91.5005 18.3151 90.3984 18.3151 89.8473L18.3332 86.9203C18.3422 84.951 18.3693 83.0268 18.7576 81.0845C18.8299 80.7231 18.9111 80.3618 18.9834 80.0004C19.0285 79.9643 19.0737 79.9282 19.1098 79.8739C19.1098 79.8739 19.1189 79.8739 19.1279 79.8739C19.2363 79.8107 19.3266 79.7023 19.3537 79.5758C19.3988 79.3861 19.453 79.2054 19.5253 79.0248C19.5975 78.8622 19.6788 78.6995 19.7781 78.546C19.8504 78.4466 19.8594 78.284 19.8233 78.1666C19.7962 78.0582 19.7149 77.9588 19.6246 77.8955C19.8052 76.9199 19.9226 75.9352 20.0581 74.9505C20.32 73.6858 20.5819 72.421 20.8799 71.1653C20.8799 71.1473 20.898 71.1202 20.907 71.1021C21.0696 71.075 21.2231 70.9756 21.2683 70.7679C21.2683 70.7317 21.2863 70.7046 21.2954 70.6775C21.3857 70.5781 21.4399 70.4426 21.4218 70.2981C21.4489 70.2258 21.4669 70.1445 21.494 70.0722C21.6205 70.0542 21.7469 69.9909 21.8282 69.8283C22.054 69.3766 22.1714 68.8979 22.3249 68.4191C22.4152 68.148 22.5326 67.8951 22.65 67.6421C22.8126 67.4524 22.9751 67.2808 23.1738 67.1272C23.3364 67.0007 23.3454 66.7297 23.2461 66.5491C23.2822 66.5039 23.3093 66.4497 23.3364 66.4045C23.508 66.2148 23.6705 66.0251 23.8512 65.8535C23.9415 65.7631 23.9776 65.6637 23.9957 65.5644C24.1311 65.4108 24.2485 65.2482 24.393 65.1036C24.4743 65.0314 24.5014 64.941 24.5195 64.8597C24.9349 65.3747 25.4135 65.8535 25.8741 66.3322C25.9193 66.3864 25.9735 66.4316 26.0186 66.4858C25.9554 66.7568 26.0999 67.0007 26.3618 67.0911C26.4521 67.1182 26.5334 67.1543 26.6237 67.1905C26.6689 67.2085 26.705 67.2266 26.7501 67.2447C26.9217 67.4163 27.0843 67.5879 27.2469 67.7596C27.2469 67.7777 27.2469 67.7867 27.2469 67.8048C27.2469 68.0396 27.2378 68.2745 27.2288 68.5094C27.2198 69.0243 27.861 69.1147 28.1138 68.7894C28.2042 69.0966 28.2583 69.4128 28.2945 69.738C28.2764 69.9458 28.2674 70.1536 28.2583 70.3704C27.9061 72.5204 27.9603 74.7427 28.0326 76.9199C28.0506 77.5523 29.035 77.5523 29.017 76.9199C28.9537 74.9415 28.8996 72.936 29.1705 70.9756C29.1976 70.9124 29.2247 70.8401 29.2247 70.7679C29.2247 70.6775 29.2247 70.5872 29.2427 70.5059C29.2698 70.3523 29.306 70.1897 29.333 70.0361C29.3963 69.8193 29.4414 69.6025 29.4685 69.3766C29.5588 69.0153 29.6582 68.6539 29.7846 68.3016C29.893 67.9945 29.6853 67.7777 29.4414 67.7235C29.4053 67.5789 29.3511 67.4344 29.2608 67.3079C29.0711 67.0098 28.7731 66.802 28.5022 66.5852C27.9513 66.1425 27.4094 65.6999 26.8405 65.2753C26.3167 64.8868 25.6845 64.5797 25.2329 64.1099C25.1516 64.0286 25.0613 63.9925 24.971 63.9744C24.8265 63.8931 24.664 63.875 24.5014 63.9744C24.4021 64.0286 24.3298 64.137 24.2847 64.2545C24.0589 64.0377 23.5802 64.0377 23.4357 64.4442C23.3093 64.7784 23.1016 65.0765 22.8939 65.3656C22.8036 65.4831 22.7223 65.5915 22.641 65.7179C22.6229 65.745 22.5958 65.7812 22.5778 65.8083C22.5687 65.8263 22.5597 65.8354 22.5507 65.8535C21.7469 66.7568 21.1238 67.7867 20.6903 68.9159C20.6541 68.9521 20.609 68.9792 20.5909 69.0153C20.4916 69.1418 20.4464 69.3044 20.4103 69.467C20.3471 69.5212 20.2929 69.5935 20.2568 69.7019C20.1484 70.0813 20.0581 70.4517 19.9678 70.8311C19.751 71.4544 19.5704 72.0868 19.4349 72.7372C19.3085 73.3786 19.2092 74.0291 19.1189 74.6795C19.0376 75.068 18.9563 75.4564 18.875 75.8449C18.4235 77.9768 17.8726 80.1088 17.5655 82.2679C17.2675 84.3367 17.3578 86.4506 17.3397 88.5374C17.3397 89.5672 17.2223 90.6603 17.3668 91.6812C17.4662 92.4129 17.8906 93.0814 18.6221 93.2621C18.857 93.4247 19.1008 93.5783 19.3446 93.7138C19.4079 93.7499 19.4711 93.768 19.5343 93.7951C19.5524 93.8583 19.5794 93.9306 19.6336 93.9938C20.2116 94.7165 21.1599 94.8069 22.0178 94.9243C23.228 95.0869 24.4382 95.2405 25.6574 95.2857C26.6869 95.3308 27.9061 95.4031 28.8815 95.0056C29.2518 94.8611 29.5317 94.6352 29.7485 94.3642C29.9472 94.4094 30.182 94.3461 30.2994 94.1474C30.5613 93.6957 30.6787 93.2079 30.6064 92.6929L30.5884 92.6658ZM26.3437 94.2919C26.8766 94.2919 27.4094 94.2468 27.9423 94.1655C27.9964 94.1655 28.0597 94.1655 28.1138 94.1655C28.0687 94.1745 28.0235 94.1926 27.9693 94.2016C27.4365 94.2829 26.8856 94.301 26.3437 94.2919Z" fill="#DB8347"/>
<path d="M63.0823 27.4055C62.6308 26.7009 62.2876 25.9601 62.0618 25.1651C62.0437 25.0929 61.9895 25.0387 61.9354 24.9935C61.9715 24.858 61.9986 24.7135 62.0257 24.5689C62.107 23.9817 62.0708 23.4035 62.0257 22.8163C61.9895 22.3737 61.2942 22.3647 61.3303 22.8163C61.3754 23.3674 61.4296 23.9365 61.3393 24.4966C61.2671 24.9935 61.0593 25.4362 60.8065 25.8607C60.2465 26.7912 59.5963 27.6765 58.928 28.5257C58.6571 28.878 59.1448 29.3749 59.4247 29.0226C60.1472 28.1011 60.8787 27.1435 61.4657 26.1318C61.5109 26.0595 61.538 25.9872 61.5831 25.9149C61.818 26.5654 62.125 27.1978 62.4953 27.7759C62.5946 27.9385 62.8024 28.0018 62.9739 27.9024C63.1275 27.8121 63.1997 27.5862 63.1004 27.4236L63.0823 27.4055Z" fill="#32170D"/>
<path d="M48.2442 2.83355C46.6005 2.91485 45.002 3.40268 43.6022 4.26992C43.4758 4.35123 43.4397 4.46867 43.4487 4.58611C43.1055 4.67645 42.7623 4.77582 42.4101 4.86616C41.7328 5.05587 41.0464 5.25461 40.4233 5.57983C39.8362 5.88698 39.3215 6.31157 38.8338 6.75423C36.585 8.7778 34.4266 10.9188 32.2772 13.0508C31.9611 13.358 32.4488 13.8367 32.7559 13.5296C34.842 11.4699 36.9373 9.42824 39.0867 7.4408C39.6014 6.962 40.1433 6.50128 40.7664 6.16703C41.3896 5.84181 42.0669 5.66113 42.7352 5.48046C44.2073 5.08297 45.6703 4.68548 47.1424 4.28799C47.5037 4.18862 47.4224 3.70983 47.1424 3.63756C47.5037 3.57432 47.8739 3.52915 48.2442 3.51108C48.6777 3.49301 48.6867 2.80644 48.2442 2.83355Z" fill="#BF9D75"/>
<path d="M78.6429 64.8777C77.1257 66.3141 75.7891 67.9311 74.6331 69.6746C74.615 69.6927 74.606 69.7017 74.5879 69.7198L74.4434 69.9547C74.3351 70.1263 74.4073 70.2889 74.5338 70.3793C74.4705 70.5058 74.4073 70.6322 74.3531 70.7587C73.6758 72.3577 73.3146 74.0741 72.6372 75.6731C72.4656 76.0706 73.0527 76.4229 73.2242 76.0164C73.8925 74.4535 74.2628 72.7823 74.904 71.2104C75.5994 69.503 76.8096 68.0937 77.9024 66.6393C77.9295 66.6122 77.9385 66.576 77.9475 66.5489C78.3268 66.1424 78.7152 65.7449 79.1216 65.3565C79.4376 65.0493 78.959 64.5705 78.6429 64.8777Z" fill="#DB8347"/>
<path d="M93.1288 116.307C92.1805 109.035 90.88 101.808 89.4983 94.6082C89.0919 93.5061 88.7397 92.3768 88.3875 91.2566C88.3875 91.2566 88.3694 91.2566 88.3694 91.2476C87.0328 87.4534 86.1748 83.4604 85.1543 79.5849C85.1182 79.4314 85.0459 79.3139 84.9647 79.2055C82.9056 70.777 80.9549 62.24 81.0813 53.5133C81.1535 48.8519 81.9122 44.344 83.312 39.8993C84.3776 36.5117 85.1904 35.4547 85.2898 32.1845C85.3891 32.1845 85.4794 32.1845 85.5788 32.1845C86.4729 32.058 87.1502 31.4437 87.7282 30.8023C89.2725 29.5285 90.4465 27.8663 91.169 25.9601C91.6567 24.6864 91.9096 23.3313 92.018 21.9762C92.1354 20.5037 92.1534 18.9589 91.5574 17.5858C91.4942 17.4503 91.3948 17.3419 91.2774 17.2606C90.7717 15.9145 90.0492 14.6588 89.0016 13.5838C88.4236 12.9876 87.7824 12.4726 87.105 12.0029C84.8202 9.61796 82.0476 7.9196 79.2209 6.24834C76.3309 4.54095 73.2333 2.91486 70.0001 1.96631C69.9911 1.96631 69.9821 1.96631 69.973 1.96631C68.0042 1.2707 65.9903 0.710604 63.8951 0.421521C57.5462 -0.45476 50.7909 0.0149991 44.6949 2.02051C37.9577 4.2338 32.241 11.0634 26.6598 15.3093C26.4521 15.4628 26.3347 15.6616 26.2895 15.8784C25.7838 15.8603 25.269 16.0049 24.8355 16.2669C24.8175 16.2759 24.8084 16.294 24.7904 16.303C24.673 16.3572 24.5465 16.3933 24.4382 16.4566C23.8421 16.7998 23.3906 17.3509 23.1467 17.9742C22.7674 18.5885 22.5507 19.3474 22.4152 20.0701C22.1262 21.6329 22.1443 23.3042 22.6771 24.8219C23.2822 26.5383 24.4201 27.6675 25.8651 28.7245C27.5629 29.9531 29.2608 31.1817 30.9496 32.4103C30.9677 32.4284 30.9947 32.4374 31.0128 32.4464C31.1844 34.479 31.4011 33.9461 31.5818 35.9787C32.4307 45.3016 31.7353 54.6606 31.7624 64.0197C31.7714 68.7172 30.6516 74.4176 30.4619 79.1061C30.4258 79.2146 30.3987 79.341 30.4077 79.4946C30.4168 79.7204 30.4168 79.9463 30.4258 80.1721C30.4168 80.4522 30.4077 80.7322 30.3987 81.0123C30.3987 81.1659 30.4168 81.3014 30.4619 81.4188C30.4619 83.4243 30.3264 85.4298 30.2 87.4263C30.0465 89.8112 29.902 92.1962 29.7485 94.5901C29.7485 94.6263 29.7394 94.6624 29.7394 94.6985C29.7394 94.7166 29.7394 94.7347 29.7394 94.7527C29.7214 94.9695 29.7123 95.1864 29.6943 95.4122C29.6943 95.5477 29.7033 95.6651 29.7394 95.7736C29.7846 108.394 30.8412 120.011 30.8864 132.632C30.9315 145.55 32.1146 158.477 32.1688 171.396C32.1959 178.704 32.223 186.021 32.2501 193.33C32.2501 193.384 32.2501 193.429 32.2681 193.474C32.2139 196.022 32.3314 198.569 32.6113 201.108C32.7648 202.49 32.8642 203.863 32.5481 205.236C32.223 206.628 31.4011 207.82 31.058 209.211C30.489 211.488 30.3084 214.234 31.6631 216.276C33.0087 218.299 35.727 219.194 37.8765 217.875C38.039 217.775 38.1564 217.649 38.2287 217.513C39.3576 217.965 40.6851 217.839 41.8772 217.839C43.2771 217.839 44.6769 217.694 45.6432 216.565C45.6703 216.529 45.6974 216.493 45.7245 216.456C47.8197 217.288 51.7934 217.568 52.1637 214.586C52.3353 213.231 52.1637 211.813 51.6308 210.557C51.0528 209.175 50.1136 207.992 49.2918 206.754C48.4519 205.489 47.6571 204.161 47.2598 202.68C46.8624 201.198 47.0521 199.852 47.4675 198.407C47.6571 197.756 47.7926 197.097 47.901 196.437C48.5783 198.018 49.7975 199.229 50.9535 200.458C52.2901 201.876 53.6177 203.303 54.9362 204.749C57.492 207.567 59.8672 210.53 62.3959 213.367C63.4526 214.55 64.6808 215.86 66.2793 216.231C68.0675 216.646 70.1266 216.429 71.9508 216.357C73.0346 216.321 74.5699 216.357 75.482 215.698C75.6446 215.815 75.8342 215.896 76.06 215.905C77.1979 215.951 78.3358 215.942 79.4738 215.869C80.3678 215.815 81.289 215.607 81.8851 214.948C82.2553 215.255 82.8062 215.354 83.2578 214.939C84.9466 213.385 85.5156 210.801 84.5583 208.696C84.0164 207.513 83.041 206.573 82.1108 205.688C81.1716 204.803 80.1691 204.152 78.9499 203.728C77.6946 203.285 76.4303 203.005 75.2472 202.373C74.1093 201.767 73.0617 201 72.0502 200.205C71.0387 199.401 70.0453 198.569 69.0157 197.774C67.9681 196.97 66.6857 196.311 65.9993 195.146C65.2678 193.908 65.2046 192.399 65.5568 191.035C65.7374 190.331 66.0084 189.662 66.3515 189.03C66.4419 188.849 66.5412 188.659 66.6586 188.47C66.776 188.424 66.9024 188.352 67.0108 188.244C67.2456 188.027 67.4624 187.792 67.6972 187.575C68.1578 187.494 68.3745 187.205 68.4197 186.862C76.8005 178.424 82.8333 167.981 87.394 157.059C89.995 150.826 92.4515 144.367 93.4088 137.654C94.4112 130.563 94.0138 123.399 93.0927 116.326L93.1288 116.307ZM89.7512 18.706C89.8776 19.0944 89.9769 19.51 90.0672 19.9256C90.1124 20.6573 90.0311 21.4342 89.9679 22.0846C89.8686 23.2229 89.6067 24.3521 89.2003 25.4181C88.6403 26.8726 87.7282 28.1192 86.5722 29.113C86.4909 29.1672 86.4187 29.2214 86.3464 29.3027C86.1207 29.4833 85.8768 29.655 85.633 29.8266C85.5065 29.8357 85.3801 29.8447 85.2537 29.8447C85.2446 29.7092 85.2537 29.5827 85.2356 29.4472C85.0098 26.9087 84.5402 24.3973 84.4138 21.8498C84.3506 20.6483 84.4409 19.5552 85.6149 18.9138C86.8612 18.2272 88.4326 18.4982 89.7602 18.706H89.7512ZM30.8864 21.0277C30.769 22.2201 30.6967 23.4126 30.6787 24.6141C30.6516 26.3757 30.7148 28.1373 30.8232 29.8899C29.8659 29.2033 28.9176 28.5077 27.9603 27.8211C26.8224 26.99 25.567 26.2402 24.8717 24.9755C24.3208 23.9637 24.1492 22.7983 24.1943 21.6691C24.2214 21.0638 24.3117 20.4856 24.4653 19.8985C24.4833 19.8352 24.5104 19.7087 24.5556 19.5552C24.6368 19.51 24.7181 19.4648 24.7904 19.4016C24.9529 19.2751 25.0974 19.1396 25.2058 18.968C25.2239 18.9589 25.2419 18.9499 25.26 18.9409C26.4792 17.9471 29.3421 17.0257 30.6245 18.4169C31.2386 19.0764 30.9677 20.2237 30.8864 21.0367V21.0277ZM91.747 134.637C91.1329 141.412 88.9203 147.826 86.4277 154.114C84.179 159.787 81.5509 165.325 78.4171 170.556C75.1117 176.075 71.2103 181.225 66.6405 185.759C65.7013 186.157 65.0962 187.106 64.6176 187.991C63.9944 189.165 63.5429 190.412 63.3893 191.74C63.0642 194.54 64.2834 196.826 66.5141 198.443C68.6996 200.024 70.6955 201.876 72.9533 203.357C74.028 204.062 75.1659 204.649 76.3851 205.056C77.7037 205.498 79.0764 205.742 80.1782 206.655C81.2168 207.522 82.5534 208.678 82.9056 210.033C83.1314 210.883 82.9959 211.741 82.5985 212.482C82.5714 211.994 82.4811 211.515 82.3276 211.081C81.9212 209.952 81.1445 209.085 80.0066 208.669C79.5008 208.48 78.8687 208.877 78.7513 209.383C78.6158 209.961 78.9229 210.44 79.4647 210.639C79.4918 210.657 79.5279 210.666 79.555 210.684C79.6453 210.729 79.7176 210.783 79.7989 210.837C79.6092 210.72 79.8169 210.864 79.8531 210.892C79.9163 210.946 79.9705 211.018 80.0247 211.072C80.0427 211.099 80.0517 211.099 80.0608 211.108C80.0788 211.136 80.1059 211.172 80.124 211.199C80.1691 211.271 80.2143 211.343 80.2504 211.416C80.2504 211.416 80.3136 211.56 80.3317 211.578C80.3588 211.65 80.3859 211.723 80.404 211.795C80.4401 211.921 80.4762 212.048 80.4943 212.165C80.4943 212.192 80.5123 212.292 80.5214 212.337C80.5394 212.509 80.5485 212.671 80.5485 212.843C80.5485 212.933 80.5485 213.024 80.5304 213.114C80.5304 213.141 80.5214 213.186 80.5123 213.231C80.4943 213.313 80.4672 213.385 80.4401 213.466C80.5033 213.24 80.413 213.484 80.3859 213.548C80.3588 213.575 80.3407 213.602 80.3136 213.629C80.422 213.511 80.3407 213.602 80.2595 213.656C80.2504 213.656 80.2414 213.665 80.2324 213.674C80.2233 213.674 80.2143 213.674 80.2053 213.674C80.115 213.701 80.0246 213.728 79.9253 213.746C79.8892 213.746 79.8711 213.755 79.8531 213.764C79.8531 213.764 79.835 213.764 79.826 213.764C79.7447 213.764 79.6634 213.782 79.5731 213.782C79.3473 213.8 79.1306 213.81 78.9048 213.819C78.0197 213.855 77.1437 213.855 76.2587 213.819C76.1142 212.192 74.2989 210.964 73.2333 209.925C72.285 209.013 70.84 210.449 71.7883 211.37C72.1315 211.705 74.5428 213.746 74.1273 214.099C73.9648 214.234 73.4771 214.189 73.2784 214.198C72.8991 214.216 72.5198 214.234 72.1315 214.252C71.3187 214.288 70.4968 214.306 69.684 214.306C68.1668 214.306 66.6496 214.469 65.4123 213.43C64.3015 212.5 63.3893 211.334 62.4682 210.223C60.4633 207.811 58.3951 205.444 56.2819 203.113C55.2252 201.948 54.1595 200.801 53.0848 199.654C52.0643 198.569 50.8813 197.522 50.1226 196.23C49.3189 194.866 49.1744 193.258 49.1653 191.695C49.1653 190.06 49.1292 188.307 49.6982 186.753C49.8246 186.41 49.7614 186.121 49.5898 185.913C50.2581 184.892 51.0619 184.007 51.9108 183.085C52.272 182.697 52.3262 182.019 51.9108 181.64C51.5134 181.279 50.8542 181.225 50.4658 181.64C48.6235 183.618 46.754 185.832 46.3025 188.587C46.2754 188.732 46.2844 188.885 46.3025 189.03C46.2393 191.668 46.4379 194.486 45.7155 197.034C45.3632 198.271 44.9659 199.491 44.9659 200.783C44.9659 202.084 45.291 203.366 45.7967 204.568C46.7811 206.899 48.5603 208.733 49.635 210.991C49.924 211.605 50.1046 212.256 50.1497 212.933C50.1768 213.34 50.3213 214.225 50.0233 214.559C49.7253 214.885 48.9576 214.894 48.5512 214.903C47.8829 214.921 47.2146 214.803 46.6005 214.541C46.7179 213.999 46.736 213.439 46.6637 212.852C46.5915 212.301 45.887 212.003 45.4084 212.138C44.8214 212.301 44.6227 212.843 44.6949 213.394C44.7672 213.945 44.5234 214.704 44.0808 215.156C43.5028 215.752 42.6178 215.698 41.7056 215.698C40.7845 215.698 39.5382 215.887 38.7615 215.427C38.1474 215.056 37.8584 214.388 37.8855 213.71C37.9126 213.159 37.3978 212.689 36.865 212.689C36.287 212.689 35.8715 213.159 35.8445 213.71C35.7993 214.586 36.0883 215.436 36.6031 216.131C34.7336 217.053 33.0358 215.201 32.7287 213.412C32.5571 212.382 32.7016 211.244 32.8913 210.223C33.108 209.013 33.7041 207.992 34.1376 206.863C35.0497 204.505 34.7156 202.12 34.4988 199.681C34.255 196.998 34.2098 194.296 34.3543 191.604C34.3634 191.433 34.3363 191.279 34.273 191.153C34.2279 178.876 33.0448 166.59 32.9997 154.313C32.9545 141.394 31.8979 129.479 31.8437 116.551L31.7624 94.6172C31.7624 94.4998 31.7443 94.3914 31.7082 94.301C31.8527 91.9793 31.9972 89.6667 32.1417 87.345C32.2952 84.9239 32.4578 82.5119 32.3675 80.0908C32.819 69.8916 33.8125 58.6626 33.2886 48.4634C33.0177 43.2238 33.7312 38.0022 33.2345 32.7897C32.9816 30.1609 32.7378 30.0796 32.6474 27.4327C32.5662 24.9393 32.7739 22.5092 32.9184 20.034C33.09 17.1973 31.2566 15.9778 29.0802 15.8513C32.7378 13.647 36.8018 7.8925 41.3354 5.39916C46.5012 2.56254 52.552 1.885 58.4132 1.94824C61.3483 1.97534 64.2744 2.23732 67.1102 3.0323C67.7423 3.21297 68.3745 3.41172 68.9977 3.62853C69.106 3.73694 69.2505 3.82727 69.4402 3.88148C72.276 4.71259 74.9943 6.11283 77.5592 7.60341C79.4015 9.05786 81.2438 11.0363 83.041 11.9035C83.8629 12.301 84.6937 12.7346 85.4794 13.2405C85.5878 13.358 85.7052 13.4664 85.8136 13.5838C85.9942 13.7825 86.2019 13.8729 86.4006 13.891C87.2857 14.5595 88.0804 15.3454 88.6765 16.294C88.7306 16.3843 88.7848 16.4746 88.839 16.565C87.1954 16.3933 85.5336 16.4475 84.1338 17.4503C82.3366 18.7331 82.3095 20.6934 82.4721 22.717C82.8965 27.803 83.9261 30.2512 82.5895 35.2921C81.9663 37.6499 81.1174 39.9445 80.5033 42.3114C79.9072 44.615 79.5189 46.9728 79.3022 49.3397C78.8325 54.3354 79.1486 59.3582 79.8531 64.3087C80.6749 70.0543 82.0476 75.6914 83.4384 81.3194C83.4836 81.4911 83.5558 81.6266 83.6552 81.726C84.6666 85.737 85.6059 89.8203 87.1683 93.6416C87.1863 93.6958 87.2134 93.75 87.2495 93.7951C88.5229 100.372 89.715 106.976 90.6904 113.606C91.7109 120.535 92.3611 127.591 91.729 134.583L91.747 134.637Z" fill="#32170D"/>
<path d="M81.2981 61.7701C81.3252 61.6979 81.3523 61.6256 81.3703 61.5533C81.3884 61.463 81.3794 61.3726 81.3342 61.2913C81.3342 61.2733 81.3071 61.2642 81.2981 61.2552C81.289 61.201 81.28 61.1468 81.262 61.0926C81.2078 60.8938 81.1355 60.6951 81.0362 60.5144C80.9368 60.3337 80.7923 60.1621 80.6027 60.0627C80.404 59.9634 80.1873 59.9363 79.9615 59.9453C79.4648 59.8911 78.9229 59.8911 78.5165 60.1982C78.4894 60.2163 78.4713 60.2344 78.4533 60.2524C78.3359 60.2886 78.2094 60.3157 78.092 60.3699C78.1733 60.3337 78.2546 60.3066 78.3269 60.2705C78.1282 60.3518 77.9204 60.406 77.7037 60.4422C77.5502 60.668 77.4057 60.9029 77.2702 61.1378C73.8294 63.8931 71.9509 67.886 71.0026 72.1229C70.9846 72.1681 70.9846 72.2223 70.9665 72.2674C70.9755 72.6469 70.9755 73.0353 70.9484 73.4147C70.8581 74.5259 70.524 75.5919 70.4337 76.703C70.5149 76.8115 70.6504 76.8656 70.7949 76.8656C70.8401 77.6335 71.0568 78.3833 71.4542 79.0609C71.5264 79.2957 71.5987 79.5216 71.68 79.7474C71.698 79.8107 71.7251 79.8649 71.7703 79.9191C71.8064 79.9733 71.8515 80.0185 71.9057 80.0456H71.9148C71.996 80.1269 72.0954 80.1901 72.2399 80.1901C72.6102 80.1901 72.7637 79.8468 72.6914 79.5668C72.6914 79.5487 72.7185 79.5397 72.7185 79.5216C72.7998 79.1693 72.854 78.8079 72.9082 78.4466C72.9714 78.4466 73.0346 78.4285 73.0978 78.4195C73.2423 77.7239 73.4049 77.0283 73.5133 76.3327C73.7661 74.6614 74.0822 73.0082 74.6963 71.4273C75.3285 69.7922 76.1684 68.2925 77.4328 67.0639C78.4713 66.0522 79.7357 65.221 80.5395 63.9924C80.6749 63.7756 80.8375 63.6221 81.0181 63.5046C81.1897 63.1523 81.3613 62.791 81.5419 62.4386C81.4968 62.2038 81.4155 61.9779 81.2981 61.7701Z" fill="#DB8347"/>
<path d="M81.7586 105.629C81.7496 103.696 81.6322 101.763 81.2619 99.8659C81.1445 99.2877 80.6839 99.0799 80.2324 99.1432C80.4401 96.2885 80.8284 93.4428 81.4245 90.6333C81.6954 89.3505 79.7266 88.7994 79.4557 90.0913C79.2119 91.2476 79.0041 92.413 78.8145 93.5783C78.7603 92.3588 78.7151 91.1392 78.688 89.9196C78.688 89.5131 78.4713 89.2331 78.2004 89.0705C78.39 88.0858 78.5797 87.1011 78.7874 86.1164C79.0403 84.9239 78.4713 84.0115 77.6404 83.5237C77.7217 82.6655 77.803 81.8163 77.9114 80.9581C78.0739 79.6572 76.0329 79.6662 75.8703 80.9581C75.8613 81.0394 75.8523 81.1297 75.8432 81.211C75.8162 79.3681 75.7439 77.5433 76.4664 75.8088C76.6831 75.2939 76.2316 74.6886 75.7529 74.5531C75.1659 74.3815 74.7053 74.7609 74.4976 75.2668C73.7841 76.9742 73.7661 78.8261 73.7932 80.6509C73.7932 80.7955 73.7932 80.931 73.7932 81.0755C73.7571 81.1749 73.73 81.2923 73.7209 81.4188C73.6938 82.4125 73.6577 83.4062 73.6035 84.4C72.8991 86.8481 72.2218 89.3415 72.1224 91.898C72.0231 94.6082 72.6191 97.3364 73.0617 100.001C73.7029 103.832 74.1002 108.159 76.1051 111.592C76.2677 112.486 76.7464 113.299 77.5863 113.606C77.8662 113.841 78.1913 113.85 78.4713 113.733C80.0337 113.651 81.0723 112.125 81.4425 110.725C81.876 109.089 81.7586 107.283 81.7406 105.611L81.7586 105.629Z" fill="#BF9D75"/>
<path d="M83.312 105.277C83.2849 104.328 83.2036 103.371 83.1223 102.422C83.0501 101.546 83.023 100.616 82.7521 99.7664C82.454 98.8268 81.867 98.0048 81.5329 97.0743C81.1987 96.1438 81.0181 95.1681 80.8284 94.2106C80.702 93.5601 80.1421 93.3794 79.6454 93.524C79.6725 93.4517 79.6995 93.3794 79.7086 93.2981C79.8079 92.7742 79.6363 92.1689 79.5189 91.654C79.3293 90.8319 79.0132 90.0279 78.5074 89.3594C78.1552 88.176 77.8482 86.9835 77.5953 85.782C77.3785 84.716 77.207 83.641 77.0805 82.566C76.9721 81.6716 76.8638 80.7592 76.34 79.9913C76.2948 79.9281 76.2226 79.8829 76.1413 79.8558C76.2406 78.0219 76.1955 76.1881 75.9878 74.3723C75.9516 74.038 75.5452 73.9658 75.3736 74.1464C75.3736 74.1464 75.3556 74.1284 75.3465 74.1284C75.184 74.0471 74.9763 74.0832 74.8769 74.2548C74.7234 74.5258 74.606 74.824 74.5337 75.1311C74.5157 75.2215 74.5247 75.3118 74.5699 75.3931C74.615 75.4654 74.6963 75.5286 74.7776 75.5467C74.8679 75.5647 74.9582 75.5647 75.0395 75.5105C75.1117 75.4654 75.175 75.3931 75.193 75.3028C75.2291 75.1492 75.2833 75.0046 75.3375 74.8601C75.3375 74.8601 75.3375 74.8601 75.3375 74.8511C75.5543 76.9921 75.5633 79.1512 75.3465 81.2922C75.3104 81.6716 75.9516 81.7619 76.0148 81.3825C76.0329 81.2741 76.06 81.1657 76.0871 81.0573C76.3129 81.7168 76.358 82.4305 76.4483 83.117C76.5838 84.1288 76.7464 85.1316 76.9541 86.1253C77.1437 87.0377 77.3695 87.9411 77.6224 88.8354C77.4598 88.9438 77.3876 89.1697 77.5682 89.3413C77.6856 89.4497 77.7849 89.5762 77.8753 89.6936C78.1101 90.4706 78.372 91.2384 78.6519 91.9973C78.6519 92.0695 78.6519 92.1418 78.6519 92.2141L78.5255 91.925C78.4894 91.8527 78.3991 91.7895 78.3178 91.7714C78.2365 91.7534 78.1281 91.7624 78.0559 91.8076C77.9836 91.8527 77.9204 91.925 77.9024 92.0153C77.9024 92.0424 77.9024 92.0786 77.8933 92.1057C77.8933 92.1689 77.9114 92.2231 77.9385 92.2773C78.0469 92.5212 78.1552 92.7742 78.2636 93.0181C78.2997 93.0904 78.39 93.1536 78.4713 93.1717H78.4894C78.4894 93.2259 78.4894 93.2891 78.4894 93.3433C78.4894 93.3523 78.4894 93.3614 78.4803 93.3704C78.4803 93.3794 78.4803 93.3885 78.4803 93.3975C78.3268 93.3704 78.1823 93.4337 78.1462 93.6324C78.092 93.9395 78.1281 94.2015 78.2726 94.4725C78.3629 94.6351 78.5526 94.6713 78.7061 94.599C78.7422 94.6171 78.7784 94.6171 78.8145 94.6261C78.8145 94.6713 78.8145 94.7074 78.8235 94.7526C79.1306 96.3154 79.5009 97.788 80.2324 99.2063C80.982 100.679 81.0361 102.178 81.1536 103.795C81.2619 105.34 81.3432 106.948 80.991 108.466C80.6749 109.83 79.9163 111.727 78.2455 111.664C76.927 111.619 76.936 113.66 78.2455 113.706C82.454 113.859 83.3571 108.421 83.2668 105.268L83.312 105.277Z" fill="#BF9D75"/>
<path d="M83.7184 93.5601C82.1109 95.9541 81.7858 98.881 81.8399 101.691C81.8941 104.536 82.5715 107.915 81.262 110.571C80.7382 111.637 79.7808 112.612 78.5616 112.811C78.0469 112.892 77.3966 112.838 77.0625 112.396C76.6471 111.854 76.5116 110.914 76.3039 110.264C75.3556 107.319 74.4344 104.365 73.7029 101.356C72.9624 98.33 72.4295 95.2585 72.2489 92.1508C72.3121 92.1147 72.3663 92.0695 72.4115 92.0243C72.4295 91.8437 72.4566 91.672 72.4837 91.4913C72.4837 91.5546 72.4657 91.6178 72.4566 91.6811C72.4837 91.4642 72.5108 91.2474 72.5108 91.0216C72.5108 90.8951 72.556 90.7777 72.6101 90.6783C72.5198 86.0711 75.3556 81.8432 74.4435 77.1456C74.1996 75.908 72.3121 76.432 72.5469 77.6696C72.9895 79.9461 72.3302 82.2317 71.7251 84.4179C71.3819 85.6645 71.0387 86.9383 70.831 88.2211C70.7226 88.4199 70.6052 88.6186 70.4878 88.8173C70.4698 88.998 70.4337 89.1787 70.3885 89.3684C70.2982 89.7569 70.235 90.0911 70.1898 90.4434C70.1717 90.6512 70.1627 90.859 70.1447 91.0577C70.3433 98.0589 72.3753 104.807 74.5157 111.429C74.9853 112.883 75.4459 114.275 77.0625 114.735C78.3539 115.106 79.817 114.735 80.9097 113.986C83.6281 112.107 84.0706 108.719 84.0074 105.656C83.9352 101.934 83.2488 97.8602 85.4524 94.5809C86.1839 93.4878 84.4138 92.467 83.6913 93.5511L83.7184 93.5601Z" fill="#32170D"/>
<path d="M69.3138 106.325C69.2776 103.732 69.4221 101.031 68.7358 98.5017C68.0404 95.918 66.6315 93.6054 65.1956 91.374C63.3623 86.8571 61.538 82.3402 59.7047 77.8233C59.506 77.3264 59.0544 76.9921 58.4945 77.1367C58.0249 77.2632 57.6094 77.8504 57.8081 78.3472L63.0281 91.2114C62.9649 91.4372 62.992 91.6992 63.1636 91.9702C64.6176 94.2377 66.1348 96.5504 66.8122 99.1883C67.1553 100.534 67.2095 101.907 67.2276 103.29C67.2456 104.726 67.2998 106.162 67.2727 107.599C67.2276 109.966 66.7941 112.603 64.7892 114.148C64.3647 114.473 63.868 114.726 63.3532 114.862C62.7662 115.006 62.5133 114.943 62.1431 114.492C61.2129 113.353 60.3368 112.179 59.4337 111.023C59.226 109.387 59.0183 107.752 58.7925 106.117C58.5667 104.509 57.9617 103.226 56.5709 102.323C55.3697 101.537 53.9699 101.094 52.7417 100.336C51.4051 99.5135 50.2942 98.2668 48.8764 97.6073C48.8131 97.5802 48.759 97.5531 48.6957 97.5351C47.6481 96.8395 46.7811 96.1981 45.86 95.2947C44.8756 94.3461 44.0718 93.3343 43.3042 92.2774C43.0061 91.8618 42.4372 91.6179 41.9585 91.9251C41.5431 92.187 41.2812 92.8284 41.6063 93.2711C42.4733 94.4726 43.4035 95.647 44.4692 96.6859C45.4174 97.6073 46.4741 98.4113 47.5668 99.1431C47.6391 99.2334 47.7294 99.3147 47.8468 99.3689C49.1021 99.9471 50.0865 101.031 51.2425 101.799C52.3985 102.567 53.6538 103.082 54.8821 103.714C55.3788 103.967 55.9026 104.256 56.2457 104.708C56.6251 105.214 56.7154 105.909 56.8057 106.524C57.0405 108.168 57.2392 109.83 57.4559 111.474C57.5011 111.799 57.6365 112.089 57.8714 112.278C57.8894 112.314 57.9075 112.351 57.9346 112.387C58.7564 113.444 59.5873 114.501 60.4091 115.558C61.1587 116.524 61.8812 117.111 63.1636 116.967C65.2136 116.732 66.9115 115.314 67.941 113.579C69.2235 111.402 69.3499 108.8 69.3228 106.334L69.3138 106.325Z" fill="#32170D"/>
<path d="M50.7458 65.5011C46.8263 64.3087 42.5817 64.3087 38.6532 65.4288C37.732 65.5553 36.8199 65.736 35.9348 65.9889C34.7337 66.3322 33.5145 66.7568 32.4578 67.4253C32.1237 67.6421 31.645 67.9493 31.2296 68.3197C30.9045 68.5094 30.5884 68.7172 30.2994 68.952C30.3446 68.8888 30.3717 68.8075 30.3897 68.7081C30.3897 68.672 30.3897 68.6268 30.3897 68.5907C30.5613 68.5907 30.7419 68.5274 30.8413 68.3648C31.7986 66.8652 31.925 65.0494 31.6812 63.324C31.5818 62.6103 31.4193 61.8876 31.2386 61.183C31.2567 60.9842 31.2838 60.7855 31.2928 60.5777C31.3109 60.3518 31.2928 60.0989 31.1935 59.8911C30.0194 60.0086 28.8183 60.3247 27.7255 60.7042C26.6689 61.0655 25.4497 61.5895 24.655 62.4115C23.9776 63.324 23.3274 64.2635 22.623 65.1669C22.0992 65.8354 21.6386 66.54 21.2051 67.2537C21.0786 67.615 20.907 67.9674 20.7264 68.3016C20.5368 68.663 20.4013 68.9791 20.2658 69.3676C20.2387 69.4489 20.2117 69.5392 20.1846 69.6205C20.2207 69.6205 20.2568 69.6205 20.2839 69.6205C20.2387 69.9458 20.1846 70.271 20.1213 70.5962C19.9859 70.6323 19.8685 70.7317 19.8323 70.9214C19.1279 74.4446 18.3603 77.9588 17.7281 81.491C17.2856 83.9482 17.0146 86.5138 17.5113 88.962C17.3578 89.7208 17.2133 90.5067 17.4572 91.2475C17.4752 92.0154 17.6829 92.7562 18.3061 93.3434C18.9834 93.9757 19.733 94.057 20.6 94.1835C20.6632 94.1835 20.7355 94.1925 20.7987 94.2016C20.609 94.1835 20.6181 94.2016 20.8077 94.2468C20.8348 94.2558 20.8619 94.2738 20.907 94.2919C21.0245 94.3552 21.1419 94.4184 21.2502 94.4816C22.2888 95.0508 23.3635 95.4483 24.5737 95.376C25.6303 95.3127 26.5425 94.9604 27.3914 94.4094C27.9513 94.6804 28.43 94.9966 29.0712 94.7165C29.8659 94.3642 29.8478 93.4969 29.902 92.7381C30.0285 90.832 29.9833 88.9168 29.902 87.0107C29.8749 86.3873 29.8478 85.755 29.8117 85.1316C30.2904 81.8343 30.9225 78.555 31.7263 75.3119C31.7534 75.2034 31.7624 75.095 31.7715 74.9866C32.4669 74.5259 33.1171 73.8393 33.659 73.4147C34.7788 72.5565 35.9348 71.7345 37.136 71.0027C39.3666 69.6386 41.8502 68.5094 44.4963 68.3648C51.6851 67.9674 55.4781 74.9776 59.2983 79.9281C59.795 80.5786 60.8336 80.5695 61.0955 79.6933C63.1997 72.7372 56.7335 67.2988 50.7549 65.483L50.7458 65.5011Z" fill="#DB8347"/>
<path d="M62.703 77.0553C62.703 76.2784 62.6578 75.5105 62.2605 74.8511C62.2244 74.6885 62.1882 74.5349 62.1521 74.3723C62.0618 73.9838 61.9263 73.6315 61.7818 73.2792C61.6825 72.9901 61.5831 72.701 61.4477 72.43C60.9239 71.3369 60.1653 70.3974 59.2802 69.5663C59.1357 69.3766 58.9822 69.223 58.7835 69.1146C57.5824 68.0938 56.2006 67.2626 54.8369 66.5851C49.5989 63.9834 43.4848 63.36 37.8042 64.6338C35.8445 65.0765 33.9479 65.745 32.1507 66.6393C32.0966 66.3412 32.0514 66.034 32.0063 65.7359C31.9159 62.9896 32.1327 60.2524 32.1959 57.5061C32.1959 57.488 32.1959 57.479 32.1959 57.4609C32.2049 57.4158 32.223 57.3706 32.232 57.3254C32.2772 57.0544 32.2862 57.1809 32.2862 56.9099C32.2862 56.7834 32.2862 56.666 32.2682 56.5395C32.2501 56.3769 32.2411 56.1781 32.1417 56.0426C32.0604 55.9252 31.934 55.8439 31.8076 55.8168C31.7173 55.6903 31.5818 55.5909 31.4283 55.5909C31.365 55.5729 31.2928 55.5729 31.2115 55.5909C30.0646 55.8258 28.9176 56.2233 27.7707 56.4763C27.1385 56.6208 26.5605 56.6208 25.9915 56.7382C25.847 56.8015 25.7025 56.8647 25.558 56.9189C25.5039 56.937 25.4587 56.955 25.4135 56.9731C25.4135 56.9731 25.3684 56.9912 25.3503 57.0002C25.26 57.0454 25.1697 57.0815 25.0794 57.1357C24.8717 57.2441 24.673 57.3616 24.4743 57.488C20.9883 60.1892 17.8635 63.4142 16.4998 67.6872C15.8496 69.7379 15.1813 73.0443 17.6558 74.1735C17.7371 74.2097 17.8184 74.2187 17.8906 74.2187C17.8906 74.2639 17.8816 74.3 17.8726 74.3452C17.99 74.4897 18.0532 74.6794 17.9719 74.9143C17.6468 75.8809 17.5836 76.9017 17.4391 77.9045C17.2855 78.9614 17.132 80.0094 16.9875 81.0663C16.6985 83.0718 16.2199 85.0412 15.9851 87.0467C15.9851 87.11 15.967 87.1732 15.958 87.2455C15.958 87.2455 15.958 87.2635 15.958 87.2726C15.9309 87.5888 15.8225 87.8778 15.7683 88.185C15.7141 88.4831 15.687 88.7812 15.7051 89.0793C15.7051 89.2058 15.7322 89.3323 15.7503 89.4497C15.7232 90.3802 15.8135 91.2836 16.2108 92.1689C16.2108 93.0723 17.1862 93.4969 17.8906 93.804C18.1977 93.9395 18.5047 94.057 18.8208 94.1834C19.0466 94.3099 19.2814 94.4183 19.5162 94.5087C21.2954 95.2133 23.3364 95.4482 25.2239 95.5747C26.7411 95.674 28.728 95.8547 29.9652 94.7977C30.0104 91.4823 30.1639 88.176 30.6155 84.8786C30.9135 82.7015 31.3018 80.5424 31.645 78.3652C31.8076 77.3444 31.6179 75.5647 32.4759 74.824C32.5571 74.7517 32.6475 74.7065 32.7378 74.6794C33.6319 73.6496 34.6433 72.71 35.6458 71.8157C36.585 70.9846 37.6417 70.5329 38.8067 70.0993C40.0078 69.6476 41.227 69.2501 42.4914 69.0152C45.0201 68.5545 47.3501 69.1146 49.5356 70.4154C51.378 71.5176 53.112 72.8727 54.6834 74.3361C55.1169 74.9233 55.5323 75.5105 55.9748 76.0887C56.9953 77.4347 58.061 78.7537 59.1628 80.0365C59.1809 80.0545 59.1989 80.0636 59.217 80.0816C59.3073 80.2443 59.4066 80.4069 59.4879 80.5695C59.5963 80.7863 59.786 80.8495 59.9666 80.8043C60.102 81.0663 60.2285 81.3283 60.3639 81.5813C60.5807 81.9878 60.7884 82.5388 61.2671 82.7015C61.7547 82.8641 62.0799 82.6021 62.2876 82.1956C62.3959 82.1414 62.4953 82.051 62.5404 81.8974C63.0462 80.3256 63.001 78.6724 62.7482 77.0463L62.703 77.0553ZM31.2296 67.1271C30.48 67.5427 29.7485 67.9944 29.044 68.4912C28.9989 68.4641 28.9537 68.4461 28.9086 68.428C28.8905 68.4009 28.8995 68.2835 28.9266 68.1209C28.8905 68.0757 28.8544 68.0305 28.8363 67.9763C28.6918 67.624 28.737 67.2265 28.6828 66.8561C28.6828 66.8652 28.6828 66.8742 28.6828 66.8832C28.6828 66.8742 28.6828 66.8652 28.6828 66.8471C28.6376 66.6483 28.6015 66.4496 28.5473 66.2509C28.5112 66.1424 28.4751 66.025 28.4299 65.9166C28.4209 65.8895 28.3848 65.8172 28.3848 65.8172C28.3577 65.763 28.3306 65.6998 28.2945 65.6456C28.1138 65.2933 27.87 64.9771 27.6442 64.6519C27.5359 64.4983 27.4184 64.3447 27.3101 64.1911C27.3101 64.1821 27.3101 64.1911 27.3101 64.1821C27.3101 64.1821 27.3101 64.1821 27.301 64.1731C27.2739 64.1369 27.2378 64.0918 27.2107 64.0556C27.1475 63.9834 27.0843 63.9021 27.0211 63.8298C26.9579 63.7575 26.8946 63.6943 26.8314 63.622C26.8043 63.5949 26.7682 63.5588 26.7321 63.5317C26.7321 63.5317 26.6869 63.4955 26.6598 63.4775C26.6237 63.4594 26.5876 63.4323 26.5695 63.4142C26.3167 63.3781 26.118 63.1974 26.0457 62.9625C25.6122 62.9625 25.6122 62.285 26.0457 62.285C26.714 61.9146 27.4094 61.5894 28.1138 61.3094C28.7189 61.0745 29.3692 60.7764 30.0104 60.5866C30.0465 60.5776 30.0826 60.5595 30.1278 60.5595C30.2 60.5415 30.2723 60.5144 30.3445 60.4963C30.3536 60.4963 30.3626 60.4963 30.3807 60.4963C30.4348 60.4692 30.5071 60.4421 30.5884 60.4421C30.9045 60.4421 31.0399 60.7222 31.0038 60.9661C31.049 61.0564 31.067 61.1648 31.0309 61.2551C31.0128 61.3274 31.0038 61.3997 30.9857 61.481C31.1212 62.0682 31.067 62.7096 31.0399 63.2968C31.0038 64.1008 31.0219 64.9048 31.0309 65.7088C31.1031 66.1876 31.1754 66.6574 31.2567 67.1271H31.2296ZM25.6213 57.8855C26.4521 57.5151 27.3281 57.3254 28.2764 57.0725C29.026 56.8737 29.7124 56.8376 30.4529 56.7292C30.5071 56.7021 30.5703 56.684 30.6335 56.675C30.6787 56.6931 30.7238 56.7111 30.769 56.7111C30.8141 56.7111 30.8593 56.7111 30.9135 56.7202C30.9135 56.7292 30.9135 56.7382 30.9135 56.7473C31.0219 56.8286 31.0941 56.9551 31.0941 57.0906C31.0941 57.5513 31.067 58.003 31.0219 58.4637C31.0309 58.5179 31.0309 58.5811 31.0219 58.6353C31.0219 58.6444 31.0219 58.6624 31.0219 58.6715C31.0038 58.8341 31.0038 58.9967 31.0038 59.1593C30.9496 59.1683 30.8864 59.1954 30.8412 59.2406C30.8412 59.2406 30.8412 59.2406 30.8322 59.2406C30.778 59.2767 30.7238 59.3129 30.6606 59.34C30.5071 59.4032 30.3445 59.4574 30.182 59.5207C30.0826 59.5387 29.9923 59.5658 29.902 59.5929C28.3667 60.1169 26.8495 60.6951 25.4768 61.481C25.0162 60.2343 24.5736 59.1864 24.1672 58.7257C24.6188 58.3553 25.1878 58.2108 25.6483 57.8584L25.6213 57.8855ZM17.9177 72.7462C17.8545 72.7191 17.8003 72.701 17.7281 72.701C17.6829 72.701 17.6378 72.71 17.6016 72.7191C17.5384 72.7371 17.4842 72.7733 17.43 72.8184C16.5179 71.7976 16.834 70.018 17.2043 68.681C17.1952 68.5635 17.2043 68.428 17.2855 68.2925C17.3126 68.2473 17.3307 68.2022 17.3578 68.157C17.9087 66.3593 18.7937 64.6699 19.8865 63.1523C19.8865 63.1432 19.9046 63.1342 19.9136 63.1161C20.2748 62.4928 20.6722 61.8966 21.178 61.3816C21.2141 61.3455 21.2502 61.3365 21.2863 61.3094C21.6476 60.8757 22.072 60.5234 22.6139 60.3789C22.9119 60.2976 23.1377 60.415 23.2822 60.5957C23.4809 60.6499 23.6525 60.7764 23.7428 61.0203C23.9595 61.6346 23.3364 62.2398 22.948 62.6193C22.4965 63.08 22.0449 63.4594 21.6837 64.0014C20.5819 65.6637 19.6336 67.4343 19.0647 69.3495C19.0285 69.4669 18.9653 69.5572 18.9021 69.6295C18.4686 70.6503 18.1887 71.6983 18.0351 72.8275C17.999 72.8004 17.9629 72.7642 17.9177 72.7552V72.7462ZM30.0465 77.6154C29.8568 78.0852 29.7846 78.6272 29.6762 79.106C29.5317 79.7926 29.3963 80.4791 29.2879 81.1657C29.0531 82.6382 28.9086 84.1288 28.8183 85.6194C28.728 87.11 28.6828 88.6096 28.6467 90.1092C28.6286 90.8229 28.6196 91.5456 28.5925 92.2683C28.5744 92.5754 28.5473 92.8826 28.4841 93.1807C28.4841 93.1897 28.4751 93.2078 28.4661 93.2168C28.4661 93.2349 28.448 93.262 28.439 93.2801C28.439 93.262 28.439 93.262 28.439 93.2801C28.4028 93.3523 28.3757 93.4336 28.3396 93.5059C28.2764 93.6414 28.2132 93.7769 28.1409 93.9034C26.4341 94.6803 24.1402 94.3099 22.4152 94.0028C21.2592 93.804 20.0491 93.5691 18.9473 93.1446C18.5047 92.6658 18.1164 92.1328 17.8726 91.5185C17.5655 90.7596 17.5745 89.9466 17.5655 89.1426C17.5655 88.6909 17.5655 88.2482 17.5836 87.7965C17.6016 87.643 17.6107 87.4894 17.6287 87.3358C17.7823 86.0982 18.0261 84.8605 18.0712 83.6139C18.7396 78.7808 19.7691 70.6142 20.8438 68.8436C21.2502 68.4009 21.494 67.8047 21.7288 67.2355C22.1172 66.296 22.6229 65.4017 23.1829 64.5525C23.3906 64.3086 23.6073 64.0827 23.8331 63.8659C25.1607 63.3058 26.9037 64.8868 28.7189 70.0812C28.7189 70.0812 28.7189 70.0812 28.7189 70.0722C28.728 70.1444 28.7551 70.2167 28.8092 70.2709C28.8725 70.3341 28.9628 70.3703 29.0531 70.3703C29.0531 70.3703 29.0621 70.3703 29.0711 70.3703C29.017 70.569 28.9718 70.7407 28.9899 70.7949C29.044 70.9756 29.0802 71.1653 29.0982 71.3459C29.0711 71.9873 29.0982 72.6378 29.1524 73.2611C29.1524 73.3153 29.1795 73.3605 29.1976 73.4056C29.2969 74.7517 29.5679 76.0706 30.0375 77.3354C30.0375 77.3534 30.0555 77.3625 30.0646 77.3805C30.0465 77.4528 30.0465 77.5251 30.0284 77.6064L30.0465 77.6154ZM60.7613 80.1087C60.4723 79.9281 60.1653 79.7384 59.9395 79.4673C59.813 79.3228 59.7227 79.1512 59.6505 78.9795C58.4945 76.983 56.9863 75.1763 55.2704 73.5773C55.0446 73.2882 54.8279 72.9991 54.6021 72.7191C54.2047 72.2132 53.7803 71.7344 53.3287 71.3008C52.9584 70.9936 52.6062 70.6774 52.1998 70.4154C51.6309 70.036 51.0258 69.7289 50.4207 69.4217C49.7524 69.0784 49.0841 68.7261 48.3706 68.4732C47.6843 68.2293 46.9618 68.1118 46.2483 67.9854C45.4807 67.8498 44.7311 67.6872 43.9544 67.6059C42.4462 67.4524 41.0103 67.6692 39.5472 68.0305C39.3034 68.0938 39.0686 68.157 38.8247 68.2293C37.2714 68.9158 35.8896 69.9818 34.5621 71.0659C32.9274 72.4029 31.3831 73.7851 30.5703 75.7002C30.3084 74.6794 30.1549 73.6405 30.1458 72.5745C30.1458 72.1499 30.1278 71.7344 30.0826 71.3188C30.1278 70.551 30.2994 69.8012 30.778 69.1778C31.0851 68.7803 31.5005 68.5093 31.934 68.2654C32.0063 68.2473 32.0695 68.2022 32.1237 68.157C32.6836 67.8498 33.2525 67.5698 33.677 67.091C33.6951 67.0729 33.6951 67.0549 33.7041 67.0368C37.1269 65.5553 40.8748 64.8506 44.6317 65.0042C47.3411 65.1126 50.0233 65.6727 52.552 66.6574C54.4576 67.3982 56.3812 68.4009 57.9707 69.7469C58.0249 69.8283 58.0881 69.9005 58.1874 69.9457C58.359 70.0902 58.5216 70.2348 58.6842 70.3974C58.7835 70.5419 58.8738 70.6865 58.9009 70.7226C59.0454 70.9033 59.1809 71.084 59.3254 71.2737C59.6234 71.6712 59.9395 72.0596 60.2194 72.4661C60.3639 72.6739 60.4904 72.8817 60.5988 73.0985C60.5988 73.1075 60.6078 73.1256 60.6168 73.1346C60.6168 73.1527 60.6258 73.1708 60.6349 73.1798C60.7342 73.4237 60.8245 73.6767 60.8968 73.9296C60.9239 73.9477 60.9419 73.9657 60.96 73.9838C61.0955 74.3632 61.2038 74.7607 61.2941 75.1763C61.3212 75.3028 61.3483 75.4383 61.3754 75.5647C61.4567 76.1429 61.4838 76.7301 61.5199 77.3173C61.5651 78.2116 61.7005 79.1783 61.2038 79.9823C61.1135 80.1358 60.8968 80.1991 60.7342 80.1087H60.7613Z" fill="#1B100D"/>
<path d="M79.4918 59.1594C77.9565 59.0239 76.647 59.9363 75.6988 61.0565C73.45 63.7215 71.9057 67.1363 70.9123 70.4607C69.964 73.6316 68.6184 78.8803 72.3573 80.8316C72.6914 81.0032 72.9985 80.7683 73.0797 80.4973C73.0978 80.4973 73.1159 80.4973 73.1249 80.4973C73.4139 79.9734 73.7029 79.4494 73.8925 78.8893C74.1906 78.004 74.1454 77.0735 74.3351 76.1611C74.5338 75.2035 74.9943 74.3092 75.3285 73.3967C75.6536 72.5024 75.9697 71.6171 76.349 70.7408C77.6134 67.868 80.1421 65.8445 81.7857 63.2156C81.8941 62.7188 81.9935 62.2219 82.1018 61.725C82.1018 61.6618 82.1109 61.6076 82.1018 61.5444C81.9935 60.1531 80.8194 59.2588 79.4918 59.1414V59.1594ZM81.0723 62.2851C80.982 62.6916 80.8013 63.044 80.5665 63.3692C80.5575 63.5408 80.4943 63.7125 80.3498 63.8751C79.4738 64.8417 78.5345 65.727 77.6766 66.7117C76.8096 67.7054 76.2497 68.8076 75.6085 69.9458C74.895 71.2105 74.3712 72.403 73.9648 73.8033C73.7571 74.4989 73.5674 75.1945 73.3416 75.881C73.2513 76.1611 73.152 76.4411 73.0707 76.7212C73.0527 76.8928 73.0436 77.0735 73.0436 77.2451C73.0436 77.4349 72.9804 77.5794 72.8991 77.7059C72.8991 77.742 72.8991 77.7691 72.8991 77.7962C72.8991 77.8865 72.8811 77.9769 72.854 78.0492C72.854 78.0492 72.854 78.0582 72.854 78.0672C72.854 78.0672 72.854 78.0763 72.854 78.0853C72.8088 78.4647 72.8359 78.8441 72.7456 79.2145C72.7275 79.2868 72.6914 79.35 72.6372 79.3952C72.6192 79.5217 72.5469 79.6301 72.4024 79.6662C72.3753 79.6662 72.3482 79.6843 72.3211 79.6843C72.2489 79.6843 72.1947 79.6662 72.1495 79.6391C72.1044 79.621 72.0683 79.603 72.0321 79.5668C71.8606 79.3952 71.7341 79.1784 71.6348 78.9616C71.6077 78.8983 71.5896 78.8261 71.5625 78.7628C70.2891 76.7573 71.111 73.5503 71.689 71.4635C72.5108 68.4733 73.7751 65.6096 75.5091 63.0349C76.2768 61.8876 77.2521 60.4964 78.6971 60.1983C80.0608 59.9183 81.4516 60.7765 81.1174 62.3032L81.0723 62.2851Z" fill="#1B100D"/>
<path d="M64.3105 18.9768C63.7596 18.7419 63.0913 18.7961 62.5043 18.7871C61.6102 18.7781 60.6981 18.76 59.813 18.8503C59.0544 18.9316 58.3139 19.1846 57.8984 19.8802C57.5011 20.5577 57.5281 21.434 57.9526 22.0935C58.3048 22.6355 58.8557 23.0511 59.4427 23.3221C60.1291 23.6383 60.9419 23.846 61.6825 23.5569C61.8089 23.5118 61.9173 23.4485 62.0256 23.3943C62.4411 23.584 62.9197 23.575 63.3713 23.3401C64.2202 22.8884 65.0691 22.2199 65.313 21.2443C65.5297 20.3409 65.2317 19.3653 64.3195 18.9858L64.3105 18.9768Z" fill="#210F0A"/>
</svg>
