<svg width="30" height="30" viewBox="0 0 30 30" fill="none" xmlns="http://www.w3.org/2000/svg">
<mask id="mask0_718_2865" style="mask-type:alpha" maskUnits="userSpaceOnUse" x="0" y="0" width="30" height="30">
<rect width="30" height="30" fill="#ECECEC"/>
</mask>
<g mask="url(#mask0_718_2865)">
<path d="M20.3021 23.7394C19.1944 23.7394 18.2491 23.3479 17.4661 22.5649C16.6832 21.782 16.2917 20.8366 16.2917 19.729C16.2917 18.6214 16.6832 17.6761 17.4661 16.8931C18.2491 16.1101 19.1944 15.7186 20.3021 15.7186C21.4097 15.7186 22.355 16.1101 23.138 16.8931C23.921 17.6761 24.3125 18.6214 24.3125 19.729C24.3125 20.8366 23.921 21.782 23.138 22.5649C22.355 23.3479 21.4097 23.7394 20.3021 23.7394ZM20.3021 21.4478C20.7795 21.4478 21.1853 21.2807 21.5195 20.9465C21.8537 20.6122 22.0208 20.2064 22.0208 19.729C22.0208 19.2516 21.8537 18.8458 21.5195 18.5116C21.1853 18.1774 20.7795 18.0103 20.3021 18.0103C19.8247 18.0103 19.4188 18.1774 19.0846 18.5116C18.7504 18.8458 18.5833 19.2516 18.5833 19.729C18.5833 20.2064 18.7504 20.6122 19.0846 20.9465C19.4188 21.2807 19.8247 21.4478 20.3021 21.4478ZM3.6875 20.8748V18.5832H14V20.8748H3.6875ZM7.69792 12.2811C6.59028 12.2811 5.64497 11.8896 4.86198 11.1066C4.07899 10.3236 3.6875 9.37831 3.6875 8.27067C3.6875 7.16303 4.07899 6.21772 4.86198 5.43473C5.64497 4.65175 6.59028 4.26025 7.69792 4.26025C8.80556 4.26025 9.75087 4.65175 10.5339 5.43473C11.3168 6.21772 11.7083 7.16303 11.7083 8.27067C11.7083 9.37831 11.3168 10.3236 10.5339 11.1066C9.75087 11.8896 8.80556 12.2811 7.69792 12.2811ZM7.69792 9.98942C8.17535 9.98942 8.58116 9.82232 8.91536 9.48812C9.24957 9.15392 9.41667 8.7481 9.41667 8.27067C9.41667 7.79324 9.24957 7.38742 8.91536 7.05322C8.58116 6.71902 8.17535 6.55192 7.69792 6.55192C7.22049 6.55192 6.81467 6.71902 6.48047 7.05322C6.14627 7.38742 5.97917 7.79324 5.97917 8.27067C5.97917 8.7481 6.14627 9.15392 6.48047 9.48812C6.81467 9.82232 7.22049 9.98942 7.69792 9.98942ZM14 9.4165V7.12484H24.3125V9.4165H14Z" fill="#959595"/>
</g>
</svg>
