<svg width="76" height="76" viewBox="0 0 76 76" fill="none" xmlns="http://www.w3.org/2000/svg">
<!--<circle cx="38" cy="38" r="38" fill="white"/>-->
<path d="M22.9081 56.6943H23.4081H35.4981H35.9981H40.0019H40.5019H52.5919H53.0919V56.1943V35.4805V35.2262L52.8863 35.0764L38.2944 24.4447L38 24.2302L37.7056 24.4447L23.1137 35.0764L22.9081 35.2262V35.4805V56.1943V56.6943ZM40.0019 55.6943H35.9981V46.9028H40.0019V55.6943ZM20.1766 37.2085L15.8543 40.3721L14.7138 38.9252L20.7667 34.5044L20.9718 34.3546V34.1006V28.4653H22.9081V31.9334V32.9155L23.7023 32.3377L37.9994 21.9348L61.2831 38.9458L60.1482 40.3634L55.8228 37.208L55.0281 36.6283V37.612V58.5H20.9719V37.612V36.6264L20.1766 37.2085ZM20.9936 24.7454C21.0983 23.5632 21.5824 22.5507 22.4534 21.6885C23.4348 20.7171 24.702 20.2199 26.2996 20.2199C27.3222 20.2199 28.1812 19.9206 28.8014 19.2616C29.2766 18.7566 29.5626 18.1647 29.6565 17.5H31.6053C31.5008 18.6697 31.0216 19.6798 30.1589 20.5485C29.19 21.524 27.9197 22.0255 26.2996 22.0255C25.298 22.0255 24.4507 22.32 23.8223 22.9598C23.3291 23.4618 23.0361 24.0628 22.9417 24.7454H20.9936Z" fill="#E77924" stroke="#E77924"/>
</svg>
