<svg width="76" height="76" viewBox="0 0 76 76" fill="none" xmlns="http://www.w3.org/2000/svg">
<!--<circle cx="38" cy="38" r="38" fill="white"/>-->
<path d="M25.6405 45.9515C28.5804 45.9515 30.9637 48.3949 30.9637 51.4089C30.9637 54.423 28.5804 56.8664 25.6405 56.8664C22.7005 56.8664 20.3172 54.423 20.3172 51.4089C20.321 48.3964 22.702 45.9553 25.6401 45.9515H25.6405ZM25.6405 54.6019C27.3605 54.6019 28.7549 53.1724 28.7549 51.4089C28.7549 49.6455 27.3605 48.216 25.6405 48.216C23.9204 48.216 22.526 49.6455 22.526 51.4089C22.5286 53.1713 23.9214 54.5993 25.6402 54.6019H25.6405ZM50.9534 45.9515C53.8934 45.9515 56.2766 48.3949 56.2766 51.4089C56.2766 54.423 53.8934 56.8664 50.9534 56.8664C48.0135 56.8664 45.6302 54.423 45.6302 51.4089C45.6339 48.3964 48.015 45.9553 50.953 45.9515H50.9534ZM50.9534 54.6019C52.6734 54.6019 54.0678 53.1724 54.0678 51.4089C54.0678 49.6455 52.6735 48.216 50.9534 48.216C49.2334 48.216 47.839 49.6455 47.839 51.4089C47.8415 53.1713 49.2344 54.5993 50.9531 54.6019H50.9534ZM62.5939 52.5412H55.1722V50.2767H60.385V41.5198L56.4357 39.2552L51.9474 30.0545V22.2645H16.2088V50.2767H21.4216V52.5412H14V20H54.1562V29.511L58.1055 37.6112L62.5938 40.1928L62.5939 52.5412ZM46.7346 52.5412H29.8593V50.2767H46.7346V52.5412ZM57.2706 39.5655H43.5098V28.6504H53.0518V30.915H45.7186V37.3009H57.2707L57.2706 39.5655Z" fill="#E77924" stroke="#E77924" stroke-width="0.5"/>
</svg>
