<svg width="76" height="76" viewBox="0 0 76 76" fill="none" xmlns="http://www.w3.org/2000/svg">
<!--<circle cx="38" cy="38" r="38" fill="white"/>-->
<path d="M37.75 34.754C45.6927 34.7634 52.129 41.1997 52.1384 49.1415C52.1329 53.5723 48.5425 57.1636 44.1122 57.1693H31.3884C26.9576 57.1636 23.3672 53.5733 23.3615 49.143C23.3709 41.2003 29.8082 34.7634 37.75 34.754ZM44.1116 53.8386C46.7038 53.8348 48.804 51.7345 48.8079 49.1428C48.8079 43.0358 43.8571 38.0847 37.75 38.0847C31.643 38.0847 26.6923 43.0354 26.6923 49.1424C26.696 51.7346 28.7963 53.8349 31.3881 53.8387L44.1116 53.8386ZM31.3885 19C34.0962 19 36.2179 21.8244 36.2179 25.4282C36.2179 29.032 34.0963 31.8564 31.3885 31.8564C28.6806 31.8564 26.5591 29.032 26.5591 25.4283C26.5591 21.8245 28.6806 19 31.3885 19ZM31.3885 28.5257C31.9847 28.5257 32.8872 27.29 32.8872 25.4282C32.8872 23.5663 31.9846 22.3306 31.3885 22.3306C30.7923 22.3306 29.8897 23.5664 29.8897 25.4282C29.8897 27.29 30.7923 28.5257 31.3885 28.5257ZM44.1116 19C46.8193 19 48.941 21.8244 48.941 25.4282C48.941 29.032 46.8195 31.8564 44.1116 31.8564C41.4037 31.8564 39.2822 29.032 39.2822 25.4283C39.2822 21.8245 41.4037 19 44.1116 19ZM44.1116 28.5257C44.7078 28.5257 45.6104 27.29 45.6104 25.4282C45.6104 23.5663 44.7077 22.3306 44.1116 22.3306C43.5155 22.3306 42.6128 23.5664 42.6128 25.4282C42.6128 27.29 43.5155 28.5257 44.1116 28.5257ZM55.236 31.7231C57.0385 31.7231 58.5 33.1844 58.5 34.9871C58.5 36.7899 57.0387 38.2512 55.2359 38.2512C53.4332 38.2512 51.9718 36.7899 51.9718 34.9871C51.9736 33.1852 53.4343 31.725 55.236 31.7231ZM20.2639 31.7231C22.0667 31.7231 23.5281 33.1844 23.5281 34.9871C23.5281 36.7899 22.0667 38.2512 20.264 38.2512C18.4615 38.2512 17 36.7899 17 34.9871C17.0019 33.1852 18.4622 31.725 20.2639 31.7231Z" fill="#E77924"/>
</svg>
