<svg width="76" height="76" viewBox="0 0 76 76" fill="none" xmlns="http://www.w3.org/2000/svg">
<!--<circle cx="38" cy="38" r="38" fill="white"/>-->
<path d="M33.4486 52.9482C33.9253 52.2955 34.5085 51.7291 35.202 51.2457C36.2526 50.5135 37.4669 50.1385 38.8846 50.1385C40.7866 50.1385 42.3789 50.798 43.7231 52.1422C45.0565 53.4756 45.7161 55.0529 45.7268 56.9344C45.6511 57.7997 45.6006 58.2409 45.5781 58.3535L45.1654 60.4171L47.0953 59.578C48.0197 59.1761 48.8649 58.7191 49.6269 58.2042C50.3775 57.6971 51.0477 57.1521 51.6326 56.5672C52.2415 55.9583 52.7266 55.2881 53.0705 54.5544C53.4199 53.8091 53.6 53.0261 53.6 52.2154V39.1106C53.6 37.637 53.044 36.3067 52.0191 35.1481C51.0429 34.0445 49.775 33.0981 48.2469 32.2939C46.7226 31.4916 45.0573 30.8749 43.2561 30.4395C41.4503 30.0029 39.6143 29.7846 37.75 29.7846C35.8857 29.7846 34.0497 30.0029 32.2439 30.4395C30.4427 30.8749 28.7774 31.4916 27.2531 32.2939L27.253 32.2938L27.2423 32.2996C25.7543 33.104 24.5046 34.0467 23.5171 35.1393C22.4712 36.2965 21.9 37.6297 21.9 39.1106V52.2154C21.9 53.8822 22.6038 55.3539 23.8742 56.6023C25.0863 57.7936 26.6251 58.7795 28.4599 59.5774C29.7424 60.1384 31.1613 60.5933 32.7119 60.9465C34.2889 61.3059 35.9121 61.4846 37.5798 61.4846C38.0125 61.4846 38.4365 61.4748 38.8518 61.455C39.2655 61.4353 39.6879 61.4058 40.1188 61.3666L41.1192 61.2757V60.2712V54.3712V53.2712H40.0192C39.8429 53.2712 39.5314 53.2964 39.1491 53.3328C38.801 53.366 38.3197 53.3846 37.6933 53.3846C36.9892 53.3846 36.1528 53.3316 35.179 53.2214C34.6394 53.1603 34.0627 53.0695 33.4486 52.9482ZM46.9852 45.7929C46.301 46.477 45.5117 46.8038 44.5577 46.8038C43.6037 46.8038 42.8144 46.477 42.1302 45.7929C41.4461 45.1087 41.1192 44.3194 41.1192 43.3654C41.1192 42.4114 41.4461 41.6221 42.1302 40.9379C42.8144 40.2538 43.6037 39.9269 44.5577 39.9269C45.5117 39.9269 46.301 40.2538 46.9852 40.9379C47.6693 41.6221 47.9962 42.4114 47.9962 43.3654C47.9962 44.3194 47.6693 45.1087 46.9852 45.7929ZM37.75 29.7154C39.9244 29.7154 41.8108 28.9532 43.3443 27.4416C44.8865 25.9215 45.6577 24.0186 45.6577 21.8077C45.6577 19.6283 44.8823 17.7401 43.3499 16.2078C41.8176 14.6754 39.9294 13.9 37.75 13.9C35.5391 13.9 33.6362 14.6712 32.1161 16.2134C30.6045 17.7469 29.8423 19.6333 29.8423 21.8077C29.8423 24.0136 30.6004 25.9147 32.1217 27.436C33.643 28.9573 35.5441 29.7154 37.75 29.7154Z" stroke="#E77924" stroke-width="2.2"/>
</svg>
