<svg width="76" height="76" viewBox="0 0 76 76" fill="none" xmlns="http://www.w3.org/2000/svg">
<!--<circle cx="38" cy="38" r="38" fill="white"/>-->
<mask id="path-2-outside-1_454_1122" maskUnits="userSpaceOnUse" x="14" y="11" width="48" height="54" fill="black">
<rect fill="white" x="14" y="11" width="48" height="54"/>
<path d="M31.4263 23.2493C30.5679 23.2493 29.7882 23.049 29.0872 22.6484C28.3861 22.2335 27.8282 21.6755 27.4133 20.9745C26.9984 20.2735 26.7909 19.4938 26.7909 18.6354C26.7909 17.777 26.9984 16.9973 27.4133 16.2962C27.8282 15.5952 28.3861 15.0372 29.0872 14.6223C29.7882 14.2074 30.5679 14 31.4263 14C32.2847 14 33.0644 14.2074 33.7655 14.6223C34.4665 15.0372 35.0244 15.5952 35.4393 16.2962C35.8542 16.9973 36.0617 17.777 36.0617 18.6354C36.0617 19.4938 35.8542 20.2735 35.4393 20.9745C35.0244 21.6755 34.4665 22.2335 33.7655 22.6484C33.0644 23.049 32.2847 23.2493 31.4263 23.2493ZM24.0226 61.8559C23.3359 61.8559 22.8065 61.5912 22.4345 61.0619C22.0769 60.5326 21.9982 59.9317 22.1985 59.2593C22.2271 59.1591 22.3201 58.7585 22.4775 58.0575C22.6491 57.3565 22.8637 56.4694 23.1213 55.3964C23.3788 54.3234 23.6506 53.1646 23.9367 51.9199C24.2372 50.6752 24.5162 49.4592 24.7737 48.2717C25.0455 47.0699 25.2816 46.0041 25.4819 45.0742C25.6822 44.1299 25.8181 43.436 25.8896 42.9925C25.9898 42.406 26.0684 41.6978 26.1257 40.868C26.1829 40.0382 26.2258 39.1726 26.2544 38.2713C26.2974 37.37 26.326 36.5116 26.3403 35.6961C26.3546 34.8806 26.3617 34.1939 26.3617 33.636C26.3617 33.4643 26.283 33.357 26.1257 33.314C25.9826 33.2568 25.861 33.2997 25.7609 33.4428C25.3603 34.0151 24.8953 34.6732 24.3659 35.4171C23.8366 36.1468 23.3144 36.8764 22.7994 37.6061C22.2843 38.3357 21.8265 38.9723 21.4259 39.516C21.0396 40.0597 20.7678 40.4173 20.6104 40.589C20.2957 40.9467 19.9023 41.1613 19.4301 41.2328C18.9723 41.3043 18.536 41.2185 18.1211 40.9753C17.5631 40.6892 17.2126 40.2957 17.0695 39.795C16.9408 39.2799 16.9908 38.815 17.2198 38.4001C17.3056 38.2427 17.3986 38.0853 17.4987 37.928C17.6132 37.7563 17.7276 37.5918 17.8421 37.4344L23.4002 29.2581C23.9868 28.3854 24.6378 27.6772 25.3531 27.1336C26.0828 26.5756 26.934 26.1679 27.9069 25.9103C28.894 25.6385 30.0672 25.5026 31.4263 25.5026C32.7854 25.5026 33.9514 25.6385 34.9243 25.9103C35.8971 26.1679 36.7412 26.5756 37.4566 27.1336C38.1862 27.6772 38.8515 28.3854 39.4524 29.2581L42.7787 34.1081C41.8773 34.1224 41.1406 34.4228 40.5683 35.0094C39.996 35.5817 39.5811 35.6747 39.4524 36.3185L37.0918 33.4428C36.9773 33.2997 36.8485 33.2497 36.7055 33.2926C36.5624 33.3355 36.4909 33.4428 36.4909 33.6145C36.4909 34.1725 36.498 34.8663 36.5123 35.6961C36.5266 36.5116 36.5481 37.37 36.5767 38.2713C36.6196 39.1726 36.6697 40.0382 36.7269 40.868C36.7842 41.6978 36.8557 42.406 36.9415 42.9925C37.0131 43.436 37.149 44.1299 37.3493 45.0742C37.5496 46.0041 37.7856 47.0699 38.0575 48.2717C38.3293 49.4592 38.6083 50.6752 38.8944 51.9199C39.1948 53.1646 39.4667 54.3234 39.7099 55.3964C39.9674 56.4694 40.182 57.3565 40.3537 58.0575C40.5254 58.7585 40.6255 59.1591 40.6541 59.2593C40.8544 59.9317 40.7686 60.5326 40.3966 61.0619C40.0389 61.5912 39.5167 61.8559 38.83 61.8559C37.7999 61.8559 37.1132 61.2264 36.7699 59.9674C36.6268 59.4381 36.4336 58.6941 36.1904 57.7356C35.9472 56.7913 35.6754 55.747 35.375 54.6024C35.0888 53.4579 34.8027 52.3277 34.5166 51.2117C34.2304 50.0815 33.9657 49.0657 33.7225 48.1644C33.4793 47.2631 33.2862 46.5978 33.1431 46.1686C32.8999 45.3961 32.6638 44.8453 32.4349 44.5162C32.206 44.1871 31.8698 44.0226 31.4263 44.0226C30.9828 44.0226 30.6466 44.1871 30.4177 44.5162C30.1888 44.8453 29.9527 45.3961 29.7095 46.1686C29.5664 46.5978 29.3733 47.2631 29.1301 48.1644C28.8869 49.0657 28.615 50.0815 28.3146 51.2117C28.0285 52.3277 27.7423 53.4579 27.4562 54.6024C27.1701 55.747 26.9054 56.7913 26.6622 57.7356C26.419 58.6941 26.2258 59.4381 26.0828 59.9674C25.7394 61.2264 25.0527 61.8559 24.0226 61.8559ZM49.4742 38.0782C48.53 38.0782 47.7216 37.742 47.0492 37.0696C46.3768 36.3971 46.0406 35.5888 46.0406 34.6446C46.0406 33.7003 46.3768 32.892 47.0492 32.2196C47.7216 31.5472 48.53 31.211 49.4742 31.211C50.4185 31.211 51.2268 31.5472 51.8992 32.2196C52.5859 32.892 52.9293 33.7003 52.9293 34.6446C52.9293 35.5888 52.5859 36.3971 51.8992 37.0696C51.2268 37.742 50.4185 38.0782 49.4742 38.0782ZM44.7101 61.8559C44.0949 61.8559 43.6299 61.6199 43.3152 61.1477C43.0004 60.6756 42.9146 60.1606 43.0577 59.6026C43.0863 59.5311 43.1721 59.1949 43.3152 58.594C43.4582 58.0074 43.6299 57.2778 43.8302 56.4051C44.0305 55.5467 44.238 54.6525 44.4526 53.7226C44.6672 52.8069 44.8531 51.9771 45.0105 51.2332C45.1822 50.4892 45.2967 49.9456 45.3539 49.6022C45.4254 49.1587 45.4755 48.6079 45.5041 47.9498C45.547 47.2774 45.5756 46.6264 45.5899 45.9969C45.6042 45.3674 45.6114 44.8739 45.6114 44.5162C45.6114 44.2015 45.5613 43.9368 45.4612 43.7222C45.3753 43.4933 45.2466 43.2715 45.0749 43.0569C44.5599 42.4131 44.0234 41.7693 43.4654 41.1255C42.9217 40.4817 42.4496 39.9237 42.049 39.4516C41.6484 38.9795 41.4052 38.6791 41.3194 38.5503C41.0762 38.1783 40.9832 37.792 41.0404 37.3915C41.1119 36.9766 41.2979 36.6189 41.5984 36.3185C41.9131 35.9465 42.3137 35.7605 42.8001 35.7605C43.2866 35.7462 43.6728 35.8893 43.959 36.1897L46.2337 38.6147C46.7202 39.1297 47.1637 39.5089 47.5643 39.7521C47.9649 39.981 48.53 40.0954 49.2596 40.0954H50.0107C50.9979 40.0954 51.9421 40.3029 52.8434 40.7178C53.7591 41.1184 54.5245 41.7908 55.1397 42.735L58.702 48.2288C58.9739 48.6294 59.0597 49.0157 58.9596 49.3876C58.8594 49.7453 58.6663 50.0243 58.3801 50.2246C58.0797 50.4535 57.722 50.5465 57.3071 50.5036C56.8922 50.4606 56.5417 50.2317 56.2556 49.8168L53.5087 45.8467C53.4086 45.7037 53.2798 45.6536 53.1224 45.6965C52.9793 45.7394 52.9078 45.8467 52.9078 46.0184C52.9078 46.3904 52.9293 46.9555 52.9722 47.7137C53.0151 48.4577 53.0795 49.0872 53.1653 49.6022C53.2226 49.9456 53.3299 50.4892 53.4872 51.2332C53.6589 51.9771 53.8449 52.8069 54.0452 53.7226C54.2598 54.6525 54.4672 55.5467 54.6675 56.4051C54.8821 57.2778 55.061 58.0074 55.204 58.594C55.3471 59.1949 55.4258 59.5311 55.4401 59.6026C55.5832 60.1606 55.4973 60.6756 55.1826 61.1477C54.8678 61.6199 54.41 61.8559 53.8091 61.8559C53.3942 61.8559 53.0294 61.7272 52.7147 61.4696C52.3999 61.2264 52.1782 60.8401 52.0494 60.3108C51.935 59.9102 51.7776 59.3093 51.5773 58.5082C51.377 57.7213 51.1624 56.87 50.9335 55.9544C50.7046 55.0531 50.49 54.2233 50.2897 53.465C50.1037 52.7068 49.9535 52.156 49.839 51.8126C49.696 51.3691 49.5887 51.1044 49.5171 51.0186C49.4599 50.9184 49.3741 50.8684 49.2596 50.8684C49.1452 50.8684 49.0522 50.9184 48.9806 51.0186C48.9234 51.1044 48.8161 51.3691 48.6587 51.8126C48.5586 52.156 48.4084 52.7068 48.2081 53.465C48.0078 54.2233 47.7932 55.0531 47.5643 55.9544C47.3497 56.87 47.1422 57.7213 46.9419 58.5082C46.7416 59.3093 46.5843 59.9102 46.4698 60.3108C46.341 60.8401 46.1121 61.2264 45.7831 61.4696C45.4683 61.7272 45.1107 61.8559 44.7101 61.8559Z"/>
</mask>
<path d="M31.4263 23.2493C30.5679 23.2493 29.7882 23.049 29.0872 22.6484C28.3861 22.2335 27.8282 21.6755 27.4133 20.9745C26.9984 20.2735 26.7909 19.4938 26.7909 18.6354C26.7909 17.777 26.9984 16.9973 27.4133 16.2962C27.8282 15.5952 28.3861 15.0372 29.0872 14.6223C29.7882 14.2074 30.5679 14 31.4263 14C32.2847 14 33.0644 14.2074 33.7655 14.6223C34.4665 15.0372 35.0244 15.5952 35.4393 16.2962C35.8542 16.9973 36.0617 17.777 36.0617 18.6354C36.0617 19.4938 35.8542 20.2735 35.4393 20.9745C35.0244 21.6755 34.4665 22.2335 33.7655 22.6484C33.0644 23.049 32.2847 23.2493 31.4263 23.2493ZM24.0226 61.8559C23.3359 61.8559 22.8065 61.5912 22.4345 61.0619C22.0769 60.5326 21.9982 59.9317 22.1985 59.2593C22.2271 59.1591 22.3201 58.7585 22.4775 58.0575C22.6491 57.3565 22.8637 56.4694 23.1213 55.3964C23.3788 54.3234 23.6506 53.1646 23.9367 51.9199C24.2372 50.6752 24.5162 49.4592 24.7737 48.2717C25.0455 47.0699 25.2816 46.0041 25.4819 45.0742C25.6822 44.1299 25.8181 43.436 25.8896 42.9925C25.9898 42.406 26.0684 41.6978 26.1257 40.868C26.1829 40.0382 26.2258 39.1726 26.2544 38.2713C26.2974 37.37 26.326 36.5116 26.3403 35.6961C26.3546 34.8806 26.3617 34.1939 26.3617 33.636C26.3617 33.4643 26.283 33.357 26.1257 33.314C25.9826 33.2568 25.861 33.2997 25.7609 33.4428C25.3603 34.0151 24.8953 34.6732 24.3659 35.4171C23.8366 36.1468 23.3144 36.8764 22.7994 37.6061C22.2843 38.3357 21.8265 38.9723 21.4259 39.516C21.0396 40.0597 20.7678 40.4173 20.6104 40.589C20.2957 40.9467 19.9023 41.1613 19.4301 41.2328C18.9723 41.3043 18.536 41.2185 18.1211 40.9753C17.5631 40.6892 17.2126 40.2957 17.0695 39.795C16.9408 39.2799 16.9908 38.815 17.2198 38.4001C17.3056 38.2427 17.3986 38.0853 17.4987 37.928C17.6132 37.7563 17.7276 37.5918 17.8421 37.4344L23.4002 29.2581C23.9868 28.3854 24.6378 27.6772 25.3531 27.1336C26.0828 26.5756 26.934 26.1679 27.9069 25.9103C28.894 25.6385 30.0672 25.5026 31.4263 25.5026C32.7854 25.5026 33.9514 25.6385 34.9243 25.9103C35.8971 26.1679 36.7412 26.5756 37.4566 27.1336C38.1862 27.6772 38.8515 28.3854 39.4524 29.2581L42.7787 34.1081C41.8773 34.1224 41.1406 34.4228 40.5683 35.0094C39.996 35.5817 39.5811 35.6747 39.4524 36.3185L37.0918 33.4428C36.9773 33.2997 36.8485 33.2497 36.7055 33.2926C36.5624 33.3355 36.4909 33.4428 36.4909 33.6145C36.4909 34.1725 36.498 34.8663 36.5123 35.6961C36.5266 36.5116 36.5481 37.37 36.5767 38.2713C36.6196 39.1726 36.6697 40.0382 36.7269 40.868C36.7842 41.6978 36.8557 42.406 36.9415 42.9925C37.0131 43.436 37.149 44.1299 37.3493 45.0742C37.5496 46.0041 37.7856 47.0699 38.0575 48.2717C38.3293 49.4592 38.6083 50.6752 38.8944 51.9199C39.1948 53.1646 39.4667 54.3234 39.7099 55.3964C39.9674 56.4694 40.182 57.3565 40.3537 58.0575C40.5254 58.7585 40.6255 59.1591 40.6541 59.2593C40.8544 59.9317 40.7686 60.5326 40.3966 61.0619C40.0389 61.5912 39.5167 61.8559 38.83 61.8559C37.7999 61.8559 37.1132 61.2264 36.7699 59.9674C36.6268 59.4381 36.4336 58.6941 36.1904 57.7356C35.9472 56.7913 35.6754 55.747 35.375 54.6024C35.0888 53.4579 34.8027 52.3277 34.5166 51.2117C34.2304 50.0815 33.9657 49.0657 33.7225 48.1644C33.4793 47.2631 33.2862 46.5978 33.1431 46.1686C32.8999 45.3961 32.6638 44.8453 32.4349 44.5162C32.206 44.1871 31.8698 44.0226 31.4263 44.0226C30.9828 44.0226 30.6466 44.1871 30.4177 44.5162C30.1888 44.8453 29.9527 45.3961 29.7095 46.1686C29.5664 46.5978 29.3733 47.2631 29.1301 48.1644C28.8869 49.0657 28.615 50.0815 28.3146 51.2117C28.0285 52.3277 27.7423 53.4579 27.4562 54.6024C27.1701 55.747 26.9054 56.7913 26.6622 57.7356C26.419 58.6941 26.2258 59.4381 26.0828 59.9674C25.7394 61.2264 25.0527 61.8559 24.0226 61.8559ZM49.4742 38.0782C48.53 38.0782 47.7216 37.742 47.0492 37.0696C46.3768 36.3971 46.0406 35.5888 46.0406 34.6446C46.0406 33.7003 46.3768 32.892 47.0492 32.2196C47.7216 31.5472 48.53 31.211 49.4742 31.211C50.4185 31.211 51.2268 31.5472 51.8992 32.2196C52.5859 32.892 52.9293 33.7003 52.9293 34.6446C52.9293 35.5888 52.5859 36.3971 51.8992 37.0696C51.2268 37.742 50.4185 38.0782 49.4742 38.0782ZM44.7101 61.8559C44.0949 61.8559 43.6299 61.6199 43.3152 61.1477C43.0004 60.6756 42.9146 60.1606 43.0577 59.6026C43.0863 59.5311 43.1721 59.1949 43.3152 58.594C43.4582 58.0074 43.6299 57.2778 43.8302 56.4051C44.0305 55.5467 44.238 54.6525 44.4526 53.7226C44.6672 52.8069 44.8531 51.9771 45.0105 51.2332C45.1822 50.4892 45.2967 49.9456 45.3539 49.6022C45.4254 49.1587 45.4755 48.6079 45.5041 47.9498C45.547 47.2774 45.5756 46.6264 45.5899 45.9969C45.6042 45.3674 45.6114 44.8739 45.6114 44.5162C45.6114 44.2015 45.5613 43.9368 45.4612 43.7222C45.3753 43.4933 45.2466 43.2715 45.0749 43.0569C44.5599 42.4131 44.0234 41.7693 43.4654 41.1255C42.9217 40.4817 42.4496 39.9237 42.049 39.4516C41.6484 38.9795 41.4052 38.6791 41.3194 38.5503C41.0762 38.1783 40.9832 37.792 41.0404 37.3915C41.1119 36.9766 41.2979 36.6189 41.5984 36.3185C41.9131 35.9465 42.3137 35.7605 42.8001 35.7605C43.2866 35.7462 43.6728 35.8893 43.959 36.1897L46.2337 38.6147C46.7202 39.1297 47.1637 39.5089 47.5643 39.7521C47.9649 39.981 48.53 40.0954 49.2596 40.0954H50.0107C50.9979 40.0954 51.9421 40.3029 52.8434 40.7178C53.7591 41.1184 54.5245 41.7908 55.1397 42.735L58.702 48.2288C58.9739 48.6294 59.0597 49.0157 58.9596 49.3876C58.8594 49.7453 58.6663 50.0243 58.3801 50.2246C58.0797 50.4535 57.722 50.5465 57.3071 50.5036C56.8922 50.4606 56.5417 50.2317 56.2556 49.8168L53.5087 45.8467C53.4086 45.7037 53.2798 45.6536 53.1224 45.6965C52.9793 45.7394 52.9078 45.8467 52.9078 46.0184C52.9078 46.3904 52.9293 46.9555 52.9722 47.7137C53.0151 48.4577 53.0795 49.0872 53.1653 49.6022C53.2226 49.9456 53.3299 50.4892 53.4872 51.2332C53.6589 51.9771 53.8449 52.8069 54.0452 53.7226C54.2598 54.6525 54.4672 55.5467 54.6675 56.4051C54.8821 57.2778 55.061 58.0074 55.204 58.594C55.3471 59.1949 55.4258 59.5311 55.4401 59.6026C55.5832 60.1606 55.4973 60.6756 55.1826 61.1477C54.8678 61.6199 54.41 61.8559 53.8091 61.8559C53.3942 61.8559 53.0294 61.7272 52.7147 61.4696C52.3999 61.2264 52.1782 60.8401 52.0494 60.3108C51.935 59.9102 51.7776 59.3093 51.5773 58.5082C51.377 57.7213 51.1624 56.87 50.9335 55.9544C50.7046 55.0531 50.49 54.2233 50.2897 53.465C50.1037 52.7068 49.9535 52.156 49.839 51.8126C49.696 51.3691 49.5887 51.1044 49.5171 51.0186C49.4599 50.9184 49.3741 50.8684 49.2596 50.8684C49.1452 50.8684 49.0522 50.9184 48.9806 51.0186C48.9234 51.1044 48.8161 51.3691 48.6587 51.8126C48.5586 52.156 48.4084 52.7068 48.2081 53.465C48.0078 54.2233 47.7932 55.0531 47.5643 55.9544C47.3497 56.87 47.1422 57.7213 46.9419 58.5082C46.7416 59.3093 46.5843 59.9102 46.4698 60.3108C46.341 60.8401 46.1121 61.2264 45.7831 61.4696C45.4683 61.7272 45.1107 61.8559 44.7101 61.8559Z" stroke="#E77924" stroke-width="4.4" mask="url(#path-2-outside-1_454_1122)"/>
</svg>
