<svg width="76" height="76" viewBox="0 0 76 76" fill="none" xmlns="http://www.w3.org/2000/svg">
<!--<circle cx="38" cy="38" r="38" fill="white"/>-->
<path d="M46.4017 40.9566L46.0481 41.3102L46.4017 40.9566C45.5088 40.0637 45.0662 38.9907 45.0662 37.7081C45.0662 36.4258 45.5094 35.3529 46.4038 34.46L46.0505 34.1061L46.4038 34.46C47.2991 33.5661 48.3692 33.1242 49.6427 33.1242C50.9305 33.1242 52.0027 33.5676 52.89 34.4609C53.7791 35.3559 54.2191 36.4263 54.2191 37.7006C54.2191 38.9895 53.7781 40.0651 52.8903 40.9575C52.0027 41.8496 50.9327 42.2921 49.6502 42.2921C48.3676 42.2921 47.2946 41.8496 46.4017 40.9566ZM41.1529 49.2212L41.153 49.2213L41.1644 49.216C42.5045 48.5892 43.8773 48.1238 45.2832 47.8188C46.6903 47.5136 48.1457 47.3605 49.6502 47.3605C51.1245 47.3605 52.5663 47.5096 53.9762 47.8074C55.3812 48.1042 56.7674 48.5731 58.1352 49.2156L58.1433 49.2194L58.1515 49.2229C58.7771 49.49 59.2529 49.9046 59.593 50.4744C59.9368 51.0505 60.1153 51.7213 60.1153 52.5023V54.551H39.1701V52.5023C39.1701 51.7211 39.3484 51.0542 39.6907 50.4853C40.0298 49.922 40.5116 49.5017 41.1529 49.2212ZM38.1565 34.6475L38.5101 35.0011L38.1565 34.6475C36.7514 36.0527 35.0059 36.7579 32.8845 36.7579C30.7632 36.7579 29.0177 36.0527 27.6125 34.6475L27.259 35.0011L27.6125 34.6475C26.2076 33.2426 25.5021 31.4948 25.5021 29.368C25.5021 27.2414 26.2075 25.4964 27.6119 24.0966C29.017 22.6963 30.7626 21.9932 32.8845 21.9932C35.0065 21.9932 36.7521 22.6963 38.1571 24.0966C39.5615 25.4964 40.2669 27.2414 40.2669 29.368C40.2669 31.4948 39.5615 33.2426 38.1565 34.6475ZM35.9128 42.2787C36.5709 42.3527 37.2475 42.4497 37.9424 42.5697C37.7478 42.7669 37.5531 42.9658 37.3584 43.1663L37.3584 43.1663C37.0036 43.5318 36.6488 43.8917 36.294 44.2462C35.799 44.175 35.2894 44.1259 34.7653 44.0985L34.7653 44.0985C34.1587 44.0669 33.5318 44.0511 32.8845 44.0511C30.6937 44.0511 28.5393 44.2822 26.4221 44.7447L26.5288 45.2331L26.4221 44.7447C24.2929 45.2097 22.1389 46.0036 19.9606 47.1216L19.9585 47.1227C19.3629 47.4319 18.8613 47.8724 18.4551 48.4354L18.4551 48.4354C18.0339 49.0192 17.8162 49.6678 17.8162 50.3695V52.1195V52.6195H18.3162H33.1743V54.551H15.8846V50.3695C15.8846 49.296 16.1635 48.3163 16.7221 47.4195C17.2738 46.534 18.0608 45.8631 19.1021 45.4071L19.1022 45.4072L19.1131 45.4021C21.4349 44.3179 23.7296 43.5003 25.9975 42.9474C28.2617 42.3954 30.5535 42.1196 32.8737 42.1196C33.9586 42.1196 34.9714 42.1729 35.9128 42.2787ZM36.7628 33.2538L36.4092 32.9002L36.7628 33.2538C37.8115 32.2051 38.3354 30.9012 38.3354 29.3755C38.3354 27.8499 37.8115 26.546 36.7628 25.4973L36.4092 25.8508L36.7628 25.4973C35.714 24.4486 34.4101 23.9247 32.8845 23.9247C31.3589 23.9247 30.055 24.4486 29.0063 25.4973L29.0063 25.4973C27.9576 26.546 27.4337 27.8499 27.4337 29.3755C27.4337 30.9012 27.9576 32.2051 29.0063 33.2538L29.0063 33.2538C30.055 34.3025 31.3589 34.8264 32.8845 34.8264C34.4101 34.8264 35.714 34.3025 36.7628 33.2538Z" fill="#E77924" stroke="#E77924"/>
</svg>
