<svg width="76" height="76" viewBox="0 0 76 76" fill="none" xmlns="http://www.w3.org/2000/svg">
<!--<circle cx="38" cy="38" r="38" fill="white"/>-->
<path d="M20.2596 30.1375H9V27.7764H20.2596V30.1375ZM20.2596 39.1806H11.2613V36.8194H20.2596V39.1806ZM20.2596 48.2236H13.4991V45.8625H20.2596V48.2236ZM62 56.3611H20.2595V54H59.6444V23.3611H20.2596V21H62V56.3611ZM40.5409 33.3734L20.2596 23.3611L21.4043 21.3354L40.5409 30.4421L60.8723 21.3354L61.4362 23.3611L40.5409 33.3734Z" fill="#E77924"/>
<path d="M20.2596 23.3611H59.6444V54H20.2595V56.3611H62V21H20.2596V23.3611ZM20.2596 23.3611L40.5409 33.3734L61.4362 23.3611L60.8723 21.3354L40.5409 30.4421L21.4043 21.3354L20.2596 23.3611ZM21.0934 56.0164L20.2144 55.1354M59.9883 56.0164L60.8723 55.1304M20.2596 30.1375H9V27.7764H20.2596V30.1375ZM20.2596 39.1806H11.2613V36.8194H20.2596V39.1806ZM20.2596 48.2236H13.4991V45.8625H20.2596V48.2236Z" stroke="#E77924" stroke-width="0.4"/>
<path d="M41.8296 47.4344H39.1837V35.5H41.8296V47.4344ZM42.2969 51.0663H38.5434V48.9906H42.2969V51.0663Z" fill="#E77924" stroke="#E77924" stroke-width="0.5"/>
</svg>
