<svg width="76" height="76" viewBox="0 0 76 76" fill="none" xmlns="http://www.w3.org/2000/svg">
<!--<circle cx="38" cy="38" r="38" fill="white"/>-->
<path d="M26.72 63.915L27.38 63.035L34.13 54.035L34.327 53.7723L34.3478 53.4446L34.6546 48.6035L36.65 51.4701V62.375V63.475H37.75H42.25H43.35V62.375V47.75V47.4011L43.1489 47.116L38.8904 41.0786C38.8482 39.9059 38.9315 38.6543 39.1455 37.3212C39.214 36.8945 39.2889 36.4902 39.3699 36.1077C39.9499 36.9784 40.5814 37.7427 41.2674 38.3944C42.3827 39.4539 43.8559 40.3866 45.65 41.2101V41.5625V42.6625H46.75H49H50.1V41.5625V38.757C50.1034 38.7528 50.1084 38.7472 50.1153 38.7403C50.1189 38.7367 50.1221 38.7337 50.125 38.7311C50.1279 38.7337 50.1311 38.7367 50.1347 38.7403C50.1416 38.7472 50.1466 38.7528 50.15 38.7569V62.375V63.475H51.25H53.5H54.6V62.375V38.75C54.6 37.5392 54.1327 36.4771 53.2653 35.6097C52.3882 34.7326 51.3039 34.275 50.0688 34.275C49.5604 34.275 49.0671 34.3438 48.6138 34.5138C48.3663 34.6066 48.1135 34.7349 47.8576 34.8894C47.0651 34.4458 46.3032 33.8509 45.5736 33.0932C44.6841 32.1695 43.6472 30.7339 42.4661 28.741C41.4394 26.9919 40.4987 25.6415 39.643 24.744C39.4141 24.5039 39.1735 24.2884 38.9218 24.0998C40.4338 24.0886 41.7561 23.5308 42.8309 22.4559C43.9168 21.37 44.475 20.0316 44.475 18.5C44.475 16.9684 43.9168 15.63 42.8309 14.5441C41.745 13.4582 40.4066 12.9 38.875 12.9C37.3434 12.9 36.005 13.4582 34.9191 14.5441C33.8332 15.63 33.275 16.9684 33.275 18.5C33.275 20.0316 33.8332 21.37 34.9191 22.4559C35.2094 22.7463 35.5179 22.999 35.8432 23.2133C35.214 23.268 34.5756 23.4359 33.9336 23.6962C33.1833 24.0004 32.3245 24.4266 31.3625 24.9652L31.3625 24.9652L31.3566 24.9686L21.4566 30.5936L20.9 30.9098V31.55V42.125V43.225H22H26.5H27.6V42.125V34.7879L28.1831 34.4672C28.0903 34.9426 28.0098 35.4299 27.9414 35.9288C27.7484 37.3381 27.65 38.6543 27.65 39.875V51.4903L22.0192 59.016L21.361 59.8958L22.24 60.555L25.84 63.255L26.72 63.915Z" stroke="#E77924" stroke-width="2.2"/>
</svg>
