<svg width="76" height="76" viewBox="0 0 76 76" fill="none" xmlns="http://www.w3.org/2000/svg">
<!--<circle cx="38" cy="38" r="38" fill="white"/>-->
<path d="M51.6882 55.9932L51.6883 55.9932C51.8094 56.038 51.9522 56.0639 52.1221 56.0639C52.292 56.0639 52.4358 56.038 52.5587 55.9929L52.5587 55.9928C52.6703 55.9519 52.7931 55.8778 52.9255 55.7548L52.9264 55.7539L56.8717 52.109L51.6882 55.9932ZM51.6882 55.9932C51.5777 55.9524 51.4552 55.8783 51.3223 55.7548L51.3222 55.7547M51.6882 55.9932L51.3222 55.7547M51.3222 55.7547L39.8587 45.1162M51.3222 55.7547L39.8587 45.1162M39.8587 45.1162C39.723 44.9903 39.6432 44.8775 39.5992 44.7812C39.5542 44.6827 39.5283 44.568 39.5283 44.4298C39.5283 44.2915 39.5542 44.176 39.5996 44.0763C39.6437 43.9793 39.7234 43.8664 39.8587 43.7408L43.8049 40.0764C43.939 39.9519 44.0647 39.8738 44.1805 39.8286M39.8587 45.1162L44.1805 39.8286M44.1805 39.8286C44.3004 39.7818 44.4404 39.755 44.6065 39.755C44.7684 39.755 44.9046 39.7815 45.0209 39.8276C45.1364 39.8734 45.2675 39.9533 45.413 40.081L56.8717 50.7213C57.005 50.845 57.0799 50.9548 57.1192 51.0472C57.1632 51.1505 57.1887 51.2715 57.1887 51.4168C57.1887 51.562 57.1632 51.682 57.1197 51.7836L44.1805 39.8286ZM20.9196 51.763L20.9235 51.7666L23.4799 54.1403L23.4838 54.1439L23.8203 54.4632L24.1642 54.1439L34.4808 44.5643L34.6406 44.4159V44.1979V41.8169V41.3169H34.1406H31.5764H31.38L31.2362 41.4505L20.9196 51.0302L20.5208 51.4005L20.9196 51.763ZM51.7837 54.1625L52.1239 54.4785L52.4641 54.1625L55.0283 51.7815L55.4229 51.4151L55.0283 51.0487L44.9441 41.6848L44.6038 41.3689L44.2636 41.6848L41.6994 44.0658L41.3049 44.4322L41.6994 44.7986L51.7837 54.1625ZM22.9904 55.7548L22.9894 55.7539L19.0761 52.1387C19.0761 52.1387 19.0761 52.1387 19.0761 52.1387C18.9466 52.0185 18.8685 51.9044 18.8241 51.7991L18.8241 51.799C18.7745 51.6811 18.7485 51.5539 18.7485 51.4128C18.7485 51.2715 18.7745 51.149 18.822 51.0394L18.822 51.0393C18.8661 50.9377 18.9438 50.8256 19.0728 50.7057L30.1448 40.4246H34.3355H34.5319L34.6757 40.291L36.4653 38.6293L36.8598 38.2629L36.4653 37.8965L27.4976 29.5693L27.3537 29.4357H27.1573H24.3849L19.0434 24.4757L23.1202 20.6901L28.5002 25.6858V28.2245V28.4425L28.66 28.5909L37.6277 36.918L37.968 37.2339L38.3082 36.918L44.8226 30.8689L45.2172 30.5025L44.8226 30.1361L41.57 27.1158L43.8116 25.0343L43.9489 24.9068L44.7446 24.1679L44.7891 24.1266L47.0859 21.9939L55.266 29.554L55.2686 29.5563C55.7323 29.9791 56.083 30.4615 56.3259 31.0054C56.5688 31.5491 56.6906 32.1247 56.6906 32.7371C56.6906 33.2291 56.6051 33.7113 56.4323 34.1864C56.3206 34.4933 56.1789 34.7831 56.0068 35.0564L52.0755 31.4059L51.7352 31.09L51.395 31.4059L48.7986 33.8169L46.6775 31.8474L46.3373 31.5315L45.9971 31.8474L35.8181 41.2992L35.6584 41.4476V41.6656V45.5284L24.6226 55.7576L24.6223 55.7579C24.4915 55.8793 24.3675 55.9559 24.2515 56.0006C24.1307 56.0471 23.9895 56.0738 23.8222 56.0738C23.6553 56.0738 23.5062 56.0472 23.371 55.9977C23.2471 55.9523 23.1201 55.8752 22.9904 55.7548ZM43.4713 24.1679H38.36L38.0021 23.8429L43.5648 18.6774L43.9489 19.0341V23.7602V24.1679H43.4713ZM18.3634 51.993L18.3634 51.9931L18.3634 51.993ZM57.1197 51.7836C57.0805 51.8749 57.0059 51.9843 56.8727 52.1081L57.1197 51.7836Z" fill="#E77924" stroke="#E77924"/>
</svg>
