<svg width="76" height="76" viewBox="0 0 76 76" fill="none" xmlns="http://www.w3.org/2000/svg">
<!--<circle cx="38" cy="38" r="38" fill="white"/>-->
<path d="M56.9298 41.2105C57.382 41.2105 57.7697 41.5852 57.7697 42.0702V45.906C57.7697 46.3689 57.4036 46.7657 56.9298 46.7657H44.5468C44.0945 46.7657 43.7069 46.391 43.7069 45.906V42.0702C43.7069 41.6073 44.073 41.2105 44.5468 41.2105H56.9298ZM56.9298 37.9038H44.5468C42.3071 37.9038 40.4766 39.7776 40.4766 42.0702V45.906C40.4766 48.1986 42.3071 50.0724 44.5468 50.0724H56.9298C59.1695 50.0724 61 48.1986 61 45.906V42.0702C61 39.7776 59.1695 37.9038 56.9298 37.9038Z" fill="#CC272B"/>
<path d="M45.947 18.3067C46.3993 18.3067 46.7869 18.6814 46.7869 19.1664V31.842C46.7869 32.305 46.4208 32.7018 45.947 32.7018H42.1998C41.7476 32.7018 41.3599 32.327 41.3599 31.842V19.1664C41.3599 18.7035 41.726 18.3067 42.1998 18.3067H45.947ZM45.947 15H42.1998C39.9601 15 38.1296 16.8738 38.1296 19.1664V31.842C38.1296 34.1347 39.9601 36.0085 42.1998 36.0085H45.947C48.1867 36.0085 50.0172 34.1347 50.0172 31.842V19.1664C50.0172 16.8738 48.2083 15 45.947 15Z" fill="#CC272B"/>
<path d="M34.4035 43.7681C34.8557 43.7681 35.2434 44.1429 35.2434 44.6278V57.3035C35.2434 57.7664 34.8773 58.1632 34.4035 58.1632H30.6563C30.204 58.1632 29.8164 57.7884 29.8164 57.3035V44.6278C29.8164 44.1649 30.1825 43.7681 30.6563 43.7681H34.4035ZM34.4035 40.4614H30.6563C28.4166 40.4614 26.5861 42.3352 26.5861 44.6278V57.3035C26.5861 59.5961 28.4166 61.4699 30.6563 61.4699H34.4035C36.6432 61.4699 38.4737 59.5961 38.4737 57.3035V44.6278C38.4737 42.3352 36.6432 40.4614 34.4035 40.4614Z" fill="#CC272B"/>
<path d="M31.4532 29.9024C31.9055 29.9024 32.2931 30.2771 32.2931 30.7621V34.6199C32.2931 35.0829 31.927 35.4797 31.4532 35.4797H19.0702C18.5965 35.4797 18.2303 35.0829 18.2303 34.6199V30.7621C18.2303 30.2992 18.5965 29.9024 19.0702 29.9024H31.4532V29.9024ZM31.4532 26.5957H19.0702C16.8305 26.5957 15 28.4695 15 30.7621V34.6199C15 36.9125 16.8305 38.7863 19.0702 38.7863H31.4532C33.6929 38.7863 35.5235 36.9125 35.5235 34.6199V30.7621C35.5235 28.4695 33.6929 26.5957 31.4532 26.5957Z" fill="#CC272B"/>
</svg>
