<svg width="76" height="76" viewBox="0 0 76 76" fill="none" xmlns="http://www.w3.org/2000/svg">
<!--<circle cx="38" cy="38" r="38" fill="white"/>-->
<path d="M57.8351 30.001C58.6835 29.1517 59.1601 28.0004 59.1601 26.7999C59.1601 25.5995 58.6835 24.4481 57.8351 23.5988L54.5745 20.3157C53.7183 19.4726 52.5649 19 51.3632 19C50.1616 19 49.0082 19.4726 48.152 20.3157L46.6475 21.7956C44.2649 20.7392 41.686 20.1982 39.0798 20.2079C36.4586 20.2003 33.865 20.7435 31.4672 21.8023L30.012 20.3157C29.1559 19.4726 28.0024 19 26.8008 19C25.5992 19 24.4458 19.4726 23.5896 20.3157L20.3335 23.5988C19.4837 24.446 19.0042 25.5954 19 26.7953C18.9958 27.9952 19.4672 29.1479 20.311 30.001L21.7707 31.5056C20.6425 34.0799 20.1025 36.8734 20.1899 39.6827C20.2774 42.4921 20.9902 45.2465 22.2764 47.7457C23.5626 50.2448 25.3898 52.4257 27.6251 54.1297C29.8604 55.8336 32.4475 57.0177 35.1981 57.5958C37.9487 58.1739 40.7936 58.1314 43.5257 57.4714C46.2578 56.8115 48.8084 55.5506 50.9918 53.7807C53.1752 52.0108 54.9365 49.7763 56.1475 47.2398C57.3585 44.7034 57.9887 41.9289 57.9923 39.1182C57.9949 36.48 57.4441 33.8705 56.3754 31.4584L57.8351 30.001ZM21.9278 25.1707L25.184 21.9146C25.396 21.7017 25.6479 21.5327 25.9254 21.4174C26.2028 21.3022 26.5003 21.2428 26.8008 21.2428C27.1013 21.2428 27.3988 21.3022 27.6762 21.4174C27.9537 21.5327 28.2057 21.7017 28.4176 21.9146L29.4057 22.8802C26.7236 24.4786 24.4786 26.7159 22.871 29.3925L21.9278 28.4269C21.497 27.9946 21.2551 27.4091 21.2551 26.7988C21.2551 26.1885 21.497 25.603 21.9278 25.1707ZM39.0798 55.7559C35.7864 55.7537 32.5676 54.7749 29.8306 52.9433C27.0935 51.1117 24.961 48.5095 23.7028 45.4659C22.4447 42.4224 22.1173 39.074 22.7622 35.8444C23.407 32.6148 24.9951 29.6489 27.3256 27.3218C29.6561 24.9948 32.6243 23.4111 35.8549 22.771C39.0855 22.131 42.4333 22.4633 45.4751 23.726C48.5168 24.9887 51.1157 27.125 52.9433 29.8648C54.7708 32.6046 55.7448 35.8248 55.7422 39.1182C55.735 43.5329 53.9765 47.7643 50.8525 50.8837C47.7285 54.003 43.4945 55.7553 39.0798 55.7559ZM55.293 29.37C53.6716 26.7102 51.4293 24.4833 48.7583 22.8802L49.7464 21.9146C49.9584 21.7017 50.2103 21.5327 50.4878 21.4174C50.7653 21.3022 51.0628 21.2428 51.3632 21.2428C51.6637 21.2428 51.9612 21.3022 52.2387 21.4174C52.5161 21.5327 52.7681 21.7017 52.9801 21.9146L56.2362 25.1707C56.6677 25.6031 56.9101 26.189 56.9101 26.7999C56.9101 27.4108 56.6677 27.9967 56.2362 28.4291L55.293 29.37Z" fill="#E77924" stroke="#E77924" stroke-width="0.3"/>
<path d="M50.4021 40.2185H39.0798C38.8635 40.2236 38.6512 40.1599 38.4735 40.0366C38.4061 39.9917 38.3612 39.9491 38.3163 39.9266C38.198 39.8288 38.1039 39.7049 38.0416 39.5646C37.9793 39.4244 37.9503 39.2715 37.957 39.1182V27.7981C37.957 27.5003 38.0753 27.2147 38.2859 27.0042C38.4964 26.7936 38.782 26.6753 39.0798 26.6753C39.3776 26.6753 39.6632 26.7936 39.8737 27.0042C40.0843 27.2147 40.2026 27.5003 40.2026 27.7981V37.9729H50.3977C50.5451 37.9726 50.6912 38.0014 50.8275 38.0575C50.9638 38.1137 51.0878 38.1961 51.1923 38.3002C51.2967 38.4043 51.3797 38.5279 51.4364 38.664C51.4931 38.8001 51.5224 38.946 51.5227 39.0935C51.523 39.2409 51.4942 39.387 51.4381 39.5233C51.3819 39.6597 51.2995 39.7836 51.1954 39.8881C51.0914 39.9926 50.9678 40.0755 50.8316 40.1322C50.6955 40.1889 50.5496 40.2182 50.4021 40.2185Z" fill="#E77924" stroke="#E77924" stroke-width="0.3"/>
</svg>
