<svg width="76" height="76" viewBox="0 0 76 76" fill="none" xmlns="http://www.w3.org/2000/svg">
<!--<circle cx="38" cy="38" r="38" fill="white"/>-->
<path d="M61.6543 36.427C61.4531 36.1369 61.1707 35.9126 60.8426 35.7823C60.5145 35.6519 60.1552 35.6213 59.8098 35.6942C57.9502 36.0815 56.0293 36.0671 54.1757 35.652C52.3222 35.2368 50.5787 34.4305 49.0619 33.287C47.5452 32.1435 46.2903 30.6891 45.3811 29.0213C44.472 27.3535 43.9296 25.5108 43.7903 23.6164C43.6278 21.5334 43.9477 19.441 44.7252 17.5017C44.8593 17.1717 44.8949 16.8099 44.8276 16.4601C44.7604 16.1103 44.5931 15.7875 44.3461 15.5308C44.1017 15.2814 43.7889 15.1099 43.4472 15.0379C43.1055 14.966 42.7501 14.9968 42.4258 15.1265C39.4537 16.31 36.9059 18.3593 35.1127 21.0086C33.3195 23.6578 32.3637 26.7847 32.3694 29.9838C31.3573 29.7595 30.3234 29.6494 29.2868 29.6553C27.2825 29.6516 25.2972 30.0429 23.4441 30.8067C21.5911 31.5704 19.9067 32.6918 18.4871 34.1067C17.0675 35.5216 15.9406 37.2022 15.1707 39.0527C14.4008 40.9032 14.003 42.8873 14 44.8915C14 45.1442 14.0253 45.3969 14.0253 45.6496C14.2616 49.6187 16.0192 53.3439 18.9324 56.05C21.8456 58.7561 25.69 60.2348 29.6658 60.1783H44.801C47.3202 60.2121 49.7586 59.2898 51.6247 57.5971C53.4908 55.9045 54.646 53.5673 54.8574 51.0568C55.0177 48.9303 54.4569 46.8118 53.2655 45.0431C56.7918 43.8734 59.7961 41.5039 61.7554 38.3473C61.9313 38.0534 62.0156 37.7138 61.9976 37.3717C61.9796 37.0297 61.8601 36.7008 61.6543 36.427ZM44.801 57.6516H29.6658C26.3401 57.7029 23.1223 56.4716 20.6804 54.2132C18.2385 51.9548 16.7601 48.8428 16.552 45.5232C16.4706 43.8007 16.7397 42.0796 17.3431 40.4642C17.9465 38.8488 18.8715 37.3727 20.0622 36.1253C21.2529 34.878 22.6844 33.8853 24.27 33.2075C25.8556 32.5297 27.5624 32.1808 29.2868 32.182C32.1831 32.1912 34.9905 33.1837 37.2491 34.9969C39.5076 36.8102 41.0834 39.3367 41.7183 42.1627C41.755 42.3563 41.8326 42.5398 41.9459 42.701C42.0592 42.8623 42.2056 42.9974 42.3753 43.0976L43.007 43.426L43.5123 43.2997C44.6143 43.0546 45.7582 43.07 46.8532 43.3445C47.9483 43.6189 48.9642 44.145 49.8202 44.8809C50.6763 45.6168 51.349 46.5422 51.7848 47.5836C52.2206 48.625 52.4075 49.7536 52.3306 50.8799C52.17 52.7537 51.3024 54.4962 49.9041 55.7538C48.5057 57.0114 46.6813 57.6899 44.801 57.6516ZM51.3957 42.9207C50.3699 42.0614 49.1804 41.4191 47.8992 41.0326C46.6181 40.646 45.2718 40.5233 43.9419 40.6719C43.2902 38.4438 42.139 36.3937 40.5759 34.6774C39.0128 32.961 37.079 31.6237 34.9214 30.7671C34.7706 28.2331 35.3379 25.708 36.5581 23.482C37.7784 21.2561 39.602 19.4196 41.8194 18.1839C41.2383 20.2347 41.0733 22.381 41.3341 24.4966C41.595 26.6121 42.2764 28.654 43.3382 30.5023C44.4001 32.3505 45.8209 33.9676 47.5171 35.2585C49.2133 36.5494 51.1506 37.4879 53.215 38.0188C54.9659 38.4488 56.7746 38.5938 58.5717 38.4484C56.7378 40.6891 54.2152 42.2613 51.3957 42.9207Z" fill="#E77924"/>
</svg>
