<svg width="24" height="26" viewBox="0 0 24 26" fill="none" xmlns="http://www.w3.org/2000/svg">
<mask id="path-1-inside-1_454_613" fill="white">
<path fill-rule="evenodd" clip-rule="evenodd" d="M16 8C16 10.2091 14.2091 12 12 12C9.79086 12 8 10.2091 8 8C8 5.79086 9.79086 4 12 4C14.2091 4 16 5.79086 16 8ZM18 8C18 11.3137 15.3137 14 12 14C8.68629 14 6 11.3137 6 8C6 4.68629 8.68629 2 12 2C15.3137 2 18 4.68629 18 8ZM12 14C17.4089 14 22 17.922 22 23C22 23.5523 21.5523 24 21 24C20.4477 24 20 23.5523 20 23C20 19.2415 16.5323 16 12 16C7.46774 16 4 19.2415 4 23C4 23.5523 3.55228 24 3 24C2.44772 24 2 23.5523 2 23C2 17.922 6.59113 14 12 14Z"/>
</mask>
<path fill-rule="evenodd" clip-rule="evenodd" d="M16 8C16 10.2091 14.2091 12 12 12C9.79086 12 8 10.2091 8 8C8 5.79086 9.79086 4 12 4C14.2091 4 16 5.79086 16 8ZM18 8C18 11.3137 15.3137 14 12 14C8.68629 14 6 11.3137 6 8C6 4.68629 8.68629 2 12 2C15.3137 2 18 4.68629 18 8ZM12 14C17.4089 14 22 17.922 22 23C22 23.5523 21.5523 24 21 24C20.4477 24 20 23.5523 20 23C20 19.2415 16.5323 16 12 16C7.46774 16 4 19.2415 4 23C4 23.5523 3.55228 24 3 24C2.44772 24 2 23.5523 2 23C2 17.922 6.59113 14 12 14Z" fill="#808080"/>
<path d="M12 13C14.7614 13 17 10.7614 17 8H15C15 9.65685 13.6569 11 12 11V13ZM7 8C7 10.7614 9.23858 13 12 13V11C10.3431 11 9 9.65685 9 8H7ZM12 3C9.23858 3 7 5.23858 7 8H9C9 6.34315 10.3431 5 12 5V3ZM17 8C17 5.23858 14.7614 3 12 3V5C13.6569 5 15 6.34315 15 8H17ZM12 15C15.866 15 19 11.866 19 8H17C17 10.7614 14.7614 13 12 13V15ZM5 8C5 11.866 8.13401 15 12 15V13C9.23858 13 7 10.7614 7 8H5ZM12 1C8.13401 1 5 4.13401 5 8H7C7 5.23858 9.23858 3 12 3V1ZM19 8C19 4.13401 15.866 1 12 1V3C14.7614 3 17 5.23858 17 8H19ZM12 15C16.9742 15 21 18.585 21 23H23C23 17.259 17.8435 13 12 13V15ZM21 23V25C22.1046 25 23 24.1046 23 23H21ZM21 23H19C19 24.1046 19.8954 25 21 25V23ZM21 23C21 18.5859 16.9752 15 12 15V17C16.0893 17 19 19.8971 19 23H21ZM12 15C7.0248 15 3 18.5859 3 23H5C5 19.8971 7.91068 17 12 17V15ZM3 23V25C4.10457 25 5 24.1046 5 23H3ZM3 23H1C1 24.1046 1.89543 25 3 25V23ZM3 23C3 18.585 7.02577 15 12 15V13C6.1565 13 1 17.259 1 23H3Z" fill="#555555" mask="url(#path-1-inside-1_454_613)"/>
</svg>
