<svg width="48" height="48" viewBox="0 0 48 48" fill="none" xmlns="http://www.w3.org/2000/svg">
<path d="M14 48L0 34V14L14 0H34L48 14V34L34 48H14Z" fill="#F8A239"/>
<path d="M23.6667 37.6667C24.4222 37.6667 25.0556 37.4111 25.5667 36.9C26.0778 36.3889 26.3333 35.7556 26.3333 35C26.3333 34.2444 26.0778 33.6111 25.5667 33.1C25.0556 32.5889 24.4222 32.3333 23.6667 32.3333C22.9111 32.3333 22.2778 32.5889 21.7667 33.1C21.2556 33.6111 21 34.2444 21 35C21 35.7556 21.2556 36.3889 21.7667 36.9C22.2778 37.4111 22.9111 37.6667 23.6667 37.6667ZM21 27H26.3333V11H21V27Z" fill="white"/>
</svg>
